<?xml version="1.0" standalone="no"?>
<!DOCTYPE svg PUBLIC "-//W3C//DTD SVG 1.1//EN" "http://www.w3.org/Graphics/SVG/1.1/DTD/svg11.dtd" >
<svg xmlns="http://www.w3.org/2000/svg">
<metadata></metadata>
<defs>
<font id="TYPOGRAPHPROSemiBold" horiz-adv-x="1290" >
<font-face units-per-em="2048" ascent="1536" descent="-512" />
<missing-glyph horiz-adv-x="714" />
<glyph horiz-adv-x="0" />
<glyph horiz-adv-x="2048" />
<glyph unicode="&#xd;" horiz-adv-x="1024" />
<glyph unicode=" "  horiz-adv-x="714" />
<glyph unicode="&#x09;" horiz-adv-x="714" />
<glyph unicode="&#xa0;" horiz-adv-x="714" />
<glyph unicode="!" horiz-adv-x="675" d="M164 151q0 75 52 127t127 52t127 -52t52 -127t-52 -127.5t-127 -52.5t-127 52.5t-52 127.5zM219 496v1087h246v-1087h-246z" />
<glyph unicode="&#x22;" horiz-adv-x="866" d="M115 1079v504h245v-504h-245zM506 1079v504h246v-504h-246z" />
<glyph unicode="#" horiz-adv-x="1433" d="M150 434v246h212v223h-212v246h212v215h246v-215h226v215h245v-215h213v-246h-213v-223h213v-246h-213v-215h-245v215h-226v-215h-246v215h-212zM608 680h226v223h-226v-223z" />
<glyph unicode="$" horiz-adv-x="1476" d="M166 301l219 111q29 -61 125 -112q101 -54 209 -54h8q120 -11 239.5 58t129.5 185q6 76 -39 123q-85 97 -314 97q-106 0 -204 24q-162 41 -248 133q-111 117 -101 287v2q10 172 115.5 277.5t257.5 140.5l62 12v111h245v-121l72 -16q212 -69 295 -218l-215 -120 q-41 72 -163 105q-132 35 -241 7q-174 -41 -182 -192q-3 -66 25 -97t62 -46t71 -25q70 -19 190.5 -19t248.5 -44t206 -130q117 -129 100 -309q-20 -251 -258 -385q-98 -53 -211 -76v-119h-245v117q-221 30 -366 172q-58 56 -93 121z" />
<glyph unicode="%" horiz-adv-x="2457" d="M139 1147q0 195 137 334q139 139 334 139t334 -139q137 -137 137 -334q0 -195 -138 -333t-332 -138t-335 139q-137 137 -137 332zM385 1147q0 -93 65 -160q64 -65 160 -65q95 0 160 65q66 66 66 160q0 95 -66 159q-69 68 -160 68q-92 0 -160 -68q-65 -65 -65 -159z M526 115l1196 1507l193 -152l-1196 -1507zM1378 440q0 202 138 334q135 139 333 139q197 0 334 -139q137 -137 137 -334q0 -196 -138.5 -333.5t-335 -137.5t-330.5 140q-138 134 -138 331zM1624 440q0 -94 65.5 -159.5t159.5 -65.5q93 0 160 65q66 65 66 160q0 94 -66 160 q-68 68 -160 68q-93 0 -159 -68q-66 -67 -66 -160z" />
<glyph unicode="&#x26;" horiz-adv-x="1564" d="M195 522q0 230 161 391q39 39 80 66l-24 39q-59 94 -59.5 191.5t30.5 169t85 124.5q119 117 280 117t278 -117t117 -278.5t-109 -276.5q-115 -119 -278 -119h-8q-128 0 -218 -90t-90 -217t90 -217t218 -90q127 0 217 90t90 217h245q0 -152 -73 -276l178 -213l-188 -156 l-158 189q-137 -96 -311 -97q-230 0 -392 162q-161 161 -161 391zM598 1234q0 -52 23 -87l49 -76q36 4 78 4h10q59 0 99 43t40 105.5t-44 106.5t-105 44t-105.5 -44t-44.5 -96z" />
<glyph unicode="'" horiz-adv-x="520" d="M154 1079v504h245v-504h-245z" />
<glyph unicode="(" horiz-adv-x="1212" d="M119 714q0 306 172 566q53 80 124 151q138 138 323 217t392 78v-245q-158 0 -297 -60.5t-243.5 -165t-164.5 -244t-60 -296.5q0 -158 60 -297t164.5 -243.5t244 -165t296.5 -60.5v-246q-305 0 -565 172q-80 53 -149 125q-138 135 -217.5 321.5t-79.5 392.5z" />
<glyph unicode=")" horiz-adv-x="1212" d="M102 -53q160 0 299.5 60.5t244 164.5t164.5 243.5t60 299.5t-60 299t-164.5 243.5t-244 165t-299.5 60.5v246q207 0 391.5 -79t325.5 -218t219 -325.5t78 -391.5t-78 -391.5t-219 -325.5q-134 -138 -322 -217.5t-395 -79.5v246z" />
<glyph unicode="*" horiz-adv-x="1222" d="M197 1036l192 121l-192 121l129 209l174 -109v205h245v-205l175 109l129 -209l-193 -121l193 -121l-129 -209l-175 109v-205h-245v205l-174 -109z" />
<glyph unicode="+" horiz-adv-x="1331" d="M131 752v245h410v406h245v-406h406v-245h-406v-408h-245v408h-410z" />
<glyph unicode="," horiz-adv-x="770" d="M131 -248l262 494l217 -115l-262 -493z" />
<glyph unicode="-" horiz-adv-x="1439" d="M147 512v246h1162v-246h-1162z" />
<glyph unicode="." horiz-adv-x="604" d="M127 151q0 75 52 127t127 52t127 -52t52 -127t-52 -127.5t-127 -52.5t-127 52.5t-52 127.5z" />
<glyph unicode="/" horiz-adv-x="1247" d="M70 72l897 1562l213 -123l-897 -1562z" />
<glyph unicode="0" horiz-adv-x="1591" d="M145 801q0 333 187 571q88 115 211 184q133 70 271 70t271 -70q121 -70 213 -184q187 -243 187 -573t-187 -570q-92 -117 -218 -185.5t-266 -68.5t-267 69t-215 185q-187 238 -187 572zM391 801q0 -248 133 -420q121 -160 291 -160q166 0 289 160q135 172 135 420 q0 246 -135 420q-120 159 -289 159q-167 0 -291 -159q-133 -169 -133 -420z" />
<glyph unicode="1" horiz-adv-x="735" d="M154 1335v246h417v-1581h-245v1335h-172z" />
<glyph unicode="2" horiz-adv-x="1419" d="M129 -2l186 205q178 195 288 316.5t172.5 190t88 96.5t30.5 33t7 8t10 11t25.5 29.5t33.5 50.5q42 73 42 135.5t-22.5 116t-62.5 93.5q-85 85 -195.5 85t-188.5 -60q-113 -88 -113 -231h-246q0 66 21 145.5t70 153.5t119 126q149 112 327 112q225 0 379 -158 q157 -153 157 -379v-2q0 -183 -125 -335q-26 -33 -36 -43.5t-11.5 -12.5t-3.5 -4l-2 -4q-8 -8 -46 -50t-94 -102.5t-122.5 -134.5t-132.5 -145h555v-246h-1110z" />
<glyph unicode="3" horiz-adv-x="1480" d="M172 367l234 77q35 -104 132 -163.5t234 -59.5q134 0 232 96q96 95 96 232q0 138 -96 233q-99 97 -232 97q-82 0 -147 -19l-279 -76l379 553h-463v246h930l-322 -467q179 -31 308 -160q168 -168 168 -407q0 -238 -168 -406t-406 -168q-224 0 -382.5 106.5t-217.5 285.5z " />
<glyph unicode="4" horiz-adv-x="1593" d="M66 250l1177 1419v-1173h223v-246h-223v-252h-246v252h-931zM590 496h407v493z" />
<glyph unicode="5" horiz-adv-x="1458" d="M156 334l227 96q41 -98 128 -155.5t176.5 -57.5t152.5 27.5t111 75.5q104 102 104 247q0 143 -104 247t-246 104q-90 0 -197 -52l-223 -118v835h872v-246h-627v-202q90 29 175 28q243 0 421 -174q174 -174 174 -422t-174 -422t-421 -174q-180 0 -331 99 q-152 100 -218 264z" />
<glyph unicode="6" horiz-adv-x="1361" d="M125 522q0 139 61 256l459 864l217 -114l-239 -453q14 2 29 2h28q113 0 215 -43q209 -92 297 -298q43 -101 43 -213q0 -228 -162 -394q-162 -162 -393 -162q-227 0 -393 162q-162 166 -162 393zM370.5 535.5q0.5 -76.5 25 -133t66.5 -98.5q91 -91 218 -91t218 91t91 218 t-91 218t-218 91q-88 0 -157.5 -40.5t-110.5 -112.5q-42 -66 -41.5 -142.5z" />
<glyph unicode="7" horiz-adv-x="1466" d="M147 1335v246h1270l-938 -1622l-213 123l725 1253h-844z" />
<glyph unicode="8" horiz-adv-x="1376" d="M145 518q0 229 160 389q24 22 84 68q-86 104 -86 246q0 163 115 278t276 115q164 0 279 -115q114 -114 114 -265.5t-86 -258.5q139 -97 202 -246q42 -100 42 -211q0 -227 -162 -389t-389 -162t-389 162q-160 160 -160 389zM391 518q0 -126 88 -216q87 -89 215 -89t215 89 q90 92 90 216q0 125 -90 215q-88 88 -215 88t-215 -88t-88 -215zM549 1220q0 -60 43 -103.5t103 -43.5t103.5 43t43.5 103.5t-43.5 104.5t-103.5 44t-103 -44t-43 -104z" />
<glyph unicode="9" horiz-adv-x="1359" d="M139 1071q0 225 160 385t385 160t385 -160t160 -403q0 -129 -72 -254l-440 -848l-217 115l239 462q-14 -2 -27 -2h-28q-225 0 -385 160t-160 385zM385 1071q0 -125 87 -212t222 -87q72 0 137.5 37t106.5 102l14 27v-2q31 61 31 128.5t-23.5 122t-64.5 95.5 q-88 88 -211 88q-126 0 -212 -88q-87 -89 -87 -211z" />
<glyph unicode=":" horiz-adv-x="763" d="M209 413q0 75 52 127t127 52t127 -52t52 -127t-52 -127.5t-127 -52.5t-127 52.5t-52 127.5zM209 1054q0 75 52 127t127 52t127 -52t52 -127t-52 -127.5t-127 -52.5t-127 52.5t-52 127.5z" />
<glyph unicode=";" horiz-adv-x="811" d="M219 188l168 412l227 -94l-168 -412zM238 1043.5q0 74.5 52 127t127 52.5t127 -52.5t52 -127.5t-52 -127t-127 -52t-127 52.5t-52 127z" />
<glyph unicode="&#x3c;" horiz-adv-x="997" d="M59 664l510 507l174 -174l-335 -333l335 -336l-174 -174z" />
<glyph unicode="=" horiz-adv-x="1384" d="M186 387v246h1016v-246h-1016zM186 879v245h1016v-245h-1016z" />
<glyph unicode="&#x3e;" horiz-adv-x="993" d="M221 328l334 336l-334 333l172 174l510 -507l-510 -510z" />
<glyph unicode="?" horiz-adv-x="1277" d="M115 1307q66 144 201.5 229.5t295.5 85.5q227 0 387 -162q162 -162 162 -387q0 -227 -162 -389t-387 -162q-23 0 -32 2v-131h-246v461l168 -66q57 -20 114 -20t112.5 23.5t97.5 65.5q89 89 89 216q0 125 -89 214t-214 89q-90 0 -163.5 -47t-112.5 -127zM281 146.5 q0 74.5 52 127t127 52.5t127 -52.5t52 -127.5t-52 -127t-127 -52t-127 52.5t-52 127z" />
<glyph unicode="@" horiz-adv-x="1816" d="M72 434q0 250 142 464q131 198 368 304q156 66 323.5 66t327.5 -66q307 -137 444 -444q66 -156 66 -326q0 -214 -117 -342q-57 -59 -135 -88t-145 -16q-134 27 -195 151q-136 -108 -277 -106q-167 0 -283 117q-118 120 -118 286t117 283q113 117 284 117q134 0 248 -82 v26h246v-528q9 -21 21 -21q25 -5 57 27v2q18 20 34.5 66.5t16.5 138.5t-46 199.5t-126 187.5q-172 172 -418 172q-247 0 -417 -172q-173 -174 -173 -418t173 -418q170 -172 417 -172q98 0 197 35l80 -233q-135 -47 -291 -47q-237 0 -451 142q-67 44 -126 102 q-108 107 -179 265q-66 160 -65 328zM719 433.5q0 -64.5 44.5 -111t110.5 -46.5t116 46t50 110t-50 110t-116 46t-110.5 -45t-44.5 -109.5z" />
<glyph unicode="A" horiz-adv-x="1677" d="M68 51l761 1614l766 -1614l-221 -104l-211 442h-665l-209 -442zM614 635h433l-218 457z" />
<glyph unicode="B" horiz-adv-x="1576" d="M188 0v1581h623q154 0 262 -52q234 -113 234 -388q0 -162 -93 -273q12 -8 24.5 -15t25.5 -17q84 -63 128 -152.5t44 -197.5q0 -225 -158 -359q-150 -127 -365 -127h-725zM434 246h479q181 0 251 125q26 45 26 114.5t-35 113.5t-86 69q-82 39 -215 39h-420v-461zM434 952 h418q57 0 111.5 28t76 65.5t21.5 106.5t-28.5 102.5t-56.5 47.5q-69 33 -165 33h-377v-383z" />
<glyph unicode="C" horiz-adv-x="1638" d="M117 793q0 166 63 318.5t178 262.5q242 242 582 242q170 0 322 -64q155 -71 260 -176l-172 -174q-172 168 -410 168q-119 0 -224.5 -45t-183 -124t-124 -184.5t-46.5 -223.5q0 -119 46.5 -224.5t124 -183.5t183 -124t224.5 -46q238 0 410 168l172 -172 q-115 -115 -265.5 -178.5t-316.5 -63.5t-316 63.5t-266 178.5q-114 115 -178 265q-63 148 -63 312v5z" />
<glyph unicode="D" horiz-adv-x="1654" d="M178 0v1583h551q168 0 317.5 -58.5t262.5 -168.5q111 -111 170 -254.5t59 -305.5q0 -333 -221 -558q-109 -113 -261.5 -175.5t-326.5 -62.5h-551zM424 246h305q248 0 407 154q156 153 156 399q0 232 -160 385q-158 153 -403 153h-305v-1091z" />
<glyph unicode="E" horiz-adv-x="1304" d="M197 0v1583h948v-246h-703v-389h680v-246h-680v-456h703v-246h-948z" />
<glyph unicode="F" horiz-adv-x="1302" d="M207 0v1583h973v-246h-727v-456h700v-246h-700v-635h-246z" />
<glyph unicode="G" horiz-adv-x="1875" d="M111 793q0 335 243 587q113 113 264.5 177.5t345 64.5t379.5 -102q183 -100 295 -275l-206 -135q-82 127 -211 196.5t-265.5 69.5t-243 -46t-185 -125t-125 -185.5t-46.5 -226.5q0 -239 172 -414q78 -80 184.5 -126t211 -46t186.5 24.5t152 70.5q144 96 213 249h-586v246 h885q0 -59 -5.5 -88t-9.5 -56q-47 -291 -278 -493q-238 -199 -549 -199q-158 0 -312 64.5t-268.5 180.5t-177.5 268q-63 149 -63 314v5z" />
<glyph unicode="H" horiz-adv-x="1751" d="M227 0v1583h246v-590h850v590h246v-1583h-246v748h-850v-748h-246z" />
<glyph unicode="I" horiz-adv-x="675" d="M225 0v1583h246v-1583h-246z" />
<glyph unicode="J" horiz-adv-x="1433" d="M147 195l189 159l42 -48q88 -91 247 -91q246 0 327 145q52 89 52 226v997h245v-1003q0 -204 -84 -342q-105 -183 -331 -244q-90 -25 -202.5 -25t-192 24.5t-135.5 60.5q-79 51 -150 136z" />
<glyph unicode="K" horiz-adv-x="1779" d="M190 0v1583h246v-723l965 774l153 -192l-692 -555l805 -762l-168 -180l-831 786l-232 -186v-545h-246z" />
<glyph unicode="L" horiz-adv-x="1308" d="M188 0v1583h246v-1337h725v-246h-971z" />
<glyph unicode="M" horiz-adv-x="2158" d="M45 25l440 1615l586 -1169l584 1171l444 -1619l-237 -64l-275 999l-516 -1036l-518 1034l-270 -995z" />
<glyph unicode="N" horiz-adv-x="1863" d="M223 0v1657l1188 -1157v1083h246v-1665l-1188 1157v-1075h-246z" />
<glyph unicode="O" horiz-adv-x="1878" d="M113 793q0 168 63 319t180 268t269 181q150 63 314 63h5q168 0 319.5 -63t268.5 -181q117 -117 180.5 -268.5t63.5 -318.5q0 -168 -63.5 -319.5t-180.5 -268.5t-268.5 -180.5t-319.5 -63.5t-319 63.5t-269 180.5q-116 117 -180 269q-63 149 -63 314v5zM358 793 q0 -240 172 -414q171 -172 414 -172q242 0 414 172t172 414q0 241 -172 413t-414 172q-243 0 -414 -172q-172 -174 -172 -413z" />
<glyph unicode="P" horiz-adv-x="1488" d="M197 0v1583h524q278 0 444 -143q166 -142 166 -381q0 -119 -42 -223t-122 -184q-162 -161 -434 -165l-16 2h-275v-489h-245zM442 735h279q12 -1 24 -1q153 0 252 95q88 88 88 225q0 207 -209 264q-69 19 -155 19h-279v-602z" />
<glyph unicode="Q" horiz-adv-x="1916" d="M186 469q-68 159 -68 321.5t68 327.5q139 312 445 443q154 65 318 65h5q168 0 321 -66q314 -134 447 -442q66 -160 66 -325q0 -305 -205 -547l143 -160l-180 -164l-151 164q-59 -37 -117 -59q-150 -66 -324 -66t-323 66q-303 123 -445 442zM367 793q0 -241 171 -414 q80 -80 187.5 -126t204.5 -46q163 0 297 65l-250 277l180 164l258 -283q127 164 127 363q0 243 -172 415q-80 80 -187.5 126t-228.5 46t-228.5 -46t-187 -126t-125.5 -187.5t-46 -227.5z" />
<glyph unicode="R" horiz-adv-x="1488" d="M188 0v1583h525q262 0 426 -127q184 -140 184 -397q0 -119 -42 -223t-122 -183.5t-184 -117.5l358 -426l-188 -160l-453 540h-258v-489h-246zM434 735h279q12 -1 24 -1q153 0 252 95q88 88 88 226.5t-90 208.5q-98 73 -274 73h-279v-602z" />
<glyph unicode="S" horiz-adv-x="1501" d="M145 276l220 113q34 -66 133 -119q108 -59 221 -59h8q10 -1 21 -1q40 0 94 12q68 14 133 48q135 76 143 203q1 9 1 18q0 69 -41 113q-46 49 -134 77t-160 28q-153 0 -252 24q-164 41 -258 137q-102 113 -102 272q0 12 1 26q9 176 126 294q97 101 258 140q79 19 161 19 q113 0 232 -36q222 -75 305 -225l-213 -121q-41 71 -165 111q-76 24 -154 24q-55 0 -111 -12q-186 -43 -194 -209q-1 -8 -1 -17q0 -55 36 -96q47 -47 131 -66.5t161 -19.5q166 0 298.5 -47t213.5 -135q109 -116 109 -276q0 -21 -2 -43q-12 -137 -86 -236.5t-167 -152.5 q-176 -99 -361 -99h-37q-174 4 -330 86q-164 88 -238 225z" />
<glyph unicode="T" horiz-adv-x="1415" d="M80 1337v246h1247v-246h-502v-1337h-245v1337h-500z" />
<glyph unicode="U" horiz-adv-x="1843" d="M213 707v876h246v-876q0 -187 59 -297q102 -195 404 -195q301 0 403 195q59 105 59 297v876h246v-876q0 -165 -27.5 -258t-58.5 -151t-80 -116.5t-122 -105.5q-168 -107 -420 -107q-253 0 -420 107q-234 149 -279 460q-10 70 -10 171z" />
<glyph unicode="V" horiz-adv-x="1660" d="M25 1513l219 111l592 -1163l589 1163l220 -111l-807 -1593z" />
<glyph unicode="W" horiz-adv-x="2560" d="M78 1524l227 94l447 -1086l524 1117l522 -1117l447 1086l227 -94l-657 -1602l-539 1147l-539 -1147z" />
<glyph unicode="X" horiz-adv-x="1556" d="M61 94l560 723l-519 670l195 151l479 -620l477 620l195 -151l-516 -670l559 -723l-195 -151l-520 673l-520 -673z" />
<glyph unicode="Y" horiz-adv-x="1761" d="M92 1499l197 148l592 -791l594 791l196 -148l-667 -889v-610h-246v610z" />
<glyph unicode="Z" horiz-adv-x="1644" d="M117 0l938 1335h-793v246h1268l-940 -1335h833v-246h-1306z" />
<glyph unicode="[" horiz-adv-x="784" d="M184 -283v1995h488v-246h-242v-1503h244v-246h-490z" />
<glyph unicode="\" horiz-adv-x="1249" d="M66 1518l213 122l905 -1574l-213 -123z" />
<glyph unicode="]" horiz-adv-x="774" d="M102 -37h244v1503h-242v246h488v-1995h-490v246z" />
<glyph unicode="^" horiz-adv-x="1159" d="M78 1255l493 496l492 -496l-174 -172l-318 320l-319 -320z" />
<glyph unicode="_" horiz-adv-x="1452" d="M141 0v246h1162v-246h-1162z" />
<glyph unicode="`" horiz-adv-x="561" d="M66 1552l225 103l168 -371l-226 -102z" />
<glyph unicode="a" horiz-adv-x="1380" d="M82 489q0 221 156 379q156 156 376 156q219 0 379 -156q6 -8 19 -20v135h245v-983h-245v133l-10 -10q-73 -80 -176 -123t-210 -43q-224 0 -378 156q-156 156 -156 376zM328 489q0 -118 84 -202t202 -84q121 0 205 84t84 202q0 121 -84 205t-205 84q-118 0 -202 -84 t-84 -205z" />
<glyph unicode="b" horiz-adv-x="1363" d="M164 0v1622h246v-741q149 141 358 141q219 0 375 -156q155 -155 155 -374q0 -222 -155 -373q-156 -156 -370 -156t-363 141v-104h-246zM485 492q0 -117 83 -200t200 -83q119 0 202 83t83 200q0 118 -83 201t-202 83q-117 0 -200 -83t-83 -201z" />
<glyph unicode="c" horiz-adv-x="1122" d="M111 492q0 219 153 374q154 154 375 154t375 -154l-174 -174q-82 82 -201 82q-117 0 -200 -83t-83 -199q0 -117 83 -200t201 -83t200 82l174 -174q-154 -154 -375 -154t-375 154q-153 157 -153 375z" />
<glyph unicode="d" horiz-adv-x="1366" d="M109 489q0 224 155 377q156 156 362 156t351 -121v721h246v-1622h-246v80q-148 -121 -338 -121q-219 0 -375 156q-155 155 -155 374zM354 489q0 -116 84 -200t201 -84q119 0 203 84t84 200q0 119 -84 203t-203 84q-117 0 -201 -84t-84 -203z" />
<glyph unicode="e" d="M109 489q0 226 157 381q154 158 379 158q222 0 381 -158q158 -156 158 -381v-112h-830q35 -88 114 -143.5t171 -55.5t163.5 42t115.5 114l194 -113q-72 -121 -196 -194.5t-252 -73.5q-244 0 -398 158q-157 153 -157 378zM354 602h584q-35 88 -114 144.5t-178 56.5 t-178 -56.5t-114 -144.5z" />
<glyph unicode="f" horiz-adv-x="1003" d="M59 844v246h146q0 109 19 180q44 160 147 264q197 197 587 197v-246q-289 0 -413 -125q-94 -94 -94 -270h241v-246h-241v-842h-246v842h-146z" />
<glyph unicode="g" horiz-adv-x="1370" d="M104 489q0 223 156 377q156 156 372 156t367 -143v104h246v-874l-8 -76v-2q-14 -80 -23 -92q0 -12 -10 -35v-2q-43 -131 -143 -221l-4 -5q-13 -13 -27 -22.5t-30 -21.5q-33 -24 -105 -58q-111 -43 -248 -51h-80t-63 4h-4l-43 8q-96 15 -197 76l-2 2l-4 2q-6 6 -14 10 l139 203l8 -6h2q72 -39 111 -45l30 -6q34 -2 65 -2q159 0 251 55q93 62 127 158l2 10q12 37 16 59.5t5 28.5t1 12t2 10q-155 -143 -364 -143q-219 0 -375 156t-156 374zM350 489q0 -116 84 -200t201 -84q119 0 203 84t84 200q0 119 -84 203t-203 84q-117 0 -201 -84 t-84 -203z" />
<glyph unicode="h" horiz-adv-x="1363" d="M164 0v1622h246v-696q151 104 329 104h2q217 0 377 -156q156 -160 156 -376v-498h-246v498q0 120 -84 202q-85 84 -203 84h-2q-125 0 -225 -89t-100 -197v-498h-250z" />
<glyph unicode="i" horiz-adv-x="575" d="M111 1294q0 115 107 162q32 14 69 14q72 0 123 -52q53 -52 53 -124q0 -70 -53 -124q-49 -52 -123 -52t-125 51.5t-51 124.5zM164 0v983h246v-983h-246z" />
<glyph unicode="j" horiz-adv-x="985" d="M29 -233h278q110 0 198 101q89 102 89 226v889h246v-889q0 -104 -40 -206q-83 -212 -278 -316q-102 -51 -215 -51h-278v246zM539 1294q0 115 107 162q32 14 69 14q72 0 123 -52q53 -52 53 -124q0 -70 -53 -124q-49 -52 -123 -52t-125 51.5t-51 124.5z" />
<glyph unicode="k" horiz-adv-x="1245" d="M164 0v1622h246v-1010l559 430l149 -196l-368 -283l419 -436l-176 -172l-440 457l-143 -111v-301h-246z" />
<glyph unicode="l" horiz-adv-x="577" d="M166 0v1622h246v-1622h-246z" />
<glyph unicode="m" horiz-adv-x="1992" d="M164 0v1024h225v-70q119 78 239 78q222 0 363 -145l19 -19l18 19q137 145 342 145q201 0 342 -145q141 -141 141 -346v-541h-245v541q0 101 -70 173t-168 72t-168 -72q-69 -71 -69 -173v-541h-246v541q0 101 -70 173t-168 72q-99 0 -167 -72q-70 -73 -70 -173v-541h-248z " />
<glyph unicode="n" horiz-adv-x="1359" d="M164 0v1004h225v-76q139 98 307 98h2q217 0 377 -156q156 -160 156 -376v-494h-246v494q0 118 -84 202t-203 84h-2q-120 0 -202 -84q-84 -85 -84 -202v-494h-246z" />
<glyph unicode="o" d="M109 492q0 227 157 378q154 158 379 158t379 -158q158 -154 158 -378q0 -227 -158 -379q-154 -158 -379 -158t-379 158q-157 153 -157 379zM354 492q0 -121 85 -206t206 -85t206 85t85 206q0 120 -85 205t-206 85t-206 -85t-85 -205z" />
<glyph unicode="p" horiz-adv-x="1404" d="M164 -465v1448h246v-86q150 127 348 127q223 0 381 -158q157 -161 157 -381q0 -218 -157 -381q-157 -157 -370.5 -157t-358.5 127v-539h-246zM465 485q0 -124 85 -207q86 -85 208 -85t208 85q85 83 85 207q0 123 -85 208t-208 85t-208 -85t-85 -208z" />
<glyph unicode="q" horiz-adv-x="1423" d="M109 489q0 232 157 383q160 160 375.5 160t370.5 -139v90h245v-1448h-245v551q-158 -137 -363 -137q-224 0 -383 157q-157 157 -157 383zM354 489q0 -120 87 -207t208 -87q123 0 210 87t87 207q0 123 -87 210t-210 87q-121 0 -208 -87t-87 -210z" />
<glyph unicode="r" horiz-adv-x="1024" d="M164 0v1004h246v-62q0 2 2 2q133 84 319 84q70 0 146.5 -22.5t130.5 -57.5l-136 -205q-20 14 -63 26.5t-94.5 12.5t-99.5 -14t-79 -36q-46 -30 -81 -95q-43 -94 -43 -240v-397h-248z" />
<glyph unicode="s" horiz-adv-x="1075" d="M111 168l217 111q74 -74 178 -74h6h4l4 -2q105 0 166 53q27 27 28 49q1 32 -13 46q-45 40 -177 40q-131 0 -246 53q-49 23 -85 64q-74 78 -74 185v16q6 117 78.5 194.5t195.5 106.5q61 15 123 15q74 0 150 -21q159 -47 223 -156l-215 -121q-2 4 -18.5 16.5t-55.5 22.5 q-45 14 -88 14q-28 0 -55 -6q-67 -16 -79.5 -39.5t-12.5 -35t6 -23.5q16 -16 60 -27.5t119.5 -11.5t172.5 -27t158 -94q79 -80 79 -194q0 -13 -2 -27q-10 -131 -110 -223q-70 -59 -159 -87t-133 -28t-73.5 1t-89 15.5t-113.5 40.5q-123 60 -169 154z" />
<glyph unicode="t" horiz-adv-x="819" d="M86 846v246h166v530h246v-530h241v-246h-241v-844h-246v844h-166z" />
<glyph unicode="u" horiz-adv-x="1380" d="M164 465v518h246v-518q0 -162 73 -225q66 -53 205 -54h2q167 0 234 95q47 68 47 184v518h246v-518q0 -266 -162 -404q-138 -120 -365 -120h-2q-231 0 -362 112q-162 137 -162 412z" />
<glyph unicode="v" horiz-adv-x="1148" d="M37 911l217 115l326 -608l325 608l215 -115l-540 -1013z" />
<glyph unicode="w" horiz-adv-x="1835" d="M61 909l222 107l272 -559l360 608l363 -608l272 559l222 -107l-474 -968l-383 643l-383 -643z" />
<glyph unicode="x" horiz-adv-x="1112" d="M76 106l323 398l-295 362l191 156l262 -324l260 324l193 -156l-295 -362l321 -398l-190 -155l-289 358l-289 -358z" />
<glyph unicode="y" horiz-adv-x="1359" d="M78 901l219 113l385 -746l412 748l215 -117l-770 -1401l-215 119l215 391z" />
<glyph unicode="z" horiz-adv-x="1282" d="M61 0l615 737h-445v246h969l-614 -737h497v-246h-1022z" />
<glyph unicode="{" horiz-adv-x="774" d="M63 588v246h119q10 0 20.5 11t10.5 29v512q0 119 84 203t201 84h161v-246h-161q-16 0 -27.5 -12t-11.5 -29v-512q0 -87 -49 -163q49 -75 49 -164v-506q0 -16 11 -28.5t28 -12.5h161v-246h-161q-117 0 -201 84t-84 203v506q0 18 -10 29.5t-21 11.5h-119z" />
<glyph unicode="|" horiz-adv-x="608" d="M180 -291v2003h246v-2003h-246z" />
<glyph unicode="}" horiz-adv-x="811" d="M131 0h162q16 0 27.5 12.5t11.5 28.5v506q0 90 51 164q-51 74 -51 163v512q0 16 -11.5 28.5t-27.5 12.5h-162v246h162q121 0 201 -84q84 -87 84 -203v-512q0 -18 11 -29t21 -11h119v-246h-119q-10 0 -21 -11.5t-11 -29.5v-506q0 -116 -84 -203q-80 -84 -201 -84h-162v246 z" />
<glyph unicode="~" horiz-adv-x="1007" d="M70 1102q31 31 73 82q80 88 215 92h2q130 0 220 -90l24 -25q15 -18 32 -18q36 0 52 16q23 23 62 68l188 -156q-15 -25 -74 -84q-94 -90 -218 -90q-126 0 -216 90l-24 25q-18 18 -36 18q-33 0 -46 -12t-29 -31.5t-37 -44.5z" />
<glyph unicode="&#xa1;" horiz-adv-x="675" d="M168 1431q0 75 52 127t127 52t127 -52.5t52 -127t-52 -127t-127 -52.5t-127 52.5t-52 127.5zM225 -2v1087h246v-1087h-246z" />
<glyph unicode="&#xa2;" horiz-adv-x="1122" d="M84 793q0 227 162 389q110 114 266 147v254h246v-252q154 -35 268 -149l-174 -172q-88 88 -215 88t-217 -90t-90 -215q0 -129 90 -217q92 -91 217 -91t215 90l174 -174q-117 -113 -268 -147v-254h-246v254q-154 35 -266 147q-162 162 -162 392z" />
<glyph unicode="&#xa3;" horiz-adv-x="1308" d="M129 113q0 124 122 245q38 37 96 65t116 30q20 55 12 102h-227v246h78q-49 68 -88 147.5t-39 184.5v4q0 199 141 340q137 141 340 141h8q197 0 340 -141q141 -141 141 -340h-245q0 100 -70 167q-72 68 -166 68h-8q-94 0 -166 -68q-70 -67 -70 -167v-4q0 -61 35 -119 t77 -113t73 -100h311v-246h-217q5 -107 -25 -172q12 -10 24.5 -19.5t25.5 -19.5l131 -117q29 -25 62.5 -27.5t49.5 17.5l185 -164q-88 -100 -228 -100q-133 0 -233 92l-129 115q-55 47 -88 47t-55.5 -10t-43.5 -40t-24 -44h-246z" />
<glyph unicode="&#xa4;" horiz-adv-x="1415" d="M137 330l142 143q-68 117 -68 253t72 251l-142 141l174 174l142 -141q117 68 249.5 68t249.5 -68l142 141l174 -174l-142 -141q72 -115 72 -250t-67 -254l141 -143l-172 -172l-143 141q-115 -72 -254 -72t-254 72l-144 -141zM457 723q0 -103 73 -177q71 -73 177 -73 q104 0 177 73q72 72 72 177t-72 177q-73 73 -177 73q-106 0 -177 -73q-73 -74 -73 -177z" />
<glyph unicode="&#xa5;" horiz-adv-x="1699" d="M80 1481l196 147l572 -770l573 770l197 -147l-332 -447h180v-246h-362l-76 -100h438v-246h-495v-442h-246v442h-487v246h430l-74 100h-356v246h174z" />
<glyph unicode="&#xa8;" horiz-adv-x="1705" d="M393 1379.5q0 74.5 52.5 127t127 52.5t127 -52.5t52.5 -127.5t-52.5 -127t-127.5 -52t-127 52.5t-52 127zM969 1379.5q0 74.5 52 127t127 52.5t127 -52.5t52 -127.5t-52 -127t-127 -52t-127 52.5t-52 127z" />
<glyph unicode="&#xa9;" horiz-adv-x="858" d="M80 1255q0 145 102 249t248 104q145 0 249 -104q103 -103 103 -249t-103 -247q-105 -103 -248 -103q-73 0 -137.5 28t-111.5 75q-102 102 -102 247zM182 1255q0 -103 73 -175q74 -72 175 -72q103 0 177 72q73 72 73 175q0 106 -73 177q-74 73 -177 73q-101 0 -175 -73 q-73 -71 -73 -177zM215 1255q0 91 65 157q63 65 153.5 65t158.5 -64l-74 -74q-31 35 -81 35t-85 -34.5t-35 -83t35 -83t85 -34.5t81 35l74 -74q-68 -64 -158 -64t-154.5 64.5t-64.5 154.5z" />
<glyph unicode="&#xad;" horiz-adv-x="1439" d="M147 512v246h1162v-246h-1162z" />
<glyph unicode="&#xae;" horiz-adv-x="868" d="M90 1255q0 143 102 247q103 104 246 104t247 -104q103 -103 103 -247t-103 -245q-105 -103 -247 -103q-141 0 -246 103q-102 101 -102 245zM193 1255q0 -102 72 -173q74 -72 173 -72q103 0 175.5 72.5t72.5 172.5q0 103 -72.5 175.5t-175.5 72.5q-99 0 -173 -73 q-72 -70 -72 -175zM299 1067v385h135q61 0 111 -33q55 -42 55 -112q0 -87 -72 -131l60 -78l-82 -62l-88 115h-17v-84h-102zM401 1253h33q14 0 39 9.5t25 44.5q0 43 -64 43h-33v-97z" />
<glyph unicode="&#xb0;" horiz-adv-x="417" d="M76 1477.5q0 56.5 40 96.5t96 40t96 -40t40 -96t-40 -96.5t-96 -40.5t-96 40t-40 96.5zM178 1477.5q0 -33.5 34 -33.5t34 33.5t-34 33.5t-34 -33.5z" />
<glyph unicode="&#xb4;" horiz-adv-x="567" d="M92 1284l168 371l225 -103l-168 -370z" />
<glyph unicode="&#xbf;" horiz-adv-x="1277" d="M113 518q0 226 161 389q162 162 388 162q23 0 32 -2v131h246v-461l-168 66q-57 20 -114 20t-113 -24.5t-97 -65.5q-90 -88 -90 -215q0 -123 90 -214q87 -89 214 -89q88 0 162.5 47t113.5 127l221 -106q-70 -141 -198 -226q-139 -88 -299 -88q-226 0 -388 162 q-161 161 -161 387zM635 1445q0 75 52 127t127 52t127 -52t52 -127t-52 -127t-127 -52t-127 52t-52 127z" />
<glyph unicode="&#xc0;" horiz-adv-x="1677" d="M68 51l761 1614l766 -1614l-221 -104l-211 442h-665l-209 -442zM614 635h433l-218 457zM641 2089l225 103l168 -371l-226 -102z" />
<glyph unicode="&#xc1;" horiz-adv-x="1677" d="M68 51l761 1614l766 -1614l-221 -104l-211 442h-665l-209 -442zM614 635h433l-218 457zM719 1776l168 370l225 -102l-168 -371z" />
<glyph unicode="&#xc2;" horiz-adv-x="1677" d="M68 51l761 1614l766 -1614l-221 -104l-211 442h-665l-209 -442zM412 1776l168 370l225 -102l-168 -371zM614 635h433l-218 457zM862 2044l225 102l168 -370l-225 -103z" />
<glyph unicode="&#xc3;" horiz-adv-x="1677" d="M68 51l761 1614l766 -1614l-221 -104l-211 442h-665l-209 -442zM404 1893q31 31 73 82q80 88 215 92h2q129 0 219 -90l25 -25q15 -18 32 -18q36 0 52 16q33 33 61 68l189 -156q-15 -25 -74 -84q-94 -90 -218 -90q-126 0 -216 90l-25 25q-18 18 -35 18q-33 0 -46 -12 q-20 -19 -66 -76zM614 635h433l-218 457z" />
<glyph unicode="&#xc4;" horiz-adv-x="1677" d="M68 51l221 -104l209 442h665l211 -442l221 104l-766 1614zM367 1850.5q0 74.5 52 127t127 52.5t127 -52.5t52 -127.5t-52 -127t-127 -52t-127 52.5t-52 127zM614 635l215 457l218 -457h-433zM942 1850.5q0 74.5 52.5 127t127 52.5t126.5 -52.5t52 -127.5t-52 -127 t-127 -52t-127 52.5t-52 127z" />
<glyph unicode="&#xc5;" horiz-adv-x="1677" d="M68 51l221 -104l209 442h665l211 -442l221 104l-766 1614zM614 635l215 457l218 -457h-433zM702 1895q0 56 40 96.5t96.5 40.5t96.5 -40t40 -96.5t-40 -96.5t-96 -40t-96.5 40t-40.5 96zM805 1895q0 -34 34 -33.5t33 32.5q1 35 -33 35t-34 -34z" />
<glyph unicode="&#xc7;" horiz-adv-x="1638" d="M117 793q0 166 63 318.5t178 262.5q242 242 582 242q170 0 322 -64q155 -71 260 -176l-172 -174q-172 168 -410 168q-119 0 -224.5 -45t-183 -124t-124 -184.5t-46.5 -223.5q0 -119 46.5 -224.5t124 -183.5t183 -124t224.5 -46q238 0 410 168l172 -172 q-115 -115 -265.5 -178.5t-316.5 -63.5t-316 63.5t-266 178.5q-115 115 -178.5 265.5t-62.5 316.5zM545 -377l262 494l217 -115l-262 -494z" />
<glyph unicode="&#xc8;" horiz-adv-x="1304" d="M197 0v1583h948v-246h-703v-389h680v-246h-680v-456h703v-246h-948zM455 2015l225 103l168 -371l-226 -102z" />
<glyph unicode="&#xc9;" horiz-adv-x="1304" d="M197 0v1583h948v-246h-703v-389h680v-246h-680v-456h703v-246h-948zM454 1767l168 371l225 -103l-168 -370z" />
<glyph unicode="&#xca;" horiz-adv-x="1304" d="M197 0v1583h948v-246h-703v-389h680v-246h-680v-456h703v-246h-948zM248 1776l168 370l225 -102l-168 -371zM698 2044l226 102l168 -370l-226 -103z" />
<glyph unicode="&#xcb;" horiz-adv-x="1304" d="M186 1850.5q0 74.5 52.5 127t127.5 52.5t127 -52.5t52 -127.5t-52.5 -127t-127 -52t-127 52.5t-52.5 127zM197 0h948v246h-703v456h680v246h-680v389h703v246h-948v-1583zM762 1850.5q0 74.5 52 127t127 52.5t127 -52.5t52 -127.5t-52 -127t-127 -52t-127 52.5t-52 127z " />
<glyph unicode="&#xcc;" horiz-adv-x="675" d="M142 2015l225 103l168 -371l-226 -102zM225 0v1583h246v-1583h-246z" />
<glyph unicode="&#xcd;" horiz-adv-x="675" d="M141 1747l168 371l225 -103l-168 -370zM225 0v1583h246v-1583h-246z" />
<glyph unicode="&#xce;" horiz-adv-x="675" d="M-92 1776l168 370l225 -102l-168 -371zM225 0v1583h246v-1583h-246zM358 2044l226 102l168 -370l-226 -103z" />
<glyph unicode="&#xcf;" horiz-adv-x="675" d="M-119 1850.5q0 74.5 52.5 127t127 52.5t127 -52.5t52.5 -127.5t-52.5 -127t-127.5 -52t-127 52.5t-52 127zM225 0v1583h246v-1583h-246zM457 1850.5q0 74.5 52 127t127 52.5t127 -52.5t52 -127.5t-52 -127t-127 -52t-127 52.5t-52 127z" />
<glyph unicode="&#xd0;" horiz-adv-x="1773" d="M41 758v246h936v-246h-936zM297 0v1583h551q168 0 317.5 -58.5t261.5 -168.5q111 -111 170.5 -254.5t59.5 -305.5q0 -333 -221 -558q-109 -113 -261.5 -175.5t-326.5 -62.5h-551zM543 246h305q248 0 406 154q157 153 157 399q0 232 -159 385t-404 153h-305v-1091z" />
<glyph unicode="&#xd1;" horiz-adv-x="1863" d="M223 0v1657l1188 -1157v1083h246v-1665l-1188 1157v-1075h-246zM498 1688q31 31 73 82q80 88 215 92h2q129 0 219 -90l25 -25q15 -18 32 -18q36 0 52 16q33 33 61 68l189 -156q-15 -25 -74 -84q-94 -90 -218 -90q-126 0 -216 90l-25 25q-18 18 -35 18q-33 0 -46 -12 q-20 -19 -66 -76z" />
<glyph unicode="&#xd2;" horiz-adv-x="1878" d="M113 793q0 168 63 319t180 268t269 181t319 63q168 0 319.5 -63t268.5 -181q117 -117 180.5 -268.5t63.5 -318.5q0 -168 -63.5 -319.5t-180.5 -268.5t-268.5 -180.5t-319.5 -63.5t-319 63.5t-269 180.5q-117 117 -180.5 268.5t-62.5 319.5zM358 793q0 -240 172 -414 q171 -172 414 -172q242 0 414 172t172 414q0 241 -172 413t-414 172q-243 0 -414 -172q-172 -174 -172 -413zM742 2015l225 103l168 -371l-226 -102z" />
<glyph unicode="&#xd3;" horiz-adv-x="1878" d="M113 793q0 168 63 319t180 268t269 181t319 63q168 0 319.5 -63t268.5 -181q117 -117 180.5 -268.5t63.5 -318.5q0 -168 -63.5 -319.5t-180.5 -268.5t-268.5 -180.5t-319.5 -63.5t-319 63.5t-269 180.5q-117 117 -180.5 268.5t-62.5 319.5zM358 793q0 -240 172 -414 q171 -172 414 -172q242 0 414 172t172 414q0 241 -172 413t-414 172q-243 0 -414 -172q-172 -174 -172 -413zM741 1747l168 371l225 -103l-168 -370z" />
<glyph unicode="&#xd4;" horiz-adv-x="1878" d="M113 793q0 168 63 319t180 268t269 181t319 63q168 0 319.5 -63t268.5 -181q117 -117 180.5 -268.5t63.5 -318.5q0 -168 -63.5 -319.5t-180.5 -268.5t-268.5 -180.5t-319.5 -63.5t-319 63.5t-269 180.5q-117 117 -180.5 268.5t-62.5 319.5zM358 793q0 -240 172 -414 q171 -172 414 -172q242 0 414 172t172 414q0 241 -172 413t-414 172q-243 0 -414 -172q-172 -174 -172 -413zM535 1776l167 370l226 -102l-168 -371zM985 2044l225 102l168 -370l-225 -103z" />
<glyph unicode="&#xd5;" horiz-adv-x="1878" d="M113 793q0 168 63 319t180 268t269 181t319 63q168 0 319.5 -63t268.5 -181q117 -117 180.5 -268.5t63.5 -318.5q0 -168 -63.5 -319.5t-180.5 -268.5t-268.5 -180.5t-319.5 -63.5t-319 63.5t-269 180.5q-117 117 -180.5 268.5t-62.5 319.5zM358 793q0 -240 172 -414 q171 -172 414 -172q242 0 414 172t172 414q0 241 -172 413t-414 172q-243 0 -414 -172q-172 -174 -172 -413zM504 1872q31 31 73 82q80 88 215 92h2q129 0 219 -90l25 -25q15 -18 32 -18q36 0 52 16q33 33 61 68l189 -156q-15 -25 -74 -84q-94 -90 -218 -90q-126 0 -216 90 l-25 25q-18 18 -35 18q-33 0 -46 -12q-20 -19 -66 -76z" />
<glyph unicode="&#xd6;" horiz-adv-x="1878" d="M113 793q0 168 63 319t180 268t269 181t319 63q168 0 319.5 -63t268.5 -181q117 -117 180.5 -268.5t63.5 -318.5q0 -168 -63.5 -319.5t-180.5 -268.5t-268.5 -180.5t-319.5 -63.5t-319 63.5t-269 180.5q-117 117 -180.5 268.5t-62.5 319.5zM358 793q0 -240 172 -414 q171 -172 414 -172q242 0 414 172t172 414q0 241 -172 413t-414 172q-243 0 -414 -172q-172 -174 -172 -413zM487 1850.5q0 74.5 52.5 127t127.5 52.5t127 -52.5t52 -127.5t-52.5 -127t-127 -52t-127 52.5t-52.5 127zM1063 1850.5q0 74.5 52 127t127 52.5t127 -52.5 t52 -127.5t-52 -127t-127 -52t-127 52.5t-52 127z" />
<glyph unicode="&#xd7;" horiz-adv-x="1417" d="M362 594l199 197l-199 198l175 174l198 -198l199 198l174 -174l-199 -198l199 -197l-174 -174l-199 198l-198 -198z" />
<glyph unicode="&#xd8;" horiz-adv-x="1878" d="M113 793q0 168 63 319t180 268t269 181t319 63q168 0 319.5 -63t268.5 -181q117 -117 180.5 -268.5t63.5 -318.5q0 -168 -63.5 -319.5t-180.5 -268.5t-268.5 -180.5t-319.5 -63.5t-319 63.5t-269 180.5q-117 117 -180.5 268.5t-62.5 319.5zM358 793q0 -240 172 -414 q171 -172 414 -172q242 0 414 172t172 414q0 241 -172 413t-414 172q-243 0 -414 -172q-172 -174 -172 -413zM383 72l897 1562l213 -123l-897 -1562z" />
<glyph unicode="&#xd9;" horiz-adv-x="1843" d="M213 707v876h246v-876q0 -187 59 -297q102 -195 404 -195q301 0 403 195q59 105 59 297v876h246v-876q0 -165 -27.5 -258t-58.5 -151t-80 -116.5t-122 -105.5q-168 -107 -420 -107q-253 0 -420 107q-234 149 -279 460q-10 70 -10 171zM725 2015l225 103l168 -371 l-226 -102z" />
<glyph unicode="&#xda;" horiz-adv-x="1843" d="M213 707v876h246v-876q0 -187 59 -297q102 -195 404 -195q301 0 403 195q59 105 59 297v876h246v-876q0 -165 -27.5 -258t-58.5 -151t-80 -116.5t-122 -105.5q-168 -107 -420 -107q-253 0 -420 107q-234 149 -279 460q-10 70 -10 171zM725 1747l168 371l225 -103 l-168 -370z" />
<glyph unicode="&#xdb;" horiz-adv-x="1843" d="M213 707v876h246v-876q0 -187 59 -297q102 -195 404 -195q301 0 403 195q59 105 59 297v876h246v-876q0 -165 -27.5 -258t-58.5 -151t-80 -116.5t-122 -105.5q-168 -107 -420 -107q-253 0 -420 107q-234 149 -279 460q-10 70 -10 171zM498 1776l168 370l225 -102 l-168 -371zM948 2044l226 102l167 -370l-225 -103z" />
<glyph unicode="&#xdc;" horiz-adv-x="1843" d="M213 707v876h246v-876q0 -187 59 -297q102 -195 404 -195q301 0 403 195q59 105 59 297v876h246v-876q0 -165 -27.5 -258t-58.5 -151t-80 -116.5t-122 -105.5q-168 -107 -420 -107q-253 0 -420 107q-234 149 -279 460q-10 70 -10 171zM449 1850.5q0 74.5 52 127t127 52.5 t127 -52.5t52 -127.5t-52.5 -127t-127 -52t-126.5 52.5t-52 127zM1024 1850.5q0 74.5 52 127t127 52.5t127 -52.5t52 -127.5t-52 -127t-127 -52t-127 52.5t-52 127z" />
<glyph unicode="&#xdd;" horiz-adv-x="1761" d="M92 1499l197 148l592 -791l594 791l196 -148l-667 -889v-610h-246v610zM684 1747l168 371l225 -103l-168 -370z" />
<glyph unicode="&#xdf;" horiz-adv-x="1425" d="M178 6v1200q0 242 113 379q115 133 297 137h43q176 0 299 -122q123 -124 123 -283t-92 -279q62 -36 131 -105t113 -176.5t44 -228.5q0 -246 -174 -422q-174 -174 -422 -174h-35v246h35q143 0 247 102q104 103 104 248q0 146 -104 248q-105 103 -247 103h-88v245h66 q70 0 125 52q51 50 51 124t-51 125.5t-125 51.5h-37q-170 0 -170 -271v-1200h-246z" />
<glyph unicode="&#xe0;" horiz-adv-x="1380" d="M82 489q0 221 156 379q156 156 376 156q219 0 379 -156q6 -8 19 -20v135h245v-983h-245v133l-10 -10q-73 -80 -176 -123t-210 -43q-224 0 -378 156q-156 156 -156 376zM328 489q0 -118 84 -202t202 -84q121 0 205 84t84 202q0 121 -84 205t-205 84q-118 0 -202 -84 t-84 -205zM494 1552l225 103l168 -371l-226 -102z" />
<glyph unicode="&#xe1;" horiz-adv-x="1380" d="M82 489q0 221 156 379q156 156 376 156q219 0 379 -156q6 -8 19 -20v135h245v-983h-245v133l-10 -10q-73 -80 -176 -123t-210 -43q-224 0 -378 156q-156 156 -156 376zM328 489q0 -118 84 -202t202 -84q121 0 205 84t84 202q0 121 -84 205t-205 84q-118 0 -202 -84 t-84 -205zM493 1284l168 371l225 -103l-168 -370z" />
<glyph unicode="&#xe2;" horiz-adv-x="1380" d="M82 489q0 221 156 379q156 156 376 156q219 0 379 -156q6 -8 19 -20v135h245v-983h-245v133l-10 -10q-73 -80 -176 -123t-210 -43q-224 0 -378 156q-156 156 -156 376zM211 1305l168 370l225 -102l-168 -371zM328 489q0 -118 84 -202t202 -84q121 0 205 84t84 202 q0 121 -84 205t-205 84q-118 0 -202 -84t-84 -205zM662 1573l225 102l168 -370l-226 -103z" />
<glyph unicode="&#xe3;" horiz-adv-x="1380" d="M82 489q0 221 156 379q156 156 376 156q219 0 379 -156q6 -8 19 -20v135h245v-983h-245v133l-10 -10q-73 -80 -176 -123t-210 -43q-224 0 -378 156q-156 156 -156 376zM256 1389q31 31 73 82q80 88 215 92h2q129 0 219 -90l25 -25q15 -18 32 -18q36 0 52 16q33 33 61 68 l189 -156q-15 -25 -74 -84q-94 -90 -218 -90q-126 0 -216 90l-25 25q-18 18 -35 18q-33 0 -46 -12q-20 -19 -66 -76zM328 489q0 -118 84 -202t202 -84q121 0 205 84t84 202q0 121 -84 205t-205 84q-118 0 -202 -84t-84 -205z" />
<glyph unicode="&#xe4;" horiz-adv-x="1380" d="M82 489q0 -222 156 -376q156 -156 376 -156q219 0 379 156q4 4 9.5 10t9.5 10v-133h245v983h-245v-135q-12 12 -19 20q-160 156 -379 156q-222 0 -376 -156q-156 -160 -156 -379zM201 1379.5q0 74.5 52 127t127 52.5t127 -52.5t52 -127.5t-52 -127t-127 -52t-127 52.5 t-52 127zM328 489q0 121 84 205t202 84q121 0 205 -84t84 -205q0 -118 -84 -202t-205 -84q-118 0 -202 84t-84 202zM776 1379.5q0 74.5 52.5 127t127 52.5t127 -52.5t52.5 -127.5t-52.5 -127t-127.5 -52t-127 52.5t-52 127z" />
<glyph unicode="&#xe5;" horiz-adv-x="1380" d="M82 489q0 -222 156 -376q156 -156 376 -156q219 0 379 156q4 4 9.5 10t9.5 10v-133h245v983h-245v-135q-12 12 -19 20q-160 156 -379 156q-222 0 -376 -156q-156 -160 -156 -379zM328 489q0 121 84 205t202 84q121 0 205 -84t84 -205q0 -118 -84 -202t-205 -84 q-118 0 -202 84t-84 202zM498 1414q0 56 40 96t96 40t96 -40t40 -96t-40 -96t-96 -40t-96 40t-40 96zM600 1414q0 -34 34 -34t34 34t-34 34t-34 -34z" />
<glyph unicode="&#xe7;" horiz-adv-x="1122" d="M111 492q0 219 153 374q154 154 375 154t375 -154l-174 -174q-82 82 -201 82q-117 0 -200 -83t-83 -199q0 -117 83 -200t201 -83t200 82l174 -174q-154 -154 -375 -154t-375 154q-153 157 -153 375zM266 -289l262 494l217 -115l-262 -493z" />
<glyph unicode="&#xe8;" d="M109 489q0 226 157 381q154 158 379 158q222 0 381 -158q158 -156 158 -381v-112h-830q35 -88 114 -143.5t171 -55.5t163.5 42t115.5 114l194 -113q-72 -121 -196 -194.5t-252 -73.5q-244 0 -398 158q-157 153 -157 378zM354 602h584q-35 88 -114 144.5t-178 56.5 t-178 -56.5t-114 -144.5zM449 1552l225 103l168 -371l-226 -102z" />
<glyph unicode="&#xe9;" d="M109 489q0 226 157 381q154 158 379 158q222 0 381 -158q158 -156 158 -381v-112h-830q35 -88 114 -143.5t171 -55.5t163.5 42t115.5 114l194 -113q-72 -121 -196 -194.5t-252 -73.5q-244 0 -398 158q-157 153 -157 378zM354 602h584q-35 88 -114 144.5t-178 56.5 t-178 -56.5t-114 -144.5zM448 1284l168 371l225 -103l-168 -370z" />
<glyph unicode="&#xea;" d="M109 489q0 226 157 381q154 158 379 158q222 0 381 -158q158 -156 158 -381v-112h-830q35 -88 114 -143.5t171 -55.5t163.5 42t115.5 114l194 -113q-72 -121 -196 -194.5t-252 -73.5q-244 0 -398 158q-157 153 -157 378zM211 1305l168 370l225 -102l-168 -371zM354 602 h584q-35 88 -114 144.5t-178 56.5t-178 -56.5t-114 -144.5zM662 1573l225 102l168 -370l-226 -103z" />
<glyph unicode="&#xeb;" d="M109 489q0 226 157 381q154 158 379 158q222 0 381 -158q158 -156 158 -381v-112h-830q35 -88 114 -143.5t171 -55.5t163.5 42t115.5 114l194 -113q-72 -121 -196 -194.5t-252 -73.5q-244 0 -398 158q-157 153 -157 378zM186 1379.5q0 74.5 52.5 127t127.5 52.5 t127 -52.5t52 -127.5t-52.5 -127t-127 -52t-127 52.5t-52.5 127zM354 602h584q-35 88 -114 144.5t-178 56.5t-178 -56.5t-114 -144.5zM762 1379.5q0 74.5 52 127t127 52.5t127 -52.5t52 -127.5t-52 -127t-127 -52t-127 52.5t-52 127z" />
<glyph unicode="&#xec;" horiz-adv-x="575" d="M90 1552l225 103l168 -371l-225 -102zM164 0v983h246v-983h-246z" />
<glyph unicode="&#xed;" horiz-adv-x="575" d="M92 1284l168 371l225 -103l-168 -370zM164 0v983h246v-983h-246z" />
<glyph unicode="&#xee;" horiz-adv-x="675" d="M-72 1305l168 370l226 -102l-168 -371zM225 0v983h246v-983h-246zM379 1573l225 102l168 -370l-225 -103z" />
<glyph unicode="&#xef;" horiz-adv-x="733" d="M-106 1379.5q0 74.5 52 127t127 52.5t127 -52.5t52 -127.5t-52.5 -127t-127 -52t-126.5 52.5t-52 127zM225 0v983h246v-983h-246zM469 1379.5q0 74.5 52 127t127 52.5t127 -52.5t52 -127.5t-52 -127t-127 -52t-127 52.5t-52 127z" />
<glyph unicode="&#xf1;" horiz-adv-x="1359" d="M164 0v1004h225v-76q139 98 307 98h2q217 0 377 -156q156 -160 156 -376v-494h-246v494q0 118 -84 202t-203 84h-2q-120 0 -202 -84q-84 -85 -84 -202v-494h-246zM246 1409q31 31 73 82q80 88 215 92h2q129 0 219 -90l25 -25q15 -18 32 -18q36 0 52 16q33 33 61 68 l189 -156q-15 -25 -74 -84q-94 -90 -218 -90q-126 0 -216 90l-25 25q-18 18 -35 18q-33 0 -46 -12q-20 -19 -66 -76z" />
<glyph unicode="&#xf2;" d="M109 492q0 227 157 378q154 158 379 158t379 -158q158 -154 158 -378q0 -227 -158 -379q-154 -158 -379 -158t-379 158q-157 153 -157 379zM354 492q0 -121 85 -206t206 -85t206 85t85 206q0 120 -85 205t-206 85t-206 -85t-85 -205zM449 1552l225 103l168 -371 l-226 -102z" />
<glyph unicode="&#xf3;" d="M109 492q0 227 157 378q154 158 379 158t379 -158q158 -154 158 -378q0 -227 -158 -379q-154 -158 -379 -158t-379 158q-157 153 -157 379zM354 492q0 -121 85 -206t206 -85t206 85t85 206q0 120 -85 205t-206 85t-206 -85t-85 -205zM448 1284l168 371l225 -103 l-168 -370z" />
<glyph unicode="&#xf4;" d="M109 492q0 227 157 378q154 158 379 158t379 -158q158 -154 158 -378q0 -227 -158 -379q-154 -158 -379 -158t-379 158q-157 153 -157 379zM211 1305l168 370l225 -102l-168 -371zM354 492q0 -121 85 -206t206 -85t206 85t85 206q0 120 -85 205t-206 85t-206 -85 t-85 -205zM662 1573l225 102l168 -370l-226 -103z" />
<glyph unicode="&#xf5;" d="M109 492q0 227 157 378q154 158 379 158t379 -158q158 -154 158 -378q0 -227 -158 -379q-154 -158 -379 -158t-379 158q-157 153 -157 379zM211 1401q31 31 73 82q80 88 215 92h2q129 0 219 -90l25 -25q15 -18 32 -18q36 0 52 16q33 33 61 68l189 -156q-15 -25 -74 -84 q-94 -90 -218 -90q-126 0 -216 90l-25 25q-18 18 -35 18q-33 0 -46 -12q-20 -19 -66 -76zM354 492q0 -121 85 -206t206 -85t206 85t85 206q0 120 -85 205t-206 85t-206 -85t-85 -205z" />
<glyph unicode="&#xf6;" d="M109 492q0 227 157 378q154 158 379 158t379 -158q158 -154 158 -378q0 -227 -158 -379q-154 -158 -379 -158t-379 158q-157 153 -157 379zM172 1379.5q0 74.5 52 127t127 52.5t127 -52.5t52 -127.5t-52 -127t-127 -52t-127 52.5t-52 127zM354 492q0 -121 85 -206 t206 -85t206 85t85 206q0 120 -85 205t-206 85t-206 -85t-85 -205zM748 1379.5q0 74.5 52 127t127 52.5t127 -52.5t52 -127.5t-52.5 -127t-127 -52t-126.5 52.5t-52 127z" />
<glyph unicode="&#xf7;" horiz-adv-x="1329" d="M160 737v246h1016v-246h-1016zM489 490.5q0 74.5 52.5 127t127.5 52.5t127 -52.5t52 -127.5t-52.5 -127t-127 -52t-127 52.5t-52.5 127zM489 1228q0 75 52.5 127t127.5 52t127 -52t52 -127t-52.5 -127t-127 -52t-127 52t-52.5 127z" />
<glyph unicode="&#xf8;" d="M94 96l901 963l181 -168l-902 -963zM109 492q0 227 157 378q154 158 379 158t379 -158q158 -154 158 -378q0 -227 -158 -379q-154 -158 -379 -158t-379 158q-157 153 -157 379zM354 492q0 -121 85 -206t206 -85t206 85t85 206q0 120 -85 205t-206 85t-206 -85t-85 -205z " />
<glyph unicode="&#xf9;" horiz-adv-x="1380" d="M164 465v518h246v-518q0 -162 73 -225q66 -53 205 -54h2q167 0 234 95q47 68 47 184v518h246v-518q0 -266 -162 -404q-138 -120 -365 -120h-2q-231 0 -362 112q-162 137 -162 412zM494 1552l225 103l168 -371l-226 -102z" />
<glyph unicode="&#xfa;" horiz-adv-x="1380" d="M164 465v518h246v-518q0 -162 73 -225q66 -53 205 -54h2q167 0 234 95q47 68 47 184v518h246v-518q0 -266 -162 -404q-138 -120 -365 -120h-2q-231 0 -362 112q-162 137 -162 412zM493 1284l168 371l225 -103l-168 -370z" />
<glyph unicode="&#xfb;" horiz-adv-x="1380" d="M164 465v518h246v-518q0 -162 73 -225q66 -53 205 -54h2q167 0 234 95q47 68 47 184v518h246v-518q0 -266 -162 -404q-138 -120 -365 -120h-2q-231 0 -362 112q-162 137 -162 412zM272 1305l168 370l226 -102l-168 -371zM723 1573l225 102l168 -370l-225 -103z" />
<glyph unicode="&#xfc;" horiz-adv-x="1380" d="M164 465v518h246v-518q0 -162 73 -225q66 -53 205 -54h2q167 0 234 95q47 68 47 184v518h246v-518q0 -266 -162 -404q-138 -120 -365 -120h-2q-231 0 -362 112q-162 137 -162 412zM231 1379.5q0 74.5 52.5 127t127.5 52.5t127 -52.5t52 -127.5t-52.5 -127t-127 -52 t-127 52.5t-52.5 127zM807 1379.5q0 74.5 52 127t127 52.5t127 -52.5t52 -127.5t-52 -127t-127 -52t-127 52.5t-52 127z" />
<glyph unicode="&#xfd;" horiz-adv-x="1359" d="M78 901l219 113l385 -746l412 748l215 -117l-770 -1401l-215 119l215 391zM483 1284l168 371l225 -103l-168 -370z" />
<glyph unicode="&#xff;" horiz-adv-x="1359" d="M78 901l461 -893l-215 -391l215 -119l770 1401l-215 117l-412 -748l-385 746zM213 1379.5q0 74.5 52 127t127 52.5t127 -52.5t52 -127.5t-52 -127t-127 -52t-127 52.5t-52 127zM788 1379.5q0 74.5 52.5 127t127.5 52.5t127 -52.5t52 -127.5t-52.5 -127t-127 -52 t-127 52.5t-52.5 127z" />
<glyph unicode="&#x178;" horiz-adv-x="1761" d="M92 1499l666 -889v-610h246v610l667 889l-196 148l-594 -791l-592 791zM432 1873q0 75 52.5 127t127 52t127 -52t52.5 -127t-52.5 -127t-127.5 -52t-127 52t-52 127zM1008 1873q0 75 52 127t127 52t127 -52t52 -127t-52 -127t-127 -52t-127 52t-52 127z" />
<glyph unicode="&#x2dc;" horiz-adv-x="1003" d="M66 1102q31 31 73 82q80 88 215 92h2q129 0 219 -90l25 -25q15 -18 32 -18q36 0 52 16q33 33 61 68l189 -156q-15 -25 -74 -84q-94 -90 -218 -90q-126 0 -216 90l-25 25q-18 18 -35 18q-33 0 -46 -12q-20 -19 -66 -76z" />
<glyph unicode="&#x2000;" horiz-adv-x="1096" />
<glyph unicode="&#x2001;" horiz-adv-x="2192" />
<glyph unicode="&#x2002;" horiz-adv-x="1096" />
<glyph unicode="&#x2003;" horiz-adv-x="2192" />
<glyph unicode="&#x2004;" horiz-adv-x="730" />
<glyph unicode="&#x2005;" horiz-adv-x="548" />
<glyph unicode="&#x2006;" horiz-adv-x="365" />
<glyph unicode="&#x2007;" horiz-adv-x="365" />
<glyph unicode="&#x2008;" horiz-adv-x="274" />
<glyph unicode="&#x2009;" horiz-adv-x="438" />
<glyph unicode="&#x200a;" horiz-adv-x="121" />
<glyph unicode="&#x2010;" horiz-adv-x="1439" d="M147 512v246h1162v-246h-1162z" />
<glyph unicode="&#x2011;" horiz-adv-x="1439" d="M147 512v246h1162v-246h-1162z" />
<glyph unicode="&#x2012;" horiz-adv-x="1439" d="M147 512v246h1162v-246h-1162z" />
<glyph unicode="&#x2013;" horiz-adv-x="1531" d="M184 532v246h1162v-246h-1162z" />
<glyph unicode="&#x2014;" horiz-adv-x="1742" d="M184 532v246h1370v-246h-1370z" />
<glyph unicode="&#x2018;" horiz-adv-x="616" d="M57 1057l262 493l218 -114l-263 -494z" />
<glyph unicode="&#x2019;" horiz-adv-x="598" d="M57 1139l262 493l218 -114l-263 -494z" />
<glyph unicode="&#x201a;" horiz-adv-x="716" d="M102 -248l263 494l217 -115l-263 -493z" />
<glyph unicode="&#x201c;" horiz-adv-x="1001" d="M57 1057l262 493l218 -114l-263 -494zM446 1057l263 493l217 -114l-262 -494z" />
<glyph unicode="&#x201d;" horiz-adv-x="1005" d="M57 1139l262 493l218 -114l-263 -494zM446 1139l263 493l217 -114l-262 -494z" />
<glyph unicode="&#x201e;" horiz-adv-x="1030" d="M41 -248l262 494l217 -115l-262 -493zM471 -248l262 494l217 -115l-262 -493z" />
<glyph unicode="&#x2022;" horiz-adv-x="727" d="M205 806q0 75 52 127t127 52t127 -52t52 -127t-52 -127t-127 -52t-127 52t-52 127z" />
<glyph unicode="&#x2026;" horiz-adv-x="1812" d="M164 151q0 75 52 127t127 52t127 -52t52 -127t-52 -127.5t-127 -52.5t-127 52.5t-52 127.5zM735 151q0 75 52.5 127t127 52t127 -52t52.5 -127t-52.5 -127.5t-127.5 -52.5t-127 52.5t-52 127.5zM1311 151q0 75 52 127t127 52t127 -52t52 -127t-52 -127.5t-127 -52.5 t-127 52.5t-52 127.5z" />
<glyph unicode="&#x202f;" horiz-adv-x="438" />
<glyph unicode="&#x205f;" horiz-adv-x="548" />
<glyph unicode="&#x20ac;" horiz-adv-x="1775" d="M70 514v246h215q-2 8 -2 16v17q0 20 2 30h-215v246h262q6 15 16 45q61 145 176 260t265.5 178.5t316.5 63.5t316 -63.5t266 -178.5l-175 -172q-168 168 -407 168q-166 0 -299 -83t-207 -218h754v-246h-824q-2 -10 -2 -30l2 -33h824v-246h-752q74 -135 207 -217t297 -82 q239 0 407 170l175 -174q-115 -115 -266 -178.5t-316 -63.5q-166 0 -316.5 63.5t-265.5 178.5q-136 137 -192 303h-262z" />
<glyph unicode="&#x2122;" horiz-adv-x="1347" d="M72 1479v102h456v-102h-178v-500h-102v500h-176zM481 997l150 611l246 -459l245 461l152 -615l-98 -24l-89 354l-210 -393l-209 393l-88 -352z" />
<glyph unicode="&#xe000;" horiz-adv-x="1024" d="M0 0v1024h1024v-1024h-1024z" />
</font>
</defs>
</svg>
