<?xml version="1.0" standalone="no"?>
<!DOCTYPE svg PUBLIC "-//W3C//DTD SVG 1.1//EN" "http://www.w3.org/Graphics/SVG/1.1/DTD/svg11.dtd" >
<svg xmlns="http://www.w3.org/2000/svg">
<metadata></metadata>
<defs>
<font id="TYPOGRAPHPROExtraBold" horiz-adv-x="1878" >
<font-face units-per-em="2048" ascent="1536" descent="-512" />
<missing-glyph horiz-adv-x="819" />
<glyph horiz-adv-x="0" />
<glyph horiz-adv-x="2048" />
<glyph unicode="&#xd;" horiz-adv-x="819" />
<glyph unicode=" "  horiz-adv-x="819" />
<glyph unicode="&#x09;" horiz-adv-x="819" />
<glyph unicode="&#xa0;" horiz-adv-x="819" />
<glyph unicode="!" horiz-adv-x="718" d="M92 221q0 104 75 181q74 75 179 75t180.5 -75.5t75.5 -180.5t-76 -179q-76 -75 -180 -75t-179 75t-75 179zM172 598v985h348v-985h-348z" />
<glyph unicode="&#x22;" horiz-adv-x="1169" d="M160 1079v504h348v-504h-348zM612 1079v504h349v-504h-349z" />
<glyph unicode="#" horiz-adv-x="1705" d="M313 383v348h203v121h-203v348h203v205h348v-205h123v205h348v-205h203v-348h-203v-121h203v-348h-203v-205h-348v205h-123v-205h-348v205h-203zM864 731h123v121h-123v-121z" />
<glyph unicode="$" horiz-adv-x="1476" d="M88 291l303 172q49 -81 204 -120q52 -13 112 -13h4l6 -2q41 -4 104.5 8t112.5 36.5t71.5 45t34.5 38.5q17 29 18 55q2 42 -25.5 68.5t-107 52.5t-154.5 26q-389 -3 -558 176q-119 125 -109 307v2q12 180 127 290.5t275 151.5q14 4 27.5 6t27.5 6v119h348v-129l25 -6 q250 -68 350 -231l-295 -185q-26 46 -116 70q-170 45 -281 12q-118 -29 -135 -101q-12 -51 13.5 -77.5t98 -44.5t162.5 -18q186 0 331.5 -51.5t233.5 -147.5q125 -137 107 -328q-12 -133 -89 -239q-103 -141 -304 -212q-49 -18 -101 -28v-129h-348v123q-217 39 -367 170 q-67 57 -106 127z" />
<glyph unicode="%" horiz-adv-x="2545" d="M94 1124q0 207 148 355q147 147 352 147q207 0 354 -147q148 -148 148 -355q0 -204 -148 -352q-147 -147 -353 -147q-208 0 -353 147q-148 148 -148 352zM420 0h440l1239 1583h-442zM442 1124q0 -63 44 -107t108 -44q63 0 108.5 44t45.5 107t-45.5 108.5t-108.5 45.5 t-107.5 -45t-44.5 -109zM1417 465q0 204 148 352t354 148t352 -148q148 -148 148 -352q0 -208 -148 -354q-148 -148 -353 -148q-207 0 -353 148q-148 148 -148 354zM1765 464q0 -62 45 -107.5t109 -45.5q63 0 107.5 45t44.5 107.5t-44.5 107.5t-107.5 45t-108.5 -45 t-45.5 -107z" />
<glyph unicode="&#x26;" horiz-adv-x="1533" d="M127 535.5q0 120.5 34 198.5q56 130 134 208l19 18q8 9 18 17q-57 102 -57.5 202.5t33.5 178.5t92 136q128 126 302 126q175 0 302 -126q126 -124 126 -302q0 -183 -118 -301q-123 -127 -301 -127h-9q-92 0 -159.5 -67.5t-67.5 -159.5q0 -93 67 -162q67 -68 160 -68 q96 0 162 68q66 67 66 162h348q0 -138 -53 -244l153 -168l-258 -236l-133 146q-131 -76 -266.5 -76t-240.5 45t-164 106q-98 98 -143.5 201.5t-45.5 224zM623 1197q0 -28 12 -46l24 -41q10 2 21 2h31q35 0 53 24.5t18 56.5t-22.5 55.5t-56.5 23.5t-57 -23.5t-23 -51.5z" />
<glyph unicode="'" horiz-adv-x="933" d="M369 1079v504h348v-504h-348z" />
<glyph unicode="(" horiz-adv-x="1249" d="M117 715q0 303 172 563q53 80 125 149q137 137 321 216t389 79v-348q-135 0 -255.5 -52t-210 -141t-141.5 -209t-52 -257t52 -257t141.5 -209t210 -141.5t255.5 -52.5v-348q-205 0 -391 80q-177 71 -319 215q-137 133 -217 319.5t-80 393.5z" />
<glyph unicode=")" horiz-adv-x="1249" d="M127 55q137 0 257 52.5t209 141.5t141 209t52 257t-52 257t-141 209t-209 141t-257 52v348q207 0 391 -79t322 -216q137 -137 216 -321t79 -391q0 -305 -173 -563q-168 -252 -444 -365q-184 -80 -391 -80v348z" />
<glyph unicode="*" horiz-adv-x="1282" d="M184 1081l125 76l-125 76l185 297l96 -60v113h348v-113l96 60l185 -297l-125 -76l125 -76l-185 -297l-96 60v-113h-348v113l-96 -60z" />
<glyph unicode="+" horiz-adv-x="1363" d="M150 700v349h358v354h348v-354h354v-349h-354v-356h-348v356h-358z" />
<glyph unicode="," horiz-adv-x="647" d="M23 -242l282 514l305 -168l-282 -514z" />
<glyph unicode="-" horiz-adv-x="1380" d="M188 641v348h1016v-348h-1016z" />
<glyph unicode="." horiz-adv-x="688" d="M92 221q0 104 75 181q74 75 179 75t180.5 -75.5t75.5 -180.5t-76 -179q-76 -75 -180 -75t-179 75t-75 179z" />
<glyph unicode="/" horiz-adv-x="1382" d="M45 0l911 1583h402l-912 -1583h-401z" />
<glyph unicode="0" horiz-adv-x="1595" d="M106 793q0 333 189 577q92 121 223 192t281 70q150 0 278.5 -70.5t222.5 -190.5q191 -242 191 -578q0 -335 -189 -579q-93 -120 -228 -190.5t-276 -70.5q-140 0 -275.5 71t-227.5 190q-189 246 -189 579zM455 793q0 -214 114 -363q104 -129 230 -129q128 0 227 129 q117 153 117 363q0 209 -117 362q-96 129 -226 129t-231 -129q-114 -149 -114 -362z" />
<glyph unicode="1" horiz-adv-x="804" d="M131 1235v348h490v-1583h-349v1235h-141z" />
<glyph unicode="2" horiz-adv-x="1460" d="M47 0l277 293q248 264 384 408.5t150 159.5t15 17.5t8.5 9.5t22 24.5t27.5 39.5q32 52 32 100t-17.5 87t-46.5 67q-65 64 -146.5 64t-139.5 -44q-79 -60 -83 -171h-348q0 169 96 313q104 156 283 219q88 31 194.5 31t209 -43t180.5 -121q166 -166 166 -399v-2 q0 -137 -72 -265q-31 -55 -102 -139l-7 -6l-4 -6l-4 -2q-4 -6 -28.5 -31.5t-61.5 -64.5q-56 -59 -178 -191h403v-348h-1210z" />
<glyph unicode="3" horiz-adv-x="1478" d="M109 371l329 110q29 -86 108 -132t193 -46q109 0 186 77q76 76 76 185q0 111 -76 185q-78 77 -186 77q-38 0 -96 -16l-362 -88l286 512h-360v348h1024l-303 -438l49 -19q226 -96 323 -323q49 -115 50 -239q0 -241 -179 -431q-182 -178 -420.5 -178t-410.5 113 q-170 113 -231 303z" />
<glyph unicode="4" horiz-adv-x="1585" d="M98 199v338l871 1048h370v-1038h213v-348h-213v-199h-348v199h-893zM559 547h432v520z" />
<glyph unicode="5" horiz-adv-x="1411" d="M111 332l321 137q31 -74 97.5 -118t134 -44t115.5 20.5t84 57.5q77 79 77 188q0 111 -77 188t-187 77q-71 0 -150 -48q-18 -10 -24 -12l-277 -145v950h893v-348h-545v-57q47 8 103 8q123 0 239 -47q234 -106 326 -328q47 -107 47 -238q0 -256 -177 -433 q-85 -85 -197.5 -133t-221 -48t-194.5 26.5t-160 76.5q-156 104 -227 270z" />
<glyph unicode="6" horiz-adv-x="1411" d="M121 543q0 133 55 250h-2l2 2l408 788h393l-236 -455q113 -9 179 -39q119 -52 200 -133q172 -172 172 -413q0 -242 -172 -414q-80 -80 -186 -127q-113 -45 -200 -45q-144 0 -257 45q-100 45 -163 106q-193 187 -193 435zM469 544q0 -50 18.5 -93t50.5 -76q69 -70 169 -70 q99 0 167 70q70 71 70 168q0 98 -69.5 167.5t-151.5 69.5q-155 0 -221 -112l-15 -27q-18 -47 -18 -97z" />
<glyph unicode="7" horiz-adv-x="1501" d="M94 1235v348h1358l-913 -1583h-402l713 1235h-756z" />
<glyph unicode="8" horiz-adv-x="1388" d="M117 535q0 115 45 222q55 130 144 205q9 7 20 17q-59 96 -59.5 199.5t33.5 182.5t92 137q128 126 302 126q177 0 304 -126q126 -124 126 -320q0 -103 -59 -199q10 -10 19.5 -17.5t19.5 -17.5q168 -168 168 -409q0 -240 -168 -408q-78 -78 -184 -125q-113 -45 -227 -45 t-221 46q-219 94 -308 306q-47 111 -47 226zM465 535q0 -95 67.5 -162.5t161.5 -67.5q93 0 162 67q68 67 68 163q0 95 -68 161q-69 68 -162 68q-94 0 -161.5 -67.5t-67.5 -161.5zM582 1194q0 -47 32.5 -80t79.5 -33t81 33t34 80t-34 81t-81 34t-79.5 -34t-32.5 -81z" />
<glyph unicode="9" horiz-adv-x="1361" d="M94 1016q0 343 257 516q148 100 329 100q240 0 414 -172q82 -82 127 -189.5t45 -232t-56 -241.5l-2 -2q-6 -18 -18 -37l-391 -758h-393l239 461q-102 6 -200 49t-181 121q-78 82 -125 186q-45 109 -45 199zM442 1047q0 -100 70 -169q71 -69 176 -69q58 0 111 30.5 t84 82.5l14 26q40 103 2.5 191t-127.5 127q-43 18 -92 18q-97 0 -168 -70q-70 -68 -70 -167z" />
<glyph unicode=":" horiz-adv-x="868" d="M197 461q0 96 71 170q67 71 168 71q99 0 170 -71q72 -72 72 -170q0 -99 -72 -169q-73 -71 -170 -71q-99 0 -168 71q-71 72 -71 169zM197 1098q0 97 71 170q69 71 168 71q97 0 170 -71q72 -71 72 -170t-72 -169q-73 -71 -170 -71q-99 0 -168 71q-71 72 -71 169z" />
<glyph unicode=";" horiz-adv-x="835" d="M160 207l190 473l322 -131l-189 -473zM186 1104q0 97 71 170q70 72 169 72q98 0 170 -72t72 -170q0 -99 -72 -169q-73 -71 -170 -71q-98 0 -169 71t-71 169z" />
<glyph unicode="&#x3c;" horiz-adv-x="1048" d="M63 766l545 545l246 -246l-299 -299l299 -299l-246 -246z" />
<glyph unicode="=" horiz-adv-x="1357" d="M166 305v348h1016v-348h-1016zM166 764v348h1016v-348h-1016z" />
<glyph unicode="&#x3e;" horiz-adv-x="1103" d="M250 467l299 299l-299 299l246 246l544 -545l-544 -545z" />
<glyph unicode="?" horiz-adv-x="1282" d="M53 1335q71 130 221 217q143 78 287 78q264 0 436 -145q86 -74 136.5 -175t50.5 -211t-51 -218q-51 -98 -133 -167q-166 -141 -392 -149v-98h-348v539l227 -76q160 -48 274 38q75 56 75 130q0 73 -75 130q-73 54 -161 54q-177 0 -244 -117zM213 174q0 96 71 170 q68 72 169 72q99 0 169 -72q72 -73 72 -170q0 -99 -72 -169q-72 -71 -169 -71q-100 0 -169 71q-71 72 -71 169z" />
<glyph unicode="@" horiz-adv-x="1705" d="M41 791q0 162 63 313t177 262q111 113 262.5 176t312.5 64q162 0 313.5 -63.5t262.5 -176.5q108 -104 174 -258t65 -317q0 -98 -28.5 -185.5t-68.5 -129.5q-71 -75 -136 -97q-83 -28 -146 -12q-115 23 -172 131q-62 -67 -147.5 -102.5t-173.5 -35.5t-166 34t-137 92 q-125 126 -125 305.5t125 304.5t299 125t297 -109v39h204v-543q0 -4 2 -6q21 -52 73 -30q22 10 38 30q23 23 40 73t17 145.5t-48 207t-131 194.5t-194.5 131t-237.5 48t-236.5 -48t-193.5 -131t-131 -195t-48 -237.5t48 -236.5t131 -194q179 -179 431 -179q102 0 203 35 l67 -192q-131 -47 -282 -47q-229 -1 -442 139q-66 43 -121 100q-113 111 -177 258q-63 156 -63 318zM575 791q0 -94 66 -160t160 -66t165 68q72 68 72 158t-72 157q-71 68 -166 68t-160 -64.5t-65 -160.5z" />
<glyph unicode="A" horiz-adv-x="1789" d="M23 0l686 1583h362l688 -1583h-381l-145 338h-684l-148 -338h-378zM698 686h383l-192 438z" />
<glyph unicode="B" horiz-adv-x="1591" d="M184 0v1581h660q156 0 269.5 -55t181 -158t67.5 -246t-62 -243q181 -136 181 -373q0 -228 -166 -373q-149 -133 -377 -133h-754zM532 348h406q111 0 169 71q26 32 26 81q0 75 -46 102q-68 51 -204 51h-351v-305zM532 1001h347q42 0 86 23q23 12 36 30.5t13 47t-3 49 t-19 39.5q-36 43 -148 43h-312v-232z" />
<glyph unicode="C" horiz-adv-x="1595" d="M106 793q0 337 242 587q250 242 588 242q166 0 318.5 -63.5t267.5 -178.5l-246 -247q-137 141 -340 141q-197 0 -340 -142q-141 -139 -141 -339q0 -201 141 -341q143 -141 342.5 -141t337.5 142l246 -246q-115 -117 -267.5 -180.5t-319.5 -63.5q-330 0 -587 244 q-115 115 -178.5 266.5t-63.5 319.5z" />
<glyph unicode="D" horiz-adv-x="1685" d="M184 0v1583h590q345 0 578 -227q229 -229 229 -559q0 -334 -221 -559q-102 -110 -258 -174t-328 -64h-590zM532 348h242q202 0 330 125q129 125 129 324q0 192 -129 314q-132 124 -330 124h-242v-887z" />
<glyph unicode="E" horiz-adv-x="1357" d="M180 0v1583h1012v-348h-664v-236h641v-348h-641v-303h664v-348h-1012z" />
<glyph unicode="F" horiz-adv-x="1325" d="M186 0v1583h1045v-348h-696v-303h669v-348h-669v-584h-349z" />
<glyph unicode="G" horiz-adv-x="1873" d="M106 793q0 168 66 323q59 145 178 264q110 113 262 179q150 65 321 65h5q222 0 403 -104q183 -100 295 -275l-290 -190q-68 104 -175.5 162.5t-220 58.5t-200.5 -38t-154 -104q-141 -139 -141 -341q0 -203 141 -343q143 -141 342 -141q123 0 225.5 53.5t167.5 145.5h-442 v348h887q-2 -55 -3 -93q-1 -53 -14 -110q-52 -298 -280.5 -495t-552.5 -197q-239 0 -452 141q-129 85 -226 226q-142 206 -142 465z" />
<glyph unicode="H" horiz-adv-x="1802" d="M178 0v1583h348v-539h748v539h348v-1583h-348v696h-748v-696h-348z" />
<glyph unicode="I" horiz-adv-x="698" d="M176 0v1583h348v-1583h-348z" />
<glyph unicode="J" horiz-adv-x="1374" d="M18 205l265 227l41 -44q78 -79 211 -79q223 0 284 121q43 83 43 199v954h348v-960q0 -217 -90 -367q-114 -201 -360 -268q-96 -27 -225 -27q-199 0 -347 92q-99 61 -163 148z" />
<glyph unicode="K" horiz-adv-x="1914" d="M184 0v1583h348v-606l719 606h541l-801 -676l897 -907h-489l-674 682l-193 -160v-522h-348z" />
<glyph unicode="L" horiz-adv-x="1290" d="M184 0v1583h348v-1235h674v-348h-1022z" />
<glyph unicode="M" horiz-adv-x="2318" d="M31 0l397 1583h360l369 -1032l367 1032h362l404 -1583h-361l-250 983l-348 -983h-348l-348 977l-244 -977h-360z" />
<glyph unicode="N" horiz-adv-x="1904" d="M184 0v1583h385l803 -1046v1046h348v-1583h-374l-814 1059v-1059h-348z" />
<glyph unicode="O" d="M104 791q0 168 66 327q136 306 444 445q155 66 321 66q1 -1 3 -1q168 0 328 -65q160 -71 264 -181q109 -106 180 -264q66 -160 66 -328q0 -247 -143 -464q-133 -200 -367 -303q-160 -66 -328 -66t-322 66t-268 178q-113 115 -178.5 268.5t-65.5 321.5zM453 793 q0 -203 143 -345q145 -143 344 -143q201 0 344 143t143 345q0 201 -143 343q-143 144 -344 144q-199 0 -344 -144q-143 -141 -143 -343z" />
<glyph unicode="P" horiz-adv-x="1462" d="M182 0v1583h584q269 0 440 -131q205 -156 205 -430q0 -129 -45 -241t-129 -189q-176 -176 -461 -176h-246v-416h-348zM530 764h238h15q134 0 205 70q75 74 75 188q0 156 -166 198q-59 15 -131 15h-236v-471z" />
<glyph unicode="Q" horiz-adv-x="1904" d="M104 792q0 171 68 328q58 141 178 266q111 111 266 181q159 66 326 66q2 0 3 -1q169 0 324 -66q226 -95 371 -304q46 -66 76 -142q68 -158 68 -327q0 -261 -154 -482l203 -207l-250 -241l-207 211q-201 -119 -428 -119h-4q-168 0 -328 65q-153 68 -268 183t-176 264 q-68 154 -68 325zM453 793q0 -206 144 -347q147 -143 347 -143q96 0 176 33l-270 276l250 242l280 -287q56 106 56 216t-39 200t-105.5 156.5t-157 105.5t-191.5 39t-190 -39t-156 -105q-144 -143 -144 -347z" />
<glyph unicode="R" horiz-adv-x="1486" d="M184 0v1583h584q271 0 444 -133q201 -167 201 -428q0 -262 -174 -430q-68 -68 -149 -107l340 -485h-426l-291 416h-181v-416h-348zM532 764h238h15q134 0 205 71q75 75 75 187q0 213 -297 213h-236v-471z" />
<glyph unicode="S" horiz-adv-x="1527" d="M88 287l297 172q28 -50 128 -95q102 -45 214 -45h10q16 -1 32 -1q102 0 214 53q113 51 123 137v8q0 33 -21 53q-37 41 -122.5 66t-165.5 25h-23q-149 0 -262 24q-190 45 -299 154q-108 112 -108 271q0 16 1 32v2q13 181 138 295q104 100 268 141q104 27 220 27t234.5 -30 t212 -89.5t146.5 -136.5l-291 -185q-12 18 -51 43t-108 41q-80 19 -151 19q-67 0 -124 -17q-91 -21 -128 -69q-23 -29 -23 -57q0 -40 23.5 -63.5t103 -43t176.5 -19.5q399 0 589 -202q109 -123 109 -274q0 -23 -2 -46q-12 -133 -92 -239q-132 -174 -404 -236 q-100 -22 -194 -22h-29q-192 4 -371 81q-192 90 -270 226z" />
<glyph unicode="T" horiz-adv-x="1456" d="M84 1235v348h1288v-348h-471v-1235h-348v1235h-469z" />
<glyph unicode="U" horiz-adv-x="1798" d="M141 748v835h348v-835q0 -233 97.5 -337t314.5 -104t314.5 103.5t97.5 337.5v835h348v-835q0 -260 -88 -427.5t-255 -264.5t-417 -97t-417 97q-274 159 -332 512q-11 71 -11 180z" />
<glyph unicode="V" horiz-adv-x="1832" d="M37 1583h381l497 -1110l498 1110h381l-709 -1583h-337z" />
<glyph unicode="W" horiz-adv-x="2562" d="M37 1583h369l350 -1018l370 1018h312l370 -1018l351 1018h366l-543 -1583h-340l-360 993l-360 -993h-340z" />
<glyph unicode="X" horiz-adv-x="1656" d="M29 0l583 819l-542 764h426l329 -463l330 463h426l-543 -764l584 -819h-428l-369 518l-368 -518h-428z" />
<glyph unicode="Y" horiz-adv-x="1816" d="M47 1583h424l440 -629l441 629h426l-693 -987v-596h-348v596z" />
<glyph unicode="Z" horiz-adv-x="1705" d="M37 0l940 1235h-723v348h1423l-938 -1235h781v-348h-1483z" />
<glyph unicode="[" horiz-adv-x="817" d="M182 -285v1997h539v-348h-191v-1301h193v-348h-541z" />
<glyph unicode="\" horiz-adv-x="1423" d="M35 1583h405l946 -1583h-405z" />
<glyph unicode="]" horiz-adv-x="823" d="M96 63h193v1301h-191v348h539v-1997h-541v348z" />
<glyph unicode="^" horiz-adv-x="1273" d="M106 1174l545 544l545 -544l-246 -246l-299 299l-299 -299z" />
<glyph unicode="_" horiz-adv-x="1705" d="M72 -51v348h1564v-348h-1564z" />
<glyph unicode="`" horiz-adv-x="657" d="M53 1526l312 155l229 -452l-311 -156z" />
<glyph unicode="a" horiz-adv-x="1789" d="M23 0l686 1583h362l688 -1583h-381l-145 338h-684l-148 -338h-378zM698 686h383l-192 438z" />
<glyph unicode="b" horiz-adv-x="1591" d="M184 0v1581h660q156 0 269.5 -55t181 -158t67.5 -246t-62 -243q181 -136 181 -373q0 -228 -166 -373q-149 -133 -377 -133h-754zM532 348h406q111 0 169 71q26 32 26 81q0 75 -46 102q-68 51 -204 51h-351v-305zM532 1001h347q42 0 86 23q23 12 36 30.5t13 47t-3 49 t-19 39.5q-36 43 -148 43h-312v-232z" />
<glyph unicode="c" horiz-adv-x="1595" d="M106 793q0 337 242 587q250 242 588 242q166 0 318.5 -63.5t267.5 -178.5l-246 -247q-137 141 -340 141q-197 0 -340 -142q-141 -139 -141 -339q0 -201 141 -341q143 -141 342.5 -141t337.5 142l246 -246q-115 -117 -267.5 -180.5t-319.5 -63.5q-330 0 -587 244 q-115 115 -178.5 266.5t-63.5 319.5z" />
<glyph unicode="d" horiz-adv-x="1685" d="M184 0v1583h590q345 0 578 -227q229 -229 229 -559q0 -334 -221 -559q-102 -110 -258 -174t-328 -64h-590zM532 348h242q202 0 330 125q129 125 129 324q0 192 -129 314q-132 124 -330 124h-242v-887z" />
<glyph unicode="e" horiz-adv-x="1357" d="M180 0v1583h1012v-348h-664v-236h641v-348h-641v-303h664v-348h-1012z" />
<glyph unicode="f" horiz-adv-x="1325" d="M186 0v1583h1045v-348h-696v-303h669v-348h-669v-584h-349z" />
<glyph unicode="g" horiz-adv-x="1873" d="M106 793q0 168 66 323q59 145 178 264q110 113 262 179q150 65 321 65h5q222 0 403 -104q183 -100 295 -275l-290 -190q-68 104 -175.5 162.5t-220 58.5t-200.5 -38t-154 -104q-141 -139 -141 -341q0 -203 141 -343q143 -141 342 -141q123 0 225.5 53.5t167.5 145.5h-442 v348h887q-2 -55 -3 -93q-1 -53 -14 -110q-52 -298 -280.5 -495t-552.5 -197q-239 0 -452 141q-129 85 -226 226q-142 206 -142 465z" />
<glyph unicode="h" horiz-adv-x="1802" d="M178 0v1583h348v-539h748v539h348v-1583h-348v696h-748v-696h-348z" />
<glyph unicode="i" horiz-adv-x="698" d="M176 0v1583h348v-1583h-348z" />
<glyph unicode="j" horiz-adv-x="1374" d="M18 205l265 227l41 -44q78 -79 211 -79q223 0 284 121q43 83 43 199v954h348v-960q0 -217 -90 -367q-114 -201 -360 -268q-96 -27 -225 -27q-199 0 -347 92q-99 61 -163 148z" />
<glyph unicode="k" horiz-adv-x="1914" d="M184 0v1583h348v-606l719 606h541l-801 -676l897 -907h-489l-674 682l-193 -160v-522h-348z" />
<glyph unicode="l" horiz-adv-x="1290" d="M184 0v1583h348v-1235h674v-348h-1022z" />
<glyph unicode="m" horiz-adv-x="2318" d="M31 0l397 1583h360l369 -1032l367 1032h362l404 -1583h-361l-250 983l-348 -983h-348l-348 977l-244 -977h-360z" />
<glyph unicode="n" horiz-adv-x="1904" d="M184 0v1583h385l803 -1046v1046h348v-1583h-374l-814 1059v-1059h-348z" />
<glyph unicode="o" d="M104 791q0 168 66 327q136 306 444 445q155 66 321 66q1 -1 3 -1q168 0 328 -65q160 -71 264 -181q109 -106 180 -264q66 -160 66 -328q0 -247 -143 -464q-133 -200 -367 -303q-160 -66 -328 -66t-322 66t-268 178q-113 115 -178.5 268.5t-65.5 321.5zM453 793 q0 -203 143 -345q145 -143 344 -143q201 0 344 143t143 345q0 201 -143 343q-143 144 -344 144q-199 0 -344 -144q-143 -141 -143 -343z" />
<glyph unicode="p" horiz-adv-x="1462" d="M182 0v1583h584q269 0 440 -131q205 -156 205 -430q0 -129 -45 -241t-129 -189q-176 -176 -461 -176h-246v-416h-348zM530 764h238h15q134 0 205 70q75 74 75 188q0 156 -166 198q-59 15 -131 15h-236v-471z" />
<glyph unicode="q" horiz-adv-x="1904" d="M104 792q0 171 68 328q58 141 178 266q111 111 266 181q159 66 326 66q2 0 3 -1q169 0 324 -66q226 -95 371 -304q46 -66 76 -142q68 -158 68 -327q0 -261 -154 -482l203 -207l-250 -241l-207 211q-201 -119 -428 -119h-4q-168 0 -328 65q-153 68 -268 183t-176 264 q-68 154 -68 325zM453 793q0 -206 144 -347q147 -143 347 -143q96 0 176 33l-270 276l250 242l280 -287q56 106 56 216t-39 200t-105.5 156.5t-157 105.5t-191.5 39t-190 -39t-156 -105q-144 -143 -144 -347z" />
<glyph unicode="r" horiz-adv-x="1486" d="M184 0v1583h584q271 0 444 -133q201 -167 201 -428q0 -262 -174 -430q-68 -68 -149 -107l340 -485h-426l-291 416h-181v-416h-348zM532 764h238h15q134 0 205 71q75 75 75 187q0 213 -297 213h-236v-471z" />
<glyph unicode="s" horiz-adv-x="1527" d="M88 287l297 172q28 -50 128 -95q102 -45 214 -45h10q16 -1 32 -1q102 0 214 53q113 51 123 137v8q0 33 -21 53q-37 41 -122.5 66t-165.5 25h-23q-149 0 -262 24q-190 45 -299 154q-108 112 -108 271q0 16 1 32v2q13 181 138 295q104 100 268 141q104 27 220 27t234.5 -30 t212 -89.5t146.5 -136.5l-291 -185q-12 18 -51 43t-108 41q-80 19 -151 19q-67 0 -124 -17q-91 -21 -128 -69q-23 -29 -23 -57q0 -40 23.5 -63.5t103 -43t176.5 -19.5q399 0 589 -202q109 -123 109 -274q0 -23 -2 -46q-12 -133 -92 -239q-132 -174 -404 -236 q-100 -22 -194 -22h-29q-192 4 -371 81q-192 90 -270 226z" />
<glyph unicode="t" horiz-adv-x="1456" d="M84 1235v348h1288v-348h-471v-1235h-348v1235h-469z" />
<glyph unicode="u" horiz-adv-x="1798" d="M141 748v835h348v-835q0 -233 97.5 -337t314.5 -104t314.5 103.5t97.5 337.5v835h348v-835q0 -260 -88 -427.5t-255 -264.5t-417 -97t-417 97q-274 159 -332 512q-11 71 -11 180z" />
<glyph unicode="v" horiz-adv-x="1832" d="M37 1583h381l497 -1110l498 1110h381l-709 -1583h-337z" />
<glyph unicode="w" horiz-adv-x="2562" d="M37 1583h369l350 -1018l370 1018h312l370 -1018l351 1018h366l-543 -1583h-340l-360 993l-360 -993h-340z" />
<glyph unicode="x" horiz-adv-x="1656" d="M29 0l583 819l-542 764h426l329 -463l330 463h426l-543 -764l584 -819h-428l-369 518l-368 -518h-428z" />
<glyph unicode="y" horiz-adv-x="1816" d="M47 1583h424l440 -629l441 629h426l-693 -987v-596h-348v596z" />
<glyph unicode="z" horiz-adv-x="1705" d="M37 0l940 1235h-723v348h1423l-938 -1235h781v-348h-1483z" />
<glyph unicode="{" horiz-adv-x="933" d="M68 537v348h110q41 0 75 36.5t34 122.5v189q0 100 32 184q76 169 236 231q76 29 162 29h108v-348h-108q-82 0 -82 -96v-189q0 -201 -109 -339q109 -136 109 -297v-209q0 -58 27 -80q21 -21 38 -21h125v-348h-127q-141 0 -258 98q-153 134 -153 351v209q0 47 -41 90 q-33 39 -68 39h-110z" />
<glyph unicode="|" horiz-adv-x="714" d="M184 -291v2003h348v-2003h-348z" />
<glyph unicode="}" horiz-adv-x="935" d="M121 98h125q27 0 54 42q11 18 11 59v209q0 161 109 297q-109 139 -109 339v189q0 96 -82 96h-108v348h108q175 0 297 -114q63 -61 98.5 -147.5t34.5 -182.5v-189q0 -86 39 -129q25 -31 68 -30h113v-348h-113q-33 0 -60 -31q-47 -52 -47 -98v-209q0 -213 -153 -351 q-115 -98 -260 -98h-125v348z" />
<glyph unicode="~" horiz-adv-x="1335" d="M135 1149q23 23 50.5 46.5t64 54t107.5 54t145 23.5q153 0 274 -92l31 -25q23 -16 57.5 -16t53.5 13q35 25 75 67l242 -250q-43 -43 -98 -86q-115 -92 -274 -92t-271 92l-31 25q-20 16 -56 17t-50 -11q-27 -23 -82 -76z" />
<glyph unicode="&#xa1;" horiz-adv-x="718" d="M92 221q0 104 75 181q74 75 179 75t180.5 -75.5t75.5 -180.5t-76 -179q-76 -75 -180 -75t-179 75t-75 179zM172 598v985h348v-985h-348z" />
<glyph unicode="&#xa2;" horiz-adv-x="1595" d="M307 793q0 227 160 387q92 92 219 133v270h348v-274q113 -39 205 -129l-246 -248q-55 59 -139 59q-130 0 -184 -121q-15 -36 -15 -77q0 -84 57.5 -141.5t140.5 -57.5t140 57l246 -245q-88 -88 -205 -130v-276h-348v272q-123 37 -210 124q-169 170 -169 397z" />
<glyph unicode="&#xa3;" horiz-adv-x="1396" d="M23 68q0 135 76.5 246t197.5 173q80 37 166 43q2 10 2 31h-279v246h119q-49 66 -89 146.5t-40 185.5v4q0 203 152 350q151 145 368 145h9q216 0 367 -145q153 -147 153 -350h-348q0 60 -52.5 103.5t-119.5 43.5h-9q-67 0 -119.5 -43.5t-52.5 -103.5v-4q0 -37 28 -78 t67 -88q80 -96 122 -166h328v-246h-256q0 -65 -16 -131l147 -123q37 -31 84 -22.5t86 59.5l270 -221q-156 -189 -376 -189q-160 0 -285 105l-131 108q-74 59 -146 25q-33 -16 -54 -46t-21 -58h-348z" />
<glyph unicode="&#xa4;" horiz-adv-x="1361" d="M74 367l151 153q-43 101 -43 207.5t47 204.5l-151 151l246 246l153 -151q101 43 203 43t203 -43l153 151l246 -246l-152 -151q47 -98 47.5 -206.5t-44.5 -205.5l153 -153l-246 -246l-151 151q-100 -47 -210 -47t-208 47l-152 -151zM530 723q0 -61 44.5 -105.5 t105.5 -44.5t105 44.5t44 105.5t-44 105t-105 44t-105.5 -44t-44.5 -105z" />
<glyph unicode="&#xa5;" horiz-adv-x="1816" d="M49 1583h426l438 -629l441 629h426l-428 -610h221v-246h-393l-72 -100h465v-246h-486v-381h-348v381h-477v246h457l-70 100h-387v246h215z" />
<glyph unicode="&#xa9;" horiz-adv-x="792" d="M47 1254.5q0 145.5 103 249.5q102 104 247 104t249 -104t104 -249t-104 -247q-105 -103 -248 -103q-73 0 -137 28t-111 75q-103 101 -103 246.5zM150 1255q0 -104 72 -175q74 -72 175 -72q105 0 177.5 72.5t72.5 174.5q0 105 -72.5 177.5t-177.5 72.5q-101 0 -175 -73 q-72 -70 -72 -177zM182 1255q0 91 64 157q64 65 154.5 65t158.5 -64l-74 -74q-31 35 -81 35t-84.5 -34.5t-34.5 -83t34.5 -83t84.5 -34.5t81 35l74 -74q-68 -64 -158 -64t-154.5 64.5t-64.5 154.5z" />
<glyph unicode="&#xad;" horiz-adv-x="1380" d="M188 641v348h1016v-348h-1016z" />
<glyph unicode="&#xae;" horiz-adv-x="802" d="M49 1255q0 143 103 247q102 104 245 104t247 -104t104 -247t-104 -245q-105 -103 -247 -103q-141 0 -245 103q-103 101 -103 245zM152 1255q0 -102 72 -173q74 -72 173 -72q103 0 175.5 72.5t72.5 172.5q0 103 -72.5 175.5t-175.5 72.5q-99 0 -173 -73q-72 -70 -72 -175z M258 1067v385h135q61 0 111 -33q55 -42 55 -112q0 -87 -72 -131l60 -78l-82 -62l-88 115h-17v-84h-102zM360 1253h33q14 0 39 9.5t25 44.5q0 43 -64 43h-33v-97z" />
<glyph unicode="&#xb0;" horiz-adv-x="622" d="M51 1477q0 105 76 183q75 77 182 77q108 0 183 -77q77 -78 77 -183q0 -108 -77 -183t-183 -75q-105 0 -182 75q-76 75 -76 183zM221 1477q0 -37 25.5 -62.5t62.5 -25.5t63.5 25.5t26.5 62.5t-26.5 63.5t-63.5 26.5t-62.5 -27t-25.5 -63z" />
<glyph unicode="&#xb4;" horiz-adv-x="706" d="M33 1155l282 514l306 -168l-283 -514z" />
<glyph unicode="&#xbf;" horiz-adv-x="1705" d="M301 1335q71 130 221 217q143 78 287 78q264 0 436 -145q86 -74 136.5 -175t50.5 -211t-51 -218q-51 -98 -133 -167q-166 -141 -392 -149v-98h-348v539l227 -76q160 -48 274 38q75 56 75 130q0 73 -75 130q-73 54 -161 54q-177 0 -244 -117zM461 174q0 96 71 170 q68 72 169 72q99 0 169 -72q72 -73 72 -170q0 -99 -72 -169q-72 -71 -169 -71q-100 0 -169 71q-71 72 -71 169z" />
<glyph unicode="&#xc0;" horiz-adv-x="1789" d="M23 0l686 1583h362l688 -1583h-381l-145 338h-684l-148 -338h-378zM624 2050l312 155l229 -452l-311 -156zM698 686h383l-192 438z" />
<glyph unicode="&#xc1;" horiz-adv-x="1789" d="M23 0l686 1583h362l688 -1583h-381l-145 338h-684l-148 -338h-378zM600 1761l282 514l306 -168l-283 -514zM698 686h383l-192 438z" />
<glyph unicode="&#xc2;" horiz-adv-x="1789" d="M23 0h378l148 338h684l145 -338h381l-688 1583h-362zM238 1714l282 514l305 -168l-282 -514zM698 686l191 438l192 -438h-383zM942 2062l311 156l281 -528l-311 -156z" />
<glyph unicode="&#xc3;" horiz-adv-x="1789" d="M23 0h378l148 338h684l145 -338h381l-688 1583h-362zM356 1948q23 23 50.5 46t64.5 54t107.5 54.5t144.5 23.5q153 0 274 -92l31 -25q23 -16 57.5 -16t52.5 13q36 25 76 67l242 -250q-54 -54 -98 -86q-115 -92 -274 -92t-271 92l-31 24q-20 16 -56 17.5t-50 -11 t-34.5 -32t-47.5 -43.5zM698 686l191 438l192 -438h-383z" />
<glyph unicode="&#xc4;" horiz-adv-x="1789" d="M23 0h378l148 338h684l145 -338h381l-688 1583h-362zM307 1894q0 104 75 180q74 76 179 76t180.5 -75.5t75.5 -180.5t-75 -179q-77 -75 -181 -75t-179 75t-75 179zM698 686l191 438l192 -438h-383zM995 1894q0 104 75 180q74 76 179 76t180.5 -75.5t75.5 -180.5t-75 -179 q-77 -75 -181 -75t-179 75t-75 179z" />
<glyph unicode="&#xc7;" horiz-adv-x="1595" d="M106 793q0 337 242 587q250 242 588 242q166 0 318.5 -63.5t267.5 -178.5l-246 -247q-137 141 -340 141q-197 0 -340 -142q-141 -139 -141 -339q0 -201 141 -341q143 -141 342.5 -141t337.5 142l246 -246q-115 -117 -267.5 -180.5t-319.5 -63.5q-330 0 -587 244 q-115 115 -178.5 266.5t-63.5 319.5zM473 -334l283 514l305 -168l-283 -514z" />
<glyph unicode="&#xc8;" horiz-adv-x="1357" d="M180 0v1583h1012v-348h-664v-236h641v-348h-641v-303h664v-348h-1012zM407 2071l312 155l229 -452l-311 -156z" />
<glyph unicode="&#xc9;" horiz-adv-x="1357" d="M180 0v1583h1012v-348h-664v-236h641v-348h-641v-303h664v-348h-1012zM385 1782l282 514l306 -168l-283 -514z" />
<glyph unicode="&#xca;" horiz-adv-x="1357" d="M25 1796l282 514l305 -168l-282 -514zM180 0h1012v348h-664v303h641v348h-641v236h664v348h-1012v-1583zM729 2144l311 156l281 -528l-311 -156z" />
<glyph unicode="&#xcb;" horiz-adv-x="1357" d="M61 1894q0 104 75 180q74 76 179 76t180.5 -75.5t75.5 -180.5t-75 -179q-77 -75 -181 -75t-179 75t-75 179zM180 0h1012v348h-664v303h641v348h-641v236h664v348h-1012v-1583zM750 1894q0 104 74 180t180 76q103 0 180 -76q76 -74 76 -180q0 -105 -76 -179 q-77 -75 -180 -75q-106 0 -180 75q-74 76 -74 179z" />
<glyph unicode="&#xcc;" horiz-adv-x="698" d="M78 2091l312 155l229 -452l-311 -156zM176 0v1583h348v-1583h-348z" />
<glyph unicode="&#xcd;" horiz-adv-x="698" d="M56 1802l282 514l306 -168l-283 -514zM176 0v1583h348v-1583h-348z" />
<glyph unicode="&#xce;" horiz-adv-x="698" d="M-295 1714l283 514l305 -168l-283 -514zM176 0v1583h348v-1583h-348zM410 2062l311 156l280 -528l-311 -156z" />
<glyph unicode="&#xcf;" horiz-adv-x="698" d="M-236 1894q0 104 75 180q74 76 179 76t180.5 -75.5t75.5 -180.5t-76 -179q-76 -75 -180 -75t-179 75t-75 179zM176 0v1583h348v-1583h-348zM453 1894q0 104 75 180q73 76 179 76q103 0 180 -76q76 -74 76 -180q0 -105 -76 -179q-77 -75 -180 -75q-106 0 -179 75 q-75 76 -75 179z" />
<glyph unicode="&#xd0;" horiz-adv-x="1785" d="M49 621v348h1016v-348h-1016zM285 0v1583h589q345 0 578 -227q229 -229 229 -559q0 -336 -221 -559q-102 -110 -258 -174t-328 -64h-589zM633 348h241q203 0 332 125q127 124 127 324q0 193 -129 314q-131 124 -330 124h-241v-887z" />
<glyph unicode="&#xd1;" horiz-adv-x="1904" d="M184 0v1583h385l803 -1046v1046h348v-1583h-374l-814 1059v-1059h-348zM401 1919q23 23 50.5 46.5t64 54t107.5 54t145 23.5q153 0 274 -92l31 -25q23 -16 57.5 -16t53.5 13q35 25 75 67l242 -250q-43 -43 -98 -86q-115 -92 -274 -92t-271 92l-31 25q-20 16 -56 17 t-50 -11q-27 -23 -82 -76z" />
<glyph unicode="&#xd2;" d="M104 791q0 168 66 327q136 306 444 445q156 66 324 65.5t328 -65.5q160 -71 264 -181q109 -106 180 -264q66 -160 66 -328q0 -247 -143 -464q-133 -200 -367 -303q-160 -66 -328 -66t-322 66t-268 178q-113 115 -178.5 268.5t-65.5 321.5zM453 793q0 -203 143 -345 q145 -143 344 -143q201 0 344 143t143 345q0 201 -143 343q-143 144 -344 144q-199 0 -344 -144q-143 -141 -143 -343zM667 2132l312 155l229 -452l-311 -156z" />
<glyph unicode="&#xd3;" d="M104 791q0 168 66 327q136 306 444 445q156 66 324 65.5t328 -65.5q160 -71 264 -181q109 -106 180 -264q66 -160 66 -328q0 -247 -143 -464q-133 -200 -367 -303q-160 -66 -328 -66t-322 66t-268 178q-113 115 -178.5 268.5t-65.5 321.5zM453 793q0 -203 143 -345 q145 -143 344 -143q201 0 344 143t143 345q0 201 -143 343q-143 144 -344 144q-199 0 -344 -144q-143 -141 -143 -343zM645 1823l282 514l306 -168l-283 -514z" />
<glyph unicode="&#xd4;" d="M104 791q0 168 66 327q136 306 444 445q156 66 324 65.5t328 -65.5q160 -71 264 -181q109 -106 180 -264q66 -160 66 -328q0 -247 -143 -464q-133 -200 -367 -303q-160 -66 -328 -66t-322 66t-268 178q-113 115 -178.5 268.5t-65.5 321.5zM311 1796l283 514l305 -168 l-283 -514zM453 793q0 -203 143 -345q145 -143 344 -143q201 0 344 143t143 345q0 201 -143 343q-143 144 -344 144q-199 0 -344 -144q-143 -141 -143 -343zM1016 2144l311 156l281 -528l-312 -156z" />
<glyph unicode="&#xd5;" d="M104 791q0 168 66 327q136 306 444 445q156 66 324 65.5t328 -65.5q160 -71 264 -181q109 -106 180 -264q66 -160 66 -328q0 -247 -143 -464q-133 -200 -367 -303q-160 -66 -328 -66t-322 66t-268 178q-113 115 -178.5 268.5t-65.5 321.5zM389 1960q23 23 50.5 46.5 t64 54t107.5 54t145 23.5q153 0 274 -92l31 -25q23 -16 57.5 -16t53.5 13q35 25 75 67l242 -250q-43 -43 -98 -86q-115 -92 -274 -92t-271 92l-31 25q-20 16 -56 17t-50 -11q-27 -23 -82 -76zM453 793q0 -203 143 -345q145 -143 344 -143q201 0 344 143t143 345 q0 201 -143 343q-143 144 -344 144q-199 0 -344 -144q-143 -141 -143 -343z" />
<glyph unicode="&#xd6;" d="M104 791q0 168 66 327q136 306 444 445q156 66 324 65.5t328 -65.5q160 -71 264 -181q109 -106 180 -264q66 -160 66 -328q0 -247 -143 -464q-133 -200 -367 -303q-160 -66 -328 -66t-322 66t-268 178q-113 115 -178.5 268.5t-65.5 321.5zM313 1894q0 104 75 180 q74 76 179 76t180.5 -75.5t75.5 -180.5t-75 -179q-77 -75 -181 -75t-179 75t-75 179zM453 793q0 -203 143 -345q145 -143 344 -143q201 0 344 143t143 345q0 201 -143 343q-143 144 -344 144q-199 0 -344 -144q-143 -141 -143 -343zM1001 1894q0 104 75 180q74 76 179 76 t180.5 -75.5t75.5 -180.5t-75 -179q-77 -75 -181 -75t-179 75t-75 179z" />
<glyph unicode="&#xd7;" horiz-adv-x="1148" d="M166 631l162 160l-162 161l246 248l163 -164l164 164l246 -248l-164 -161l164 -160l-246 -248l-164 164l-163 -164z" />
<glyph unicode="&#xd8;" d="M106 791q0 168 66 327q136 306 444 445q295 125 603 18l2 2h401l-106 -184q10 -6 16 -17q109 -106 180 -264q66 -160 66 -328q0 -247 -143 -464q-133 -200 -367 -303q-160 -66 -311.5 -66t-280.5 43h-367l90 156q-12 10 -24.5 22t-24.5 23q-113 115 -178.5 268.5 t-65.5 321.5zM455 793q0 -191 125 -326l460 803q-62 10 -98 10q-199 0 -344 -144q-143 -141 -143 -343zM889 307q12 -2 25 -2h28q201 0 344.5 143.5t143.5 344.5q0 166 -97 288z" />
<glyph unicode="&#xd9;" horiz-adv-x="1798" d="M141 748v835h348v-835q0 -233 97.5 -337t314.5 -104t314.5 103.5t97.5 337.5v835h348v-835q0 -260 -88 -427.5t-255 -264.5t-417 -97t-417 97q-274 159 -332 512q-11 71 -11 180zM628 2050l312 155l229 -452l-311 -156z" />
<glyph unicode="&#xda;" horiz-adv-x="1798" d="M141 748v835h348v-835q0 -233 97.5 -337t314.5 -104t314.5 103.5t97.5 337.5v835h348v-835q0 -260 -88 -427.5t-255 -264.5t-417 -97t-417 97q-274 159 -332 512q-11 71 -11 180zM604 1741l282 514l306 -168l-283 -514z" />
<glyph unicode="&#xdb;" horiz-adv-x="1798" d="M141 748v835h348v-835q0 -233 97.5 -337t314.5 -104t314.5 103.5t97.5 337.5v835h348v-835q0 -260 -88 -427.5t-255 -264.5t-417 -97t-417 97q-274 159 -332 512q-11 71 -11 180zM250 1796l282 514l306 -168l-283 -514zM954 2144l312 156l280 -528l-311 -156z" />
<glyph unicode="&#xdc;" horiz-adv-x="1798" d="M141 748v835h348v-835q0 -233 97.5 -337t314.5 -104t314.5 103.5t97.5 337.5v835h348v-835q0 -260 -88 -427.5t-255 -264.5t-417 -97t-417 97q-274 159 -332 512q-11 71 -11 180zM307 1894q0 104 75 180q74 76 179 76t180.5 -75.5t75.5 -180.5t-75 -179q-77 -75 -181 -75 t-179 75t-75 179zM995 1894q0 104 75 180q74 76 179 76t180.5 -75.5t75.5 -180.5t-75 -179q-77 -75 -181 -75t-179 75t-75 179z" />
<glyph unicode="&#xdd;" horiz-adv-x="1816" d="M47 1583h424l440 -629l441 629h426l-693 -987v-596h-348v596zM615 1741l282 514l306 -168l-283 -514z" />
<glyph unicode="&#xe0;" horiz-adv-x="1789" d="M23 0l686 1583h362l688 -1583h-381l-145 338h-684l-148 -338h-378zM624 2058l312 155l229 -452l-311 -156zM698 686h383l-192 438z" />
<glyph unicode="&#xe1;" horiz-adv-x="1789" d="M23 0l686 1583h362l688 -1583h-381l-145 338h-684l-148 -338h-378zM600 1790l282 514l306 -168l-283 -514zM698 686h383l-192 438z" />
<glyph unicode="&#xe2;" horiz-adv-x="1789" d="M23 0h378l148 338h684l145 -338h381l-688 1583h-362zM250 1796l282 514l306 -168l-283 -514zM698 686l191 438l192 -438h-383zM954 2144l312 156l280 -528l-311 -156z" />
<glyph unicode="&#xe3;" horiz-adv-x="1789" d="M23 0l686 1583h362l688 -1583h-381l-145 338h-684l-148 -338h-378zM344 1927q23 23 50.5 46.5t64 54t107.5 54t145 23.5q153 0 274 -92l31 -25q23 -16 57.5 -16t53.5 13q35 25 75 67l242 -250q-43 -43 -98 -86q-115 -92 -274 -92t-271 92l-31 25q-20 16 -56 17t-50 -11 q-27 -23 -82 -76zM698 686h383l-192 438z" />
<glyph unicode="&#xe4;" horiz-adv-x="1789" d="M23 0h378l148 338h684l145 -338h381l-688 1583h-362zM307 1894q0 104 75 180q74 76 179 76t180.5 -75.5t75.5 -180.5t-75 -179q-77 -75 -181 -75t-179 75t-75 179zM698 686l191 438l192 -438h-383zM995 1894q0 104 75 180q74 76 179 76t180.5 -75.5t75.5 -180.5t-75 -179 q-77 -75 -181 -75t-179 75t-75 179z" />
<glyph unicode="&#xe7;" horiz-adv-x="1595" d="M106 793q0 337 242 587q250 242 588 242q166 0 318.5 -63.5t267.5 -178.5l-246 -247q-137 141 -340 141q-197 0 -340 -142q-141 -139 -141 -339q0 -201 141 -341q143 -141 342.5 -141t337.5 142l246 -246q-115 -117 -267.5 -180.5t-319.5 -63.5q-330 0 -587 244 q-115 115 -178.5 266.5t-63.5 319.5zM473 -334l283 514l305 -168l-283 -514z" />
<glyph unicode="&#xe8;" horiz-adv-x="1357" d="M180 0v1583h1012v-348h-664v-236h641v-348h-641v-303h664v-348h-1012zM407 2091l312 155l229 -452l-311 -156z" />
<glyph unicode="&#xe9;" horiz-adv-x="1357" d="M180 0v1583h1012v-348h-664v-236h641v-348h-641v-303h664v-348h-1012zM385 1796l282 514l306 -168l-283 -514z" />
<glyph unicode="&#xea;" horiz-adv-x="1357" d="M31 1796l282 514l305 -168l-282 -514zM180 0h1012v348h-664v303h641v348h-641v236h664v348h-1012v-1583zM735 2144l312 156l280 -528l-311 -156z" />
<glyph unicode="&#xeb;" horiz-adv-x="1357" d="M82 1894q0 104 74 180t180 76q103 0 180 -76q76 -74 76 -180q0 -105 -76 -179q-77 -75 -180 -75q-106 0 -180 75q-74 76 -74 179zM180 0h1012v348h-664v303h641v348h-641v236h664v348h-1012v-1583zM770 1894q0 104 75 180q74 76 179 76q103 0 180 -76q76 -74 76 -180 q0 -105 -76 -179q-77 -75 -180 -75q-104 0 -179 75t-75 179z" />
<glyph unicode="&#xec;" horiz-adv-x="698" d="M78 2081l312 155l229 -452l-311 -156zM176 0v1583h348v-1583h-348z" />
<glyph unicode="&#xed;" horiz-adv-x="698" d="M56 1800l282 514l306 -168l-283 -514zM176 0v1583h348v-1583h-348z" />
<glyph unicode="&#xee;" horiz-adv-x="698" d="M-299 1796l283 514l305 -168l-283 -514zM176 0v1583h348v-1583h-348zM406 2144l311 156l280 -528l-311 -156z" />
<glyph unicode="&#xef;" horiz-adv-x="716" d="M-258 1894q0 104 74 180t180 76q103 0 180 -76q76 -74 76 -180q0 -105 -76 -179q-77 -75 -180 -75q-106 0 -180 75q-74 76 -74 179zM182 0v1583h348v-1583h-348zM430 1894q0 104 75 180q74 76 179 76q103 0 180 -76q76 -74 76 -180q0 -105 -76 -179q-77 -75 -180 -75 q-104 0 -179 75t-75 179z" />
<glyph unicode="&#xf1;" horiz-adv-x="1904" d="M184 0v1583h385l803 -1046v1046h348v-1583h-374l-814 1059v-1059h-348zM401 1880q23 23 50.5 46.5t64 54t107.5 54t145 23.5q153 0 274 -92l31 -25q23 -16 57.5 -16t53.5 13q35 25 75 67l242 -250q-43 -43 -98 -86q-115 -92 -274 -92t-271 92l-31 25q-20 16 -56 17 t-50 -11q-27 -23 -82 -76z" />
<glyph unicode="&#xf2;" d="M104 791q0 168 66 327q136 306 444 445q156 66 324 65.5t328 -65.5q160 -71 264 -181q109 -106 180 -264q66 -160 66 -328q0 -247 -143 -464q-133 -200 -367 -303q-160 -66 -328 -66t-322 66t-268 178q-113 115 -178.5 268.5t-65.5 321.5zM453 793q0 -203 143 -345 q145 -143 344 -143q201 0 344 143t143 345q0 201 -143 343q-143 144 -344 144q-199 0 -344 -144q-143 -141 -143 -343zM667 2112l312 155l229 -452l-311 -156z" />
<glyph unicode="&#xf3;" d="M104 791q0 168 66 327q136 306 444 445q156 66 324 65.5t328 -65.5q160 -71 264 -181q109 -106 180 -264q66 -160 66 -328q0 -247 -143 -464q-133 -200 -367 -303q-160 -66 -328 -66t-322 66t-268 178q-113 115 -178.5 268.5t-65.5 321.5zM453 793q0 -203 143 -345 q145 -143 344 -143q201 0 344 143t143 345q0 201 -143 343q-143 144 -344 144q-199 0 -344 -144q-143 -141 -143 -343zM645 1843l282 514l306 -168l-283 -514z" />
<glyph unicode="&#xf4;" d="M104 791q0 168 66 327q136 306 444 445q156 66 324 65.5t328 -65.5q160 -71 264 -181q109 -106 180 -264q66 -160 66 -328q0 -247 -143 -464q-133 -200 -367 -303q-160 -66 -328 -66t-322 66t-268 178q-113 115 -178.5 268.5t-65.5 321.5zM311 1796l283 514l305 -168 l-283 -514zM453 793q0 -203 143 -345q145 -143 344 -143q201 0 344 143t143 345q0 201 -143 343q-143 144 -344 144q-199 0 -344 -144q-143 -141 -143 -343zM1016 2144l311 156l281 -528l-312 -156z" />
<glyph unicode="&#xf5;" d="M104 791q0 168 66 327q136 306 444 445q156 66 324 65.5t328 -65.5q160 -71 264 -181q109 -106 180 -264q66 -160 66 -328q0 -247 -143 -464q-133 -200 -367 -303q-160 -66 -328 -66t-322 66t-268 178q-113 115 -178.5 268.5t-65.5 321.5zM389 1968q23 23 50.5 46.5 t64 54t107.5 54t145 23.5q153 0 274 -92l31 -25q23 -16 57.5 -16t53.5 13q35 25 75 67l242 -250q-43 -43 -98 -86q-115 -92 -274 -92t-271 92l-31 25q-20 16 -56 17t-50 -11q-27 -23 -82 -76zM453 793q0 -203 143 -345q145 -143 344 -143q201 0 344 143t143 345 q0 201 -143 343q-143 144 -344 144q-199 0 -344 -144q-143 -141 -143 -343z" />
<glyph unicode="&#xf6;" d="M104 791q0 168 66 327q136 306 444 445q156 66 324 65.5t328 -65.5q160 -71 264 -181q109 -106 180 -264q66 -160 66 -328q0 -247 -143 -464q-133 -200 -367 -303q-160 -66 -328 -66t-322 66t-268 178q-113 115 -178.5 268.5t-65.5 321.5zM336 1894q0 104 74 180t180 76 q103 0 180 -76q76 -74 76 -180q0 -105 -76 -179q-77 -75 -180 -75q-106 0 -180 75q-74 76 -74 179zM453 793q0 -203 143 -345q145 -143 344 -143q201 0 344 143t143 345q0 201 -143 343q-143 144 -344 144q-199 0 -344 -144q-143 -141 -143 -343zM1024 1894q0 104 75 180 q74 76 179 76q103 0 180 -76q76 -74 76 -180q0 -105 -76 -179q-77 -75 -180 -75q-104 0 -179 75t-75 179z" />
<glyph unicode="&#xf7;" horiz-adv-x="1255" d="M127 625v348h1016v-348h-1016zM393 360q0 98 71 170q70 72 169 72q97 0 170 -72q71 -69 71 -170t-71 -168q-74 -71 -170 -71q-97 0 -169 71q-71 69 -71 168zM393 1241q0 97 71 170q70 72 169 72q98 0 170 -72q71 -71 71 -170q0 -100 -71 -169q-73 -71 -170 -71 q-98 0 -169 71t-71 169z" />
<glyph unicode="&#xf8;" d="M106 791q0 168 66 327q136 306 444 445q295 125 603 18l2 2h401l-106 -184q10 -6 16 -17q109 -106 180 -264q66 -160 66 -328q0 -247 -143 -464q-133 -200 -367 -303q-160 -66 -311.5 -66t-280.5 43h-367l90 156q-12 10 -24.5 22t-24.5 23q-113 115 -178.5 268.5 t-65.5 321.5zM455 793q0 -191 125 -326l460 803q-62 10 -98 10q-199 0 -344 -144q-143 -141 -143 -343zM889 307q12 -2 25 -2h28q201 0 344.5 143.5t143.5 344.5q0 166 -97 288z" />
<glyph unicode="&#xf9;" horiz-adv-x="1798" d="M141 748v835h348v-835q0 -233 97.5 -337t314.5 -104t314.5 103.5t97.5 337.5v835h348v-835q0 -260 -88 -427.5t-255 -264.5t-417 -97t-417 97q-274 159 -332 512q-11 71 -11 180zM628 1993l312 155l229 -452l-311 -156z" />
<glyph unicode="&#xfa;" horiz-adv-x="1798" d="M141 748v835h348v-835q0 -233 97.5 -337t314.5 -104t314.5 103.5t97.5 337.5v835h348v-835q0 -260 -88 -427.5t-255 -264.5t-417 -97t-417 97q-274 159 -332 512q-11 71 -11 180zM604 1704l282 514l306 -168l-283 -514z" />
<glyph unicode="&#xfb;" horiz-adv-x="1798" d="M141 748v835h348v-835q0 -233 97.5 -337t314.5 -104t314.5 103.5t97.5 337.5v835h348v-835q0 -260 -88 -427.5t-255 -264.5t-417 -97t-417 97q-274 159 -332 512q-11 71 -11 180zM250 1796l282 514l306 -168l-283 -514zM954 2144l312 156l280 -528l-311 -156z" />
<glyph unicode="&#xfc;" horiz-adv-x="1798" d="M141 748v835h348v-835q0 -233 97.5 -337t314.5 -104t314.5 103.5t97.5 337.5v835h348v-835q0 -260 -88 -427.5t-255 -264.5t-417 -97t-417 97q-274 159 -332 512q-11 71 -11 180zM315 1894q0 104 75 180q74 76 179 76t180.5 -75.5t75.5 -180.5t-75 -179q-77 -75 -181 -75 t-179 75t-75 179zM1004 1894q0 105 74 180q74 76 179 76q104 0 181 -76q75 -73 75 -180q0 -106 -75 -179q-77 -75 -181 -75t-179 75q-74 74 -74 179z" />
<glyph unicode="&#xfd;" horiz-adv-x="1816" d="M47 1583h424l440 -629l441 629h426l-693 -987v-596h-348v596zM615 1704l282 514l306 -168l-283 -514z" />
<glyph unicode="&#xff;" horiz-adv-x="1816" d="M47 1583l690 -987v-596h348v596l693 987h-426l-441 -629l-440 629h-424zM305 1894q0 104 75 180q74 76 179 76t180.5 -75.5t75.5 -180.5t-75 -179q-77 -75 -181 -75t-179 75t-75 179zM993 1894q0 104 75 180q74 76 179 76t180.5 -75.5t75.5 -180.5t-75 -179 q-77 -75 -181 -75t-179 75t-75 179z" />
<glyph unicode="&#x178;" horiz-adv-x="1816" d="M47 1583l690 -987v-596h348v596l693 987h-426l-441 -629l-440 629h-424zM307 1894q0 104 75 180q74 76 179 76t180.5 -75.5t75.5 -180.5t-75 -179q-77 -75 -181 -75t-179 75t-75 179zM995 1894q0 104 75 180q74 76 179 76t180.5 -75.5t75.5 -180.5t-75 -179 q-77 -75 -181 -75t-179 75t-75 179z" />
<glyph unicode="&#x2c6;" horiz-adv-x="1058" d="M109 -133v348h251v1010h-251v348h251v139h349v-139h252v-348h-252v-1010h252v-348h-252v-158h-349v158h-251z" />
<glyph unicode="&#x2dc;" horiz-adv-x="1376" d="M135 1149q23 23 50.5 46.5t64 54t107.5 54t145 23.5q153 0 274 -92l31 -25q23 -16 57.5 -16t53.5 13q35 25 75 67l242 -250q-43 -43 -98 -86q-115 -92 -274 -92t-271 92l-31 25q-20 16 -56 17t-50 -11q-27 -23 -82 -76z" />
<glyph unicode="&#x2000;" horiz-adv-x="1178" />
<glyph unicode="&#x2001;" horiz-adv-x="2357" />
<glyph unicode="&#x2002;" horiz-adv-x="1178" />
<glyph unicode="&#x2003;" horiz-adv-x="2357" />
<glyph unicode="&#x2004;" horiz-adv-x="785" />
<glyph unicode="&#x2005;" horiz-adv-x="589" />
<glyph unicode="&#x2006;" horiz-adv-x="392" />
<glyph unicode="&#x2007;" horiz-adv-x="392" />
<glyph unicode="&#x2008;" horiz-adv-x="294" />
<glyph unicode="&#x2009;" horiz-adv-x="471" />
<glyph unicode="&#x200a;" horiz-adv-x="130" />
<glyph unicode="&#x2010;" horiz-adv-x="1380" d="M188 641v348h1016v-348h-1016z" />
<glyph unicode="&#x2011;" horiz-adv-x="1380" d="M188 641v348h1016v-348h-1016z" />
<glyph unicode="&#x2012;" horiz-adv-x="1380" d="M188 641v348h1016v-348h-1016z" />
<glyph unicode="&#x2013;" horiz-adv-x="1388" d="M188 641v348h1024v-348h-1024z" />
<glyph unicode="&#x2014;" horiz-adv-x="2412" d="M188 641v348h2048v-348h-2048z" />
<glyph unicode="&#x2018;" horiz-adv-x="665" d="M33 1079l282 514l306 -168l-283 -514z" />
<glyph unicode="&#x2019;" horiz-adv-x="655" d="M33 1237l282 514l306 -168l-283 -514z" />
<glyph unicode="&#x201a;" horiz-adv-x="661" d="M23 -242l282 514l305 -168l-282 -514z" />
<glyph unicode="&#x201c;" horiz-adv-x="1179" d="M33 1079l282 514l306 -168l-283 -514zM545 1079l282 514l306 -168l-283 -514z" />
<glyph unicode="&#x201d;" horiz-adv-x="1214" d="M33 1237l282 514l306 -168l-283 -514zM545 1237l282 514l306 -168l-283 -514z" />
<glyph unicode="&#x201e;" horiz-adv-x="1177" d="M23 -242l282 514l305 -168l-282 -514zM535 -242l282 514l305 -168l-282 -514z" />
<glyph unicode="&#x2022;" horiz-adv-x="755" d="M80 821q0 125 87 212t210 87q122 0 211 -87q88 -86 88 -212q0 -121 -88 -209t-211 -88q-124 0 -210 88q-87 89 -87 209z" />
<glyph unicode="&#x2026;" horiz-adv-x="2064" d="M92 221q0 104 75 181q74 75 179 75t180.5 -75.5t75.5 -180.5t-76 -179q-76 -75 -180 -75t-179 75t-75 179zM780 221q0 104 75 181q74 75 179 75t180.5 -75.5t75.5 -180.5t-76 -179q-76 -75 -180 -75t-179 75t-75 179zM1468 221q0 104 75 181q74 75 179 75t180.5 -75.5 t75.5 -180.5t-76 -179q-76 -75 -180 -75t-179 75t-75 179z" />
<glyph unicode="&#x202f;" horiz-adv-x="471" />
<glyph unicode="&#x205f;" horiz-adv-x="589" />
<glyph unicode="&#x2122;" horiz-adv-x="1286" d="M29 1479v102h456v-102h-178v-500h-102v500h-176zM438 997l150 611l246 -459l245 461l152 -615l-98 -24l-89 354l-210 -393l-209 393l-88 -352z" />
<glyph unicode="&#xe000;" horiz-adv-x="1587" d="M0 0v1587h1587v-1587h-1587z" />
</font>
</defs>
</svg>
