<?xml version="1.0" standalone="no"?>
<!DOCTYPE svg PUBLIC "-//W3C//DTD SVG 1.1//EN" "http://www.w3.org/Graphics/SVG/1.1/DTD/svg11.dtd" >
<svg xmlns="http://www.w3.org/2000/svg">
<metadata>
This is a custom SVG webfont generated by Font Squirrel.
Copyright   : HTF Gotham  2001 The Hoefler Type Foundry Inc Info wwwtypographycom
</metadata>
<defs>
<font id="webfontdNlyTpe2" horiz-adv-x="716" >
<font-face units-per-em="2048" ascent="1638" descent="-410" />
<missing-glyph horiz-adv-x="325" />
<glyph unicode=" "  horiz-adv-x="325" />
<glyph unicode="&#x09;" horiz-adv-x="325" />
<glyph unicode="&#xa0;" horiz-adv-x="325" />
<glyph unicode="!" horiz-adv-x="454" d="M166 446l-86 947v41h295v-41l-86 -947h-123zM86 0v285h283v-285h-283z" />
<glyph unicode="&#x22;" horiz-adv-x="706" d="M430 780v654h246v-19l-156 -635h-90zM92 780v654h246v-19l-156 -635h-90z" />
<glyph unicode="#" horiz-adv-x="772" d="M98 0l29 328h-100v221h120l31 344h-115v221h134l28 320h158l-29 -320h131l29 320h158l-29 -320h102v-221h-120l-31 -344h115v-221h-134l-28 -328h-160l29 328h-129l-29 -328h-160zM305 549h131l31 344h-131z" />
<glyph unicode="$" d="M276 -219v209q-92 4 -204 59v260q137 -80 225 -80q59 0 96 31t37 92v4q0 51 -26.5 102.5t-112.5 147.5q-139 158 -189.5 247t-50.5 212v4q0 131 61.5 224t163.5 130v162h162v-141q102 -6 183 -45v-260q-113 66 -191 65q-55 0 -92 -32.5t-37 -90.5v-4q0 -49 22.5 -85 t116.5 -144q147 -170 193.5 -263t46.5 -216v-4q0 -125 -67.5 -218.5t-174.5 -132.5v-233h-162z" />
<glyph unicode="%" horiz-adv-x="1167" d="M280.5 680q-104.5 0 -167 97t-62.5 263v45q0 166 62.5 263.5t167 97.5t167 -97.5t62.5 -263.5v-45q0 -166 -62.5 -263t-167 -97zM178 0l670 1434h145l-669 -1434h-146zM886.5 -12q-104.5 0 -167 97t-62.5 263v45q0 166 62.5 263.5t167 97.5t167 -97.5t62.5 -263.5v-45 q0 -166 -62.5 -263t-167 -97zM280.5 846q61.5 0 61.5 196v41q0 197 -61.5 197t-61.5 -197v-41q0 -196 61.5 -196zM886.5 154q61.5 0 61.5 196v41q0 197 -61.5 197t-61.5 -197v-41q0 -196 61.5 -196z" />
<glyph unicode="&#x26;" horiz-adv-x="888" d="M371 -20q-143 0 -243.5 108.5t-100.5 278.5v12q0 231 219 422q-121 201 -121 325v15q0 131 83 222t214 91q129 0 209 -86t80 -225v-15q0 -215 -203 -385l129 -243q16 74 31 190l192 -35q-25 -217 -92 -368l119 -203l-180 -111l-68 129q-110 -122 -268 -122zM410 913 q88 82 88 209v17q0 51 -22.5 82.5t-57.5 31.5q-37 0 -58.5 -29.5t-21.5 -76.5v-21q0 -74 72 -213zM401 197q76 0 129 69l-180 357q-84 -106 -84 -226v-16q0 -84 37 -134t98 -50z" />
<glyph unicode="'" horiz-adv-x="368" d="M92 780v654h246v-19l-156 -635h-90z" />
<glyph unicode="(" horiz-adv-x="612" d="M557 -285q-244 72 -357.5 304.5t-113.5 570.5q0 334 113.5 567.5t357.5 304.5v-180q-240 -125 -240 -692q0 -569 240 -694v-181z" />
<glyph unicode=")" horiz-adv-x="612" d="M55 -285v181q240 125 240 694q0 567 -240 692v180q244 -72 357.5 -305t113.5 -567q0 -338 -113.5 -570.5t-357.5 -304.5z" />
<glyph unicode="*" horiz-adv-x="610" d="M223 807l37 229l-151 -135l-82 143l186 76l-186 76l82 143l151 -135l-37 230h164l-37 -230l152 135l82 -143l-187 -76l187 -76l-82 -143l-152 135l37 -229h-164z" />
<glyph unicode="+" horiz-adv-x="892" d="M332 283v319h-291v238h291v319h229v-319h291v-238h-291v-319h-229z" />
<glyph unicode="," horiz-adv-x="446" d="M57 -332l-20 101q104 23 142 87t30 144h-127v285h283v-234q0 -164 -78 -263.5t-230 -119.5z" />
<glyph unicode="-" horiz-adv-x="688" d="M80 512v246h528v-246h-528z" />
<glyph unicode="." horiz-adv-x="446" d="M82 0v285h283v-285h-283z" />
<glyph unicode="/" horiz-adv-x="630" d="M-18 -201l448 1774h203l-449 -1774h-202z" />
<glyph unicode="0" horiz-adv-x="806" d="M403 -20q-178 0 -266 166.5t-88 531.5v78q0 365 88 531.5t266 166.5q354 0 355 -698v-78q-1 -698 -355 -698zM403.5 209q32.5 0 54 30.5t37 139t15.5 301.5v74q0 193 -15.5 301t-37 139t-54 31t-55 -31t-38 -139.5t-15.5 -300.5v-74q0 -193 15.5 -301.5t38 -139t55 -30.5 z" />
<glyph unicode="1" horiz-adv-x="518" d="M176 0v1169l-147 -47v252l221 70h178v-1444h-252z" />
<glyph unicode="2" horiz-adv-x="655" d="M43 0v211l242 553q98 221 98 313q0 55 -35 90t-92 35q-88 0 -184 -59v241q115 59 239 60q141 0 228.5 -84t87.5 -236v-10q0 -80 -23.5 -160t-89.5 -229l-205 -475h312v-250h-578z" />
<glyph unicode="3" horiz-adv-x="671" d="M242 -14q-119 0 -213 39v237q94 -39 180 -39q78 0 128 55.5t50 147.5v16q0 205 -250 222v163l234 363h-324v244h578v-224l-242 -370q250 -84 250 -379v-23q0 -207 -109.5 -329.5t-281.5 -122.5z" />
<glyph unicode="4" horiz-adv-x="790" d="M418 0v264h-389v191l377 983h245v-959h117v-215h-117v-264h-233zM231 479h187v525z" />
<glyph unicode="5" horiz-adv-x="681" d="M250 -14q-100 0 -191 39v243q82 -43 164 -43q86 0 134.5 66.5t48.5 181.5v14q0 205 -138 205q-49 0 -98 -20l-121 80l39 682h510v-238h-326l-18 -287q45 10 96 11q129 0 215 -103.5t86 -327.5v-18q0 -227 -109.5 -356t-291.5 -129z" />
<glyph unicode="6" horiz-adv-x="753" d="M385 -20q-170 0 -253 158.5t-83 510.5v43q0 215 30 365.5t86 233.5t125.5 118t162.5 35q88 0 172 -33v-235q-74 43 -146 43q-92 0 -141 -80t-51 -277q72 61 162 62q113 0 190.5 -99.5t77.5 -318.5v-39q0 -219 -93.5 -353t-238.5 -134zM387 203q96 0 96 254v41 q0 219 -106 219q-47 0 -88 -37v-172q0 -305 98 -305z" />
<glyph unicode="7" horiz-adv-x="636" d="M96 0l252 1182h-317v252h557v-177l-248 -1257h-244z" />
<glyph unicode="8" horiz-adv-x="761" d="M380.5 -20q-149.5 0 -244.5 112.5t-95 304.5v15q0 129 48 219t118 137q-145 94 -146 305v12q0 168 92.5 268.5t227.5 100.5t227 -100.5t92 -268.5v-12q0 -211 -145 -305q70 -47 118 -137t48 -219v-15q0 -193 -95.5 -305t-245 -112zM381 844q90 0 90 205v12 q0 197 -90 196.5t-90 -196.5v-12q0 -205 90 -205zM381 178q100 0 100 232v14q0 227 -100 227t-100 -227v-14q0 -232 100 -232z" />
<glyph unicode="9" horiz-adv-x="753" d="M301 -10q-94 0 -192 39v235q94 -49 165 -49q90 0 139.5 78t53.5 262q-72 -61 -162 -61q-115 0 -191.5 101t-76.5 331v28q0 229 92 364.5t240 135.5q170 0 253 -158.5t83 -511.5v-43q0 -215 -30 -365.5t-86.5 -233.5t-126 -117.5t-161.5 -34.5zM377 700q47 0 88 37v189 q0 305 -98 305q-96 0 -97 -266v-31q1 -234 107 -234z" />
<glyph unicode=":" horiz-adv-x="466" d="M92 813v285h283v-285h-283zM92 0v285h283v-285h-283z" />
<glyph unicode=";" horiz-adv-x="466" d="M92 813v285h283v-285h-283zM68 -332l-21 101q104 23 142 87t30 144h-127v285h283v-234q0 -164 -77.5 -263.5t-229.5 -119.5z" />
<glyph unicode="&#x3c;" d="M653 166l-594 414v282l594 414v-289l-381 -264l381 -264v-293z" />
<glyph unicode="=" horiz-adv-x="995" d="M102 836v245h791v-245h-791zM102 360v246h791v-246h-791z" />
<glyph unicode="&#x3e;" d="M63 166v289l381 264l-381 264v293l594 -414v-282z" />
<glyph unicode="?" horiz-adv-x="655" d="M199 446l-23 359l8 10q90 29 143.5 89.5t53.5 144.5v4q0 70 -47 115.5t-119 45.5q-94 0 -174 -49v226q111 53 223 53q162 0 262.5 -103.5t100.5 -263.5v-18q0 -258 -240 -367l-25 -246h-163zM143 0v285h283v-285h-283z" />
<glyph unicode="@" horiz-adv-x="1302" d="M610 -281q-248 0 -402.5 186.5t-152.5 534.5q2 264 82 492.5t239 376t363 147.5q223 0 363.5 -181t140.5 -444q0 -178 -38 -332.5t-117.5 -257t-188.5 -102.5q-176 0 -203 166q-88 -158 -200 -158q-76 0 -125 63.5t-49 182.5q0 254 90 449.5t211 195.5q111 0 147 -131 l21 115l196 -33l-90 -520q-14 -80 -14 -137q0 -92 63 -92q82 0 144.5 182t62.5 420q0 223 -114.5 375.5t-309.5 152.5q-170 0 -306 -137t-207 -351t-71 -452q-2 -299 128 -463t348 -164q166 0 299 80l43 -71q-154 -93 -353 -93zM584 313q68 0 112 187q33 143 33 250 q0 92 -57 92q-68 0 -113 -187q-33 -139 -33 -249q1 -93 58 -93z" />
<glyph unicode="A" horiz-adv-x="815" d="M2 0l272 1438h267l272 -1438h-250l-47 285h-227l-45 -285h-242zM326 510h153l-76 473z" />
<glyph unicode="B" horiz-adv-x="806" d="M74 0v1434h217q201 0 334 -89.5t133 -275.5v-10q0 -225 -207 -324q225 -98 225 -319v-19q0 -186 -131 -291.5t-344 -105.5h-227zM324 831h4q86 0 135 48.5t49 140.5v4q0 178 -184 178h-4v-371zM324 231h6q88 0 142 49.5t54 137.5v10q0 88 -54 137t-142 49h-6v-383z" />
<glyph unicode="C" horiz-adv-x="688" d="M453 -10q-182 0 -293 173t-111 529v49q0 358 116 530.5t304 172.5q92 0 164 -33v-258q-78 47 -139 47q-90 0 -140.5 -102.5t-50.5 -354.5v-53q0 -264 49 -360.5t146 -96.5q63 0 139 46v-246q-75 -43 -184 -43z" />
<glyph unicode="D" horiz-adv-x="858" d="M74 0v1434h233q242 0 372 -175.5t130 -517.5v-49q0 -342 -130 -517t-372 -175h-233zM324 229h10q221 0 221 463v49q0 463 -221 463h-10v-975z" />
<glyph unicode="E" horiz-adv-x="675" d="M74 0v1434h549v-238h-299v-356h264v-238h-264v-364h305v-238h-555z" />
<glyph unicode="F" horiz-adv-x="634" d="M74 0v1434h522v-238h-272v-360h237v-238h-237v-598h-250z" />
<glyph unicode="G" horiz-adv-x="829" d="M506 -10q-203 0 -330 174t-127 528v49q0 338 130 520.5t349 182.5q104 0 191 -41v-260q-102 61 -182 61q-111 0 -172.5 -113.5t-61.5 -338.5v-70q0 -461 213 -461q10 0 23 2v367h-123v223h350v-762q-141 -61 -260 -61z" />
<glyph unicode="H" horiz-adv-x="864" d="M74 0v1434h250v-594h217v594h250v-1434h-250v602h-217v-602h-250z" />
<glyph unicode="I" horiz-adv-x="405" d="M78 0v1434h250v-1434h-250z" />
<glyph unicode="J" horiz-adv-x="604" d="M190 -12q-68 0 -157 20v248q68 -25 119 -25q129 0 129 148v1055h254v-1074q0 -186 -91.5 -279t-253.5 -93z" />
<glyph unicode="K" horiz-adv-x="825" d="M74 0v1434h250v-600l202 600h283l-242 -607l246 -827h-278l-156 543l-55 -158v-385h-250z" />
<glyph unicode="L" horiz-adv-x="614" d="M74 0v1434h250v-1196h264v-238h-514z" />
<glyph unicode="M" horiz-adv-x="995" d="M74 0v1434h248l176 -525l176 525h248v-1434h-240v866l-182 -542h-4l-183 542v-866h-239z" />
<glyph unicode="N" horiz-adv-x="876" d="M74 0v1434h233l252 -725v725h244v-1434h-221l-265 760v-760h-243z" />
<glyph unicode="O" horiz-adv-x="860" d="M430 -20q-176 0 -278.5 178t-102.5 522v74q0 344 102.5 522t278.5 178t278.5 -178t102.5 -522v-74q0 -344 -102.5 -522t-278.5 -178zM430 209q41 0 67.5 39t43 146.5t16.5 285.5v74q0 178 -16.5 285.5t-43 146.5t-67.5 39t-67.5 -39t-43 -146.5t-16.5 -285.5v-74 q0 -178 16.5 -285.5t43 -146.5t67.5 -39z" />
<glyph unicode="P" horiz-adv-x="788" d="M74 0v1434h223q213 0 338 -120t125 -364v-4q0 -233 -117 -357t-317 -138h-2v-451h-250zM324 682h2q84 4 134 67.5t50 188.5v4q0 260 -178 260h-8v-520z" />
<glyph unicode="Q" horiz-adv-x="874" d="M737 -33l-98 103q-86 -90 -203 -90q-182 0 -284.5 177t-102.5 523v74q0 344 102.5 522t278.5 178t278.5 -178t102.5 -522v-74q0 -279 -78 -461l129 -119zM449 205q29 0 45 14l-123 123l116 129l60 -63q10 113 10 272v74q0 178 -16.5 285.5t-43 146.5t-67.5 39t-67.5 -39 t-43 -146.5t-16.5 -285.5v-74q0 -195 18.5 -301.5t47.5 -140t80 -33.5z" />
<glyph unicode="R" horiz-adv-x="815" d="M74 0v1434h258q203 0 322.5 -113t119.5 -344v-19q0 -250 -168 -376l193 -582h-267l-161 500h-4h-43v-500h-250zM324 725h12q188 0 188 231v17q0 227 -194 227h-6v-475z" />
<glyph unicode="S" horiz-adv-x="665" d="M297 -10q-131 0 -254 59v260q137 -80 225 -80q59 0 96 31t37 92v4q0 51 -26.5 102.5t-112.5 147.5q-139 158 -189 247t-50 212v4q0 170 98 272.5t250 102.5q131 0 221 -45v-260q-113 66 -191 65q-55 0 -92 -32.5t-37 -90.5v-4q0 -49 22.5 -85t117.5 -144 q147 -170 193 -263t46 -216v-4q0 -166 -102 -270.5t-252 -104.5z" />
<glyph unicode="T" horiz-adv-x="663" d="M207 0v1196h-176v238h602v-238h-176v-1196h-250z" />
<glyph unicode="U" horiz-adv-x="851" d="M426 -18q-162 0 -259 109.5t-97 326.5v1016h247v-1041q0 -180 109 -180t109 180v1041h247v-1016q0 -217 -97 -326.5t-259 -109.5z" />
<glyph unicode="V" horiz-adv-x="774" d="M258 -4l-256 1438h254l135 -934l135 934h246l-256 -1438h-258z" />
<glyph unicode="W" horiz-adv-x="1212" d="M223 -4l-217 1438h256l105 -879l125 879h231l123 -879l106 879h250l-217 -1438h-262l-119 850l-119 -850h-262z" />
<glyph unicode="X" horiz-adv-x="802" d="M16 0l234 731l-225 703h266l112 -414l115 414h260l-225 -703l233 -731h-266l-121 436l-123 -436h-260z" />
<glyph unicode="Y" horiz-adv-x="782" d="M266 0v565l-266 869h258l135 -537l137 537h252l-266 -869v-565h-250z" />
<glyph unicode="Z" horiz-adv-x="696" d="M47 0v199l330 999h-318v236h592v-199l-329 -999h329v-236h-604z" />
<glyph unicode="[" horiz-adv-x="585" d="M127 -266v1700h401v-172h-190v-1356h190v-172h-401z" />
<glyph unicode="\" horiz-adv-x="630" d="M446 -201l-448 1774h203l448 -1774h-203z" />
<glyph unicode="]" horiz-adv-x="585" d="M57 -266v172h191v1356h-191v172h402v-1700h-402z" />
<glyph unicode="^" horiz-adv-x="1024" d="M262 1028l150 391h198l152 -391h-156l-96 264l-96 -264h-152z" />
<glyph unicode="_" horiz-adv-x="925" d="M-4 -309v188h934v-188h-934z" />
<glyph unicode="`" horiz-adv-x="1024" d="M537 1208l-236 256l182 97l197 -353h-143z" />
<glyph unicode="a" d="M238 -18q-92 0 -150.5 88t-58.5 235v35q0 178 64.5 263t178.5 85q74 0 146 -41v66q0 172 -154 172q-68 0 -182 -51v229q106 47 229 47q168 0 257 -97.5t89 -283.5v-729h-241v117q-63 -135 -178 -135zM336 184q33 0 57.5 28t24.5 77v188q-41 23 -76 23q-82 0 -82 -146v-28 q0 -142 76 -142z" />
<glyph unicode="b" horiz-adv-x="786" d="M502 -20q-49 0 -90 28.5t-58.5 53t-44.5 71.5v-133h-241v1444h241v-483q25 45 43.5 72.5t59.5 56t90 28.5q233 0 233 -520v-98q0 -520 -233 -520zM403 211q90 0 91 301v74q0 301 -91 301q-96 0 -96 -301v-74q0 -301 96 -301z" />
<glyph unicode="c" horiz-adv-x="585" d="M387 -20q-158 0 -249 138t-91 396v66q0 256 96.5 395t249.5 139q88 0 152 -29v-247q-68 41 -121 41q-131 0 -131 -295v-74q0 -295 135 -295q47 0 119 47v-237q-82 -45 -160 -45z" />
<glyph unicode="d" horiz-adv-x="786" d="M285 -20q-233 0 -234 520v98q0 520 234 520q49 0 90 -28.5t58.5 -53t43.5 -71.5v479h242v-1444h-242v137q-25 -45 -43 -72.5t-59 -56t-90 -28.5zM383 211q96 0 96 301v74q0 301 -96 301q-90 0 -90 -301v-74q0 -301 90 -301z" />
<glyph unicode="e" d="M418 -20q-162 0 -269.5 142t-107.5 398v53q0 254 95 397.5t239 143.5q145 0 228 -142.5t83 -408.5v-127h-403q18 -231 166 -231q51 0 90 18.5t102 61.5l18 -222q-126 -83 -241 -83zM281 627h178q0 272 -84 272q-88 0 -94 -272z" />
<glyph unicode="f" horiz-adv-x="471" d="M94 0v901h-67v197h67v80q0 270 277 270q57 0 90 -8v-201q-10 2 -29 2q-96 0 -96 -100v-43h125v-197h-125v-901h-242z" />
<glyph unicode="g" horiz-adv-x="786" d="M334 -270q-117 0 -238 34v224q125 -45 205 -45q176 0 176 172v108q-23 -43 -43 -72.5t-61 -57t-90 -27.5q-231 0 -232 520v12q0 520 232 520q49 0 90 -26.5t60.5 -54t43.5 -72.5v133h242v-1002q0 -366 -385 -366zM383 297q96 0 96 293v4q0 143 -25.5 218t-70.5 75 q-90 0 -90 -293v-4q0 -293 90 -293z" />
<glyph unicode="h" horiz-adv-x="776" d="M68 0v1444h241v-477q78 152 195 151q102 0 156.5 -78.5t54.5 -208.5v-831h-242v776q0 125 -80 125q-37 0 -60.5 -32.5t-23.5 -92.5v-776h-241z" />
<glyph unicode="i" horiz-adv-x="380" d="M68 1202v242h245v-242h-245zM70 0v1098h241v-1098h-241z" />
<glyph unicode="j" horiz-adv-x="385" d="M72 1202v242h245v-242h-245zM57 -272q-53 0 -96 8v190h23q90 0 90 88v1084h241v-1104q0 -266 -258 -266z" />
<glyph unicode="k" horiz-adv-x="731" d="M68 0v1444h241v-766l154 420h262l-188 -445l180 -653h-268l-95 418l-45 -117v-301h-241z" />
<glyph unicode="l" horiz-adv-x="380" d="M70 0v1444h241v-1444h-241z" />
<glyph unicode="m" horiz-adv-x="1179" d="M68 0v1098h241v-129q80 150 194.5 149.5t184.5 -127.5q92 127 197 127q94 0 160.5 -76.5t66.5 -214.5v-827h-242v774q0 127 -77 127q-37 0 -59.5 -33.5t-22.5 -93.5v-774h-242v774q0 127 -78 127q-37 0 -59.5 -33.5t-22.5 -93.5v-774h-241z" />
<glyph unicode="n" horiz-adv-x="776" d="M68 0v1098h241v-131q78 152 195 151q102 0 156.5 -78.5t54.5 -208.5v-831h-242v776q0 125 -80 125q-37 0 -60.5 -32.5t-23.5 -92.5v-776h-241z" />
<glyph unicode="o" horiz-adv-x="774" d="M387.5 -20q-151.5 0 -246 139t-94.5 395v66q0 256 94.5 395t246 139t245.5 -139t94 -395v-66q0 -256 -94 -395t-245.5 -139zM387 195q98 0 98 315v74q0 315 -98 315t-98 -315v-74q0 -315 98 -315z" />
<glyph unicode="p" horiz-adv-x="786" d="M68 -266v1364h241v-137q25 45 43.5 72.5t59.5 56t90 28.5q233 0 233 -520v-98q0 -520 -233 -520q-49 0 -90 28.5t-58.5 53t-44.5 71.5v-399h-241zM403 211q90 0 91 301v74q0 301 -91 301q-96 0 -96 -301v-74q0 -301 96 -301z" />
<glyph unicode="q" horiz-adv-x="786" d="M477 -266v403q-25 -45 -43 -72.5t-59 -56t-90 -28.5q-233 0 -234 520v98q0 520 234 520q49 0 90 -28.5t58.5 -53t43.5 -71.5v133h242v-1364h-242zM383 211q96 0 96 301v74q0 301 -96 301q-90 0 -90 -301v-74q0 -301 90 -301z" />
<glyph unicode="r" horiz-adv-x="512" d="M68 0v1098h241v-137q53 150 165 149h11v-291h-4q-172 0 -172 -233v-586h-241z" />
<glyph unicode="s" horiz-adv-x="581" d="M258 -20q-106 0 -223 51v237q133 -70 207 -69q39 0 63.5 22.5t24.5 59.5v4q0 37 -23.5 72.5t-99.5 109.5q-92 90 -138 170t-46 176v4q0 135 85 216t226 81q94 0 180 -29v-237q-88 47 -166 47q-41 0 -65.5 -20.5t-24.5 -51.5v-4q0 -31 24.5 -64.5t106.5 -115.5 q100 -96 138 -172t38 -172v-4q0 -141 -87 -226t-220 -85z" />
<glyph unicode="t" horiz-adv-x="499" d="M322 -14q-225 0 -226 202v713h-65v197h65v280h242v-280h129v-197h-129v-631q0 -68 68 -67q29 0 59 12v-192q-65 -37 -143 -37z" />
<glyph unicode="u" horiz-adv-x="776" d="M272 -20q-102 0 -156.5 78.5t-54.5 207.5v832h242v-776q0 -125 80 -125q37 0 60.5 32.5t23.5 92.5v776h242v-1098h-242v131q-78 -151 -195 -151z" />
<glyph unicode="v" horiz-adv-x="741" d="M248 -4l-228 1102h240l113 -713l112 713h236l-225 -1102h-248z" />
<glyph unicode="w" horiz-adv-x="1077" d="M209 -4l-186 1102h245l82 -615l92 615h197l92 -615l82 615h242l-187 -1102h-237l-92 596l-93 -596h-237z" />
<glyph unicode="x" horiz-adv-x="729" d="M16 0l199 563l-195 535h250l97 -328l96 328h246l-195 -535l199 -563h-254l-97 348l-96 -348h-250z" />
<glyph unicode="y" horiz-adv-x="741" d="M180 -266l70 305l-227 1059h239l105 -647l114 647h238l-303 -1364h-236z" />
<glyph unicode="z" horiz-adv-x="593" d="M25 0v172l288 721h-278v205h536v-172l-288 -721h288v-205h-546z" />
<glyph unicode="{" horiz-adv-x="624" d="M575 -289q-188 4 -284 95.5t-96 238.5q0 51 27.5 137t27.5 148q0 76 -44 117.5t-118 41.5h-39v197h39q72 0 117 42t45 118q0 61 -27.5 147t-27.5 137q0 147 96 238.5t284 95.5v-164q-68 -2 -118.5 -45t-50.5 -116q0 -63 31.5 -152.5t31.5 -144.5q0 -106 -67.5 -172 t-176.5 -82q111 -16 177.5 -81t66.5 -173q0 -55 -31.5 -144.5t-31.5 -152.5q0 -74 51 -117t118 -45v-164z" />
<glyph unicode="|" horiz-adv-x="509" d="M160 -201v1774h190v-1774h-190z" />
<glyph unicode="}" horiz-adv-x="636" d="M61 -289v164q68 2 119 45t51 117q0 63 -31.5 152.5t-31.5 144.5q0 106 67.5 171.5t176.5 82.5q-111 16 -177.5 80.5t-66.5 173.5q0 55 31.5 144t31.5 153q0 74 -51 116.5t-119 44.5v164q188 -4 284.5 -95t96.5 -239q0 -51 -27.5 -137t-27.5 -147q0 -76 44 -118t118 -42 h39v-197h-39q-72 0 -117 -41.5t-45 -117.5q0 -61 27.5 -147.5t27.5 -137.5q0 -147 -96.5 -238.5t-284.5 -95.5z" />
<glyph unicode="~" horiz-adv-x="755" d="M504 520q-66 0 -137 51q-61 41 -95 41q-25 0 -39 -22.5t-28 -77.5l-129 37q12 113 63 169t113 56q66 0 137 -51q61 -41 94 -41q25 0 39.5 22.5t28.5 77.5l129 -37q-12 -113 -63.5 -169t-112.5 -56z" />
<glyph unicode="&#xa1;" horiz-adv-x="454" d="M86 1149v285h283v-285h-283zM80 0v41l86 946h123l86 -946v-41h-295z" />
<glyph unicode="&#xa2;" horiz-adv-x="614" d="M276 -12v188q-106 43 -165.5 174t-59.5 338v66q0 201 60.5 332t164.5 178v180h162v-156q63 -6 111 -28v-248q-68 41 -121 41q-131 0 -131 -295v-74q0 -295 135 -295q47 0 119 47v-237q-66 -37 -113 -41v-170h-162z" />
<glyph unicode="&#xa3;" d="M45 0v166l100 49v358h-94v228h94v227q0 227 105 332q90 90 242 90q86 0 155 -18v-246q-57 20 -112 20q-57 0 -96.5 -39t-39.5 -137v-229h193v-228h-193v-346h287v-227h-641z" />
<glyph unicode="&#xa4;" horiz-adv-x="776" d="M545 -20q-150 0 -253.5 119.5t-135.5 363.5h-125v184h110v43v53v52h-110v184h127q35 240 143.5 357.5t259.5 117.5q92 0 164 -33v-258q-78 47 -139 47q-135 0 -174 -231h204v-184h-221v-50v-57v-41h221v-184h-208q20 -135 65 -187.5t117 -52.5q63 0 139 45v-245 q-75 -43 -184 -43z" />
<glyph unicode="&#xa5;" horiz-adv-x="823" d="M291 0v199h-178v188h178v123h-178v188h133l-226 736h250l144 -584l145 584h244l-225 -736h133v-188h-179v-123h179v-188h-179v-199h-241z" />
<glyph unicode="&#xa7;" horiz-adv-x="837" d="M391 -14q-127 0 -244 51v239q133 -70 228 -69q39 0 63.5 22.5t24.5 59.5v4q0 20 -11.5 38.5t-37 36t-47.5 29.5l-63 33q-40 20 -64 35q-207 113 -207 276v4q0 74 44 141.5t124 96.5q-59 76 -60 178v4q0 133 86 208t228 75q111 0 196 -29v-235q-88 47 -180 47 q-47 0 -70.5 -19.5t-23.5 -46.5v-4q0 -39 36 -70.5t185 -117.5q207 -121 207 -277v-4q0 -74 -42 -139.5t-122 -93.5q57 -66 57 -168v-4q0 -139 -86 -220t-221 -81zM512 557q57 51 57 111v4q0 41 -41 81t-180 115q-4 2 -10 6.5t-10 6.5q-59 -41 -60 -103v-4q0 -41 41 -85 t180 -120q17 -8 23 -12z" />
<glyph unicode="&#xa8;" horiz-adv-x="1024" d="M573 1221v215h218v-215h-218zM233 1221v215h218v-215h-218z" />
<glyph unicode="&#xa9;" horiz-adv-x="1069" d="M534.5 -20q-217.5 0 -351.5 190t-134 512v70q0 322 134 512t351.5 190t351.5 -190.5t134 -511.5v-70q0 -322 -134 -512t-351.5 -190zM534.5 53q188.5 0 298 170t109.5 457v74q0 287 -109.5 456.5t-298 169.5t-298 -170t-109.5 -456v-74q0 -287 109.5 -457t298 -170z M557 309q-100 0 -161.5 97.5t-61.5 293.5v37q0 197 63.5 294t167.5 97q53 0 90 -18v-147q-47 27 -75 26q-102 0 -103 -250v-41q0 -145 25.5 -197t79.5 -52q35 0 75 26v-141q-41 -25 -100 -25z" />
<glyph unicode="&#xaa;" horiz-adv-x="512" d="M190 823q-51 0 -82.5 48.5t-31.5 129.5v19q0 190 133 190q41 0 82 -22v35q0 94 -86 94q-35 0 -101 -29v127q59 27 127 27q92 0 141.5 -54.5t49.5 -156.5v-397h-133v65q-40 -76 -99 -76zM66 618v99h380v-99h-380zM246 936q18 0 31.5 15.5t13.5 41.5v103q-31 12 -43 12 q-45 0 -45 -80v-14q0 -78 43 -78z" />
<glyph unicode="&#xab;" horiz-adv-x="970" d="M737 82l-274 459v16l274 459l189 -111l-221 -354l227 -354zM322 82l-275 459v16l275 459l188 -111l-221 -354l227 -354z" />
<glyph unicode="&#xad;" horiz-adv-x="688" d="M80 512v246h528v-246h-528z" />
<glyph unicode="&#xae;" horiz-adv-x="1069" d="M534.5 -20q-217.5 0 -351.5 190t-134 512v70q0 322 134 512t351.5 190t351.5 -190.5t134 -511.5v-70q0 -322 -134 -512t-351.5 -190zM534.5 53q188.5 0 298 170t109.5 457v74q0 287 -109.5 456.5t-298 169.5t-298 -170t-109.5 -456v-74q0 -287 109.5 -457t298 -170z M350 336v788h144q111 0 176 -62.5t65 -189.5v-10q0 -139 -92 -207l107 -319h-146l-90 274h-8h-19v-274h-137zM487 735h9q102 0 102 127v8q0 125 -106 125h-5v-260z" />
<glyph unicode="&#xaf;" horiz-adv-x="1024" d="M242 1239v174h540v-174h-540z" />
<glyph unicode="&#xb0;" horiz-adv-x="561" d="M280.5 741q-104.5 0 -167 93.5t-62.5 246.5v25q0 154 62.5 247t167 93t167 -93t62.5 -247v-25q0 -154 -62.5 -247t-167 -93zM280.5 897q71.5 0 71.5 184v25q0 184 -71.5 184t-71.5 -184v-25q0 -184 71.5 -184z" />
<glyph unicode="&#xb1;" horiz-adv-x="671" d="M260 -14q-133 0 -231 39v237q90 -39 184 -39q76 0 127 54.5t51 146.5v6q0 98 -63.5 152.5t-186.5 56.5v207q111 10 178.5 68.5t67.5 146.5v4q0 68 -41 106.5t-110 38.5q-80 0 -187 -55v231q119 59 242 60q145 0 241.5 -90t96.5 -262v4v-13q0 -121 -57.5 -202.5 t-145.5 -122.5q211 -88 211 -340v-10q0 -197 -108.5 -310.5t-268.5 -113.5z" />
<glyph unicode="&#xb2;" horiz-adv-x="655" d="M43 0v211l242 553q98 221 98 313q0 55 -35 90t-92 35q-88 0 -184 -59v241q115 59 239 60q141 0 228.5 -84t87.5 -236v-10q0 -80 -23.5 -160t-89.5 -229l-205 -475h312v-250h-578z" />
<glyph unicode="&#xb3;" horiz-adv-x="671" d="M242 -14q-119 0 -213 39v237q94 -39 180 -39q78 0 128 55.5t50 147.5v16q0 205 -250 222v163l234 363h-324v244h578v-224l-242 -370q250 -84 250 -379v-23q0 -207 -109.5 -329.5t-281.5 -122.5z" />
<glyph unicode="&#xb4;" horiz-adv-x="1024" d="M319 1208l197 353l182 -97l-235 -256h-144z" />
<glyph unicode="&#xb5;" horiz-adv-x="860" d="M604 -166l-98 156q-37 -10 -76 -10q-176 0 -278.5 178t-102.5 522v74q0 344 102.5 522t278.5 178t278.5 -178t102.5 -522v-74q0 -369 -119 -551l174 -295h-262zM430 209q41 0 67.5 39t43 146.5t16.5 285.5v74q0 178 -16.5 285.5t-43 146.5t-67.5 39t-67.5 -39t-43 -146.5 t-16.5 -285.5v-74q0 -178 16.5 -285.5t43 -146.5t67.5 -39z" />
<glyph unicode="&#xb6;" horiz-adv-x="737" d="M403 0v459q-156 16 -265 139t-109 348v4q0 250 131 367t342 117h151v-1434h-250z" />
<glyph unicode="&#xb7;" horiz-adv-x="487" d="M102 492v284h283v-284h-283z" />
<glyph unicode="&#xb8;" horiz-adv-x="1024" d="M473 -291l-205 78l201 254h143z" />
<glyph unicode="&#xb9;" horiz-adv-x="518" d="M176 0v1169l-147 -47v252l221 70h178v-1444h-252z" />
<glyph unicode="&#xba;" horiz-adv-x="512" d="M256 821q-84 0 -135 76t-51 217v37q0 141 51 217t135 76t135 -76t51 -217v-37q0 -141 -51 -217t-135 -76zM72 618v99h368v-99h-368zM256 938q53 0 53 174v41q0 174 -53 174t-53 -174v-41q0 -174 53 -174z" />
<glyph unicode="&#xbb;" horiz-adv-x="970" d="M649 82l-194 115l227 354l-221 354l188 111l275 -459v-16zM233 82l-194 115l227 354l-221 354l188 111l275 -459v-16z" />
<glyph unicode="&#xbc;" horiz-adv-x="2103" d="M1731 0v264h-389v191l377 983h245v-959h117v-215h-117v-264h-233zM1544 479h187v525zM444 -199l678 1762h223l-677 -1762h-224zM176 0v1169l-147 -47v252l221 70h178v-1444h-252z" />
<glyph unicode="&#xbd;" horiz-adv-x="1968" d="M1356 0v211l242 553q98 221 98 313q0 55 -35 90t-92 35q-88 0 -184 -59v241q115 59 239 60q141 0 228.5 -84t87.5 -236v-10q0 -80 -23.5 -160t-89.5 -229l-205 -475h312v-250h-578zM444 -199l678 1762h223l-677 -1762h-224zM176 0v1169l-147 -47v252l221 70h178v-1444 h-252z" />
<glyph unicode="&#xbe;" horiz-adv-x="2256" d="M1884 0v264h-389v191l377 983h245v-959h117v-215h-117v-264h-233zM1697 479h187v525zM598 -199l678 1762h223l-677 -1762h-224zM242 -14q-119 0 -213 39v237q94 -39 180 -39q78 0 128 55.5t50 147.5v16q0 205 -250 222v163l234 363h-324v244h578v-224l-242 -370 q250 -84 250 -379v-23q0 -207 -109.5 -329.5t-281.5 -122.5z" />
<glyph unicode="&#xbf;" horiz-adv-x="655" d="M229 1149v285h283v-285h-283zM391 -10q-162 0 -262 103.5t-100 262.5v19q0 258 239 366l25 246h164l22 -358l-8 -11q-90 -29 -143.5 -89t-53.5 -144v-4q0 -70 47.5 -116t118.5 -46q94 0 174 49v-225q-110 -53 -223 -53z" />
<glyph unicode="&#xc0;" horiz-adv-x="815" d="M2 0l272 1438h267l272 -1438h-250l-47 285h-227l-45 -285h-242zM326 510h153l-76 473zM367 1517l-236 256l182 97l197 -353h-143z" />
<glyph unicode="&#xc1;" horiz-adv-x="815" d="M2 0l272 1438h267l272 -1438h-250l-47 285h-227l-45 -285h-242zM326 510h153l-76 473zM291 1518l196 352l183 -96l-236 -256h-143z" />
<glyph unicode="&#xc2;" horiz-adv-x="815" d="M2 0l272 1438h267l272 -1438h-250l-47 285h-227l-45 -285h-242zM326 510h153l-76 473zM158 1517l150 322h198l152 -322h-148l-104 217l-104 -217h-144z" />
<glyph unicode="&#xc3;" horiz-adv-x="815" d="M2 0l272 1438h267l272 -1438h-250l-47 285h-227l-45 -285h-242zM326 510h153l-76 473zM524 1501q-66 0 -137 51q-61 41 -94 41q-25 0 -39 -22.5t-29 -77.5l-129 37q12 113 63.5 169t112.5 56q66 0 138 -51q61 -41 94 -41q25 0 39 22.5t28 77.5l129 -37 q-12 -113 -63.5 -169t-112.5 -56z" />
<glyph unicode="&#xc4;" horiz-adv-x="815" d="M2 0l272 1438h267l272 -1438h-250l-47 285h-227l-45 -285h-242zM326 510h153l-76 473zM467 1530v215h218v-215h-218zM127 1530v215h218v-215h-218z" />
<glyph unicode="&#xc5;" horiz-adv-x="815" d="M2 0l262 1380q-76 70 -76 174v23q0 96 63.5 162.5t158.5 66.5q92 0 154.5 -66.5t62.5 -162.5v-23q0 -104 -76 -174l262 -1380h-250l-47 285h-227l-45 -285h-242zM410 1448q39 0 63.5 32.5t24.5 78.5v14q0 47 -23.5 80t-64.5 33t-68 -33t-27 -80v-14q0 -43 27 -77t68 -34z M326 510h153l-76 473z" />
<glyph unicode="&#xc6;" horiz-adv-x="1138" d="M0 0l377 1434h708v-238h-299v-356h265v-238h-265v-364h306v-238h-555v285h-228l-67 -285h-242zM362 510h175v666h-19z" />
<glyph unicode="&#xc7;" horiz-adv-x="688" d="M379 -291l-205 78l172 219q-137 43 -217 214t-80 472v49q0 358 116 530.5t304 172.5q92 0 164 -33v-258q-78 47 -139 47q-90 0 -140.5 -102.5t-50.5 -354.5v-53q0 -264 49 -360.5t146 -96.5q63 0 139 46v-246q-57 -35 -139 -41z" />
<glyph unicode="&#xc8;" horiz-adv-x="675" d="M74 0v1434h549v-238h-299v-356h264v-238h-264v-364h305v-238h-555zM307 1518l-235 256l182 96l197 -352h-144z" />
<glyph unicode="&#xc9;" horiz-adv-x="675" d="M74 0v1434h549v-238h-299v-356h264v-238h-264v-364h305v-238h-555zM227 1517l197 353l182 -97l-235 -256h-144z" />
<glyph unicode="&#xca;" horiz-adv-x="675" d="M74 0v1434h549v-238h-299v-356h264v-238h-264v-364h305v-238h-555zM92 1518l150 321h198l152 -321h-148l-104 217l-104 -217h-144z" />
<glyph unicode="&#xcb;" horiz-adv-x="675" d="M74 0v1434h549v-238h-299v-356h264v-238h-264v-364h305v-238h-555zM411 1530v215h218v-215h-218zM71 1530v215h218v-215h-218z" />
<glyph unicode="&#xcc;" horiz-adv-x="405" d="M78 0v1434h250v-1434h-250zM135 1518l-235 256l182 96l197 -352h-144z" />
<glyph unicode="&#xcd;" horiz-adv-x="405" d="M78 0v1434h250v-1434h-250zM112 1517l197 353l182 -97l-235 -256h-144z" />
<glyph unicode="&#xce;" horiz-adv-x="405" d="M78 0v1434h250v-1434h-250zM-47 1518l149 321h199l152 -321h-148l-104 217l-105 -217h-143z" />
<glyph unicode="&#xcf;" horiz-adv-x="405" d="M78 0v1434h250v-1434h-250zM264 1530v215h217v-215h-217zM-76 1530v215h217v-215h-217z" />
<glyph unicode="&#xd0;" horiz-adv-x="913" d="M135 0v594h-104v246h104v594h227q242 0 372 -175.5t130 -517.5v-49q0 -342 -130 -517t-372 -175h-227zM379 229h10q221 0 221 463v49q0 463 -221 463h-10v-364h117v-246h-117v-365z" />
<glyph unicode="&#xd1;" horiz-adv-x="876" d="M74 0v1434h233l252 -725v725h244v-1434h-221l-265 760v-760h-243zM582 1501q-66 0 -137 51q-61 41 -94 41q-25 0 -39.5 -22.5t-28.5 -77.5l-129 37q12 113 63.5 169t112.5 56q66 0 137 -51q61 -41 94 -41q25 0 39.5 22.5t28.5 77.5l129 -37q-12 -113 -63.5 -169 t-112.5 -56z" />
<glyph unicode="&#xd2;" horiz-adv-x="860" d="M430 -20q-176 0 -278.5 178t-102.5 522v74q0 344 102.5 522t278.5 178t278.5 -178t102.5 -522v-74q0 -344 -102.5 -522t-278.5 -178zM430 209q41 0 67.5 39t43 146.5t16.5 285.5v74q0 178 -16.5 285.5t-43 146.5t-67.5 39t-67.5 -39t-43 -146.5t-16.5 -285.5v-74 q0 -178 16.5 -285.5t43 -146.5t67.5 -39zM365 1518l-236 256l182 96l197 -352h-143z" />
<glyph unicode="&#xd3;" horiz-adv-x="860" d="M430 -20q-176 0 -278.5 178t-102.5 522v74q0 344 102.5 522t278.5 178t278.5 -178t102.5 -522v-74q0 -344 -102.5 -522t-278.5 -178zM430 209q41 0 67.5 39t43 146.5t16.5 285.5v74q0 178 -16.5 285.5t-43 146.5t-67.5 39t-67.5 -39t-43 -146.5t-16.5 -285.5v-74 q0 -178 16.5 -285.5t43 -146.5t67.5 -39zM311 1518l197 352l182 -96l-235 -256h-144z" />
<glyph unicode="&#xd4;" horiz-adv-x="860" d="M430 -20q-176 0 -278.5 178t-102.5 522v74q0 344 102.5 522t278.5 178t278.5 -178t102.5 -522v-74q0 -344 -102.5 -522t-278.5 -178zM430 209q41 0 67.5 39t43 146.5t16.5 285.5v74q0 178 -16.5 285.5t-43 146.5t-67.5 39t-67.5 -39t-43 -146.5t-16.5 -285.5v-74 q0 -178 16.5 -285.5t43 -146.5t67.5 -39zM180 1518l150 321h198l152 -321h-148l-104 217l-104 -217h-144z" />
<glyph unicode="&#xd5;" horiz-adv-x="860" d="M430 -20q-176 0 -278.5 178t-102.5 522v74q0 344 102.5 522t278.5 178t278.5 -178t102.5 -522v-74q0 -344 -102.5 -522t-278.5 -178zM430 209q41 0 67.5 39t43 146.5t16.5 285.5v74q0 178 -16.5 285.5t-43 146.5t-67.5 39t-67.5 -39t-43 -146.5t-16.5 -285.5v-74 q0 -178 16.5 -285.5t43 -146.5t67.5 -39zM549 1501q-66 0 -137 51q-61 41 -94 41q-25 0 -39.5 -22.5t-28.5 -77.5l-129 37q12 113 63.5 169t112.5 56q66 0 137 -51q61 -41 94 -41q25 0 39.5 22.5t28.5 77.5l129 -37q-12 -113 -63.5 -169t-112.5 -56z" />
<glyph unicode="&#xd6;" horiz-adv-x="860" d="M430 -20q-176 0 -278.5 178t-102.5 522v74q0 344 102.5 522t278.5 178t278.5 -178t102.5 -522v-74q0 -344 -102.5 -522t-278.5 -178zM430 209q41 0 67.5 39t43 146.5t16.5 285.5v74q0 178 -16.5 285.5t-43 146.5t-67.5 39t-67.5 -39t-43 -146.5t-16.5 -285.5v-74 q0 -178 16.5 -285.5t43 -146.5t67.5 -39zM491 1530v215h218v-215h-218zM151 1530v215h218v-215h-218z" />
<glyph unicode="&#xd8;" horiz-adv-x="860" d="M72 -10l73 178q-96 182 -96 512v74q0 344 102.5 522t278.5 178q123 0 207 -84l31 74h141l-84 -201q86 -178 86 -489v-74q0 -344 -102.5 -522t-278.5 -178q-111 0 -192 69l-25 -59h-141zM301 543l231 555q-31 131 -102 131q-131 0 -131 -475v-74q0 -96 2 -137zM430 205 q131 0 131 475v74q0 63 -2 92l-225 -541q30 -100 96 -100z" />
<glyph unicode="&#xd9;" horiz-adv-x="851" d="M426 -18q-162 0 -259 109.5t-97 326.5v1016h247v-1041q0 -180 109 -180t109 180v1041h247v-1016q0 -217 -97 -326.5t-259 -109.5zM350 1518l-235 256l182 96l197 -352h-144z" />
<glyph unicode="&#xda;" horiz-adv-x="851" d="M426 -18q-162 0 -259 109.5t-97 326.5v1016h247v-1041q0 -180 109 -180t109 180v1041h247v-1016q0 -217 -97 -326.5t-259 -109.5zM354 1517l197 353l182 -97l-235 -256h-144z" />
<glyph unicode="&#xdb;" horiz-adv-x="851" d="M426 -18q-162 0 -259 109.5t-97 326.5v1016h247v-1041q0 -180 109 -180t109 180v1041h247v-1016q0 -217 -97 -326.5t-259 -109.5zM176 1518l150 321h198l152 -321h-148l-104 217l-105 -217h-143z" />
<glyph unicode="&#xdc;" horiz-adv-x="851" d="M426 -18q-162 0 -259 109.5t-97 326.5v1016h247v-1041q0 -180 109 -180t109 180v1041h247v-1016q0 -217 -97 -326.5t-259 -109.5zM487 1530v215h218v-215h-218zM147 1530v215h218v-215h-218z" />
<glyph unicode="&#xdd;" horiz-adv-x="782" d="M266 0v565l-266 869h258l135 -537l137 537h252l-266 -869v-565h-250zM288 1517l197 353l182 -97l-235 -256h-144z" />
<glyph unicode="&#xde;" horiz-adv-x="788" d="M74 0v1434h250v-197h2q178 0 306 -119t128 -364v-4q0 -233 -117 -357.5t-317 -138.5h-2v-254h-250zM324 485h2q84 4 134 67.5t50 188.5v4q0 260 -178 261h-8v-521z" />
<glyph unicode="&#xdf;" horiz-adv-x="823" d="M408 -4v207q135 18 135 217v6q0 188 -135 225v176q106 72 106 238v12q0 160 -100 160q-104 0 -105 -209v-1028h-241v1020q0 195 92 311.5t260 116.5q154 0 239.5 -97.5t85.5 -240.5v-16q0 -217 -157 -328q195 -96 194 -340v-14q0 -193 -95 -301.5t-279 -114.5z" />
<glyph unicode="&#xe0;" d="M238 -18q-92 0 -150.5 88t-58.5 235v35q0 178 64.5 263t178.5 85q74 0 146 -41v66q0 172 -154 172q-68 0 -182 -51v229q106 47 229 47q168 0 257 -97.5t89 -283.5v-729h-241v117q-63 -135 -178 -135zM336 184q33 0 57.5 28t24.5 77v188q-41 23 -76 23q-82 0 -82 -146v-28 q0 -142 76 -142zM276 1208l-235 256l182 97l197 -353h-144z" />
<glyph unicode="&#xe1;" d="M238 -18q-92 0 -150.5 88t-58.5 235v35q0 178 64.5 263t178.5 85q74 0 146 -41v66q0 172 -154 172q-68 0 -182 -51v229q106 47 229 47q168 0 257 -97.5t89 -283.5v-729h-241v117q-63 -135 -178 -135zM336 184q33 0 57.5 28t24.5 77v188q-41 23 -76 23q-82 0 -82 -146v-28 q0 -142 76 -142zM217 1208l197 353l182 -97l-235 -256h-144z" />
<glyph unicode="&#xe2;" d="M238 -18q-92 0 -150.5 88t-58.5 235v35q0 178 64.5 263t178.5 85q74 0 146 -41v66q0 172 -154 172q-68 0 -182 -51v229q106 47 229 47q168 0 257 -97.5t89 -283.5v-729h-241v117q-63 -135 -178 -135zM336 184q33 0 57.5 28t24.5 77v188q-41 23 -76 23q-82 0 -82 -146v-28 q0 -142 76 -142zM96 1208l150 322h198l152 -322h-147l-105 217l-104 -217h-144z" />
<glyph unicode="&#xe3;" d="M238 -18q-92 0 -150.5 88t-58.5 235v35q0 178 64.5 263t178.5 85q74 0 146 -41v66q0 172 -154 172q-68 0 -182 -51v229q106 47 229 47q168 0 257 -97.5t89 -283.5v-729h-241v117q-63 -135 -178 -135zM336 184q33 0 57.5 28t24.5 77v188q-41 23 -76 23q-82 0 -82 -146v-28 q0 -142 76 -142zM477 1192q-66 0 -137 51q-61 41 -94 41q-25 0 -39.5 -22.5t-28.5 -77.5l-129 37q12 113 63.5 169t112.5 56q66 0 137 -51q61 -41 94 -41q25 0 39.5 22.5t28.5 77.5l129 -37q-12 -113 -63.5 -169t-112.5 -56z" />
<glyph unicode="&#xe4;" d="M238 -18q-92 0 -150.5 88t-58.5 235v35q0 178 64.5 263t178.5 85q74 0 146 -41v66q0 172 -154 172q-68 0 -182 -51v229q106 47 229 47q168 0 257 -97.5t89 -283.5v-729h-241v117q-63 -135 -178 -135zM336 184q33 0 57.5 28t24.5 77v188q-41 23 -76 23q-82 0 -82 -146v-28 q0 -142 76 -142zM403 1221v215h218v-215h-218zM63 1221v215h218v-215h-218z" />
<glyph unicode="&#xe5;" d="M238 -18q-92 0 -150.5 88t-58.5 235v35q0 178 64.5 263t178.5 85q74 0 146 -41v66q0 172 -154 172q-68 0 -182 -51v229q106 47 229 47q168 0 257 -97.5t89 -283.5v-729h-241v117q-63 -135 -178 -135zM336 184q33 0 57.5 28t24.5 77v188q-41 23 -76 23q-82 0 -82 -146v-28 q0 -142 76 -142zM332 1176q-94 0 -157.5 67.5t-63.5 161.5v22q0 96 63.5 163t157.5 67q92 0 154.5 -66.5t62.5 -163.5v-22q0 -94 -62.5 -161.5t-154.5 -67.5zM332 1298q39 0 63.5 33t24.5 78v14q0 47 -23.5 80t-64.5 33t-67.5 -33t-26.5 -80v-14q0 -43 26.5 -77t67.5 -34z " />
<glyph unicode="&#xe6;" horiz-adv-x="1087" d="M268 -18q-113 0 -176 86t-63 237v35q0 178 64.5 263t178.5 85q74 0 146 -41v66q0 172 -154 172q-68 0 -182 -51v229q106 47 229 47q158 0 238 -119q76 123 196 123q145 0 228.5 -142.5t83.5 -408.5v-127h-404q18 -231 166 -231q51 0 90 18.5t103 61.5l18 -222 q-127 -84 -242 -83q-197 0 -286 204q-29 -90 -91.5 -146t-142.5 -56zM651 627h178q0 272 -84 272q-88 0 -94 -272zM346 184q33 0 65.5 37t49.5 105q-8 45 -17 143q-51 31 -102 31q-82 0 -82 -146v-28q0 -142 86 -142z" />
<glyph unicode="&#xe7;" horiz-adv-x="585" d="M324 -291l-205 78l166 211q-111 43 -172.5 174t-61.5 342v66q0 256 96.5 395t249.5 139q88 0 152 -29v-247q-68 41 -121 41q-131 0 -131 -295v-74q0 -295 135 -295q47 0 119 47v-237q-66 -37 -113 -41z" />
<glyph unicode="&#xe8;" d="M418 -20q-162 0 -269.5 142t-107.5 398v53q0 254 95 397.5t239 143.5q145 0 228 -142.5t83 -408.5v-127h-403q18 -231 166 -231q51 0 90 18.5t102 61.5l18 -222q-126 -83 -241 -83zM281 627h178q0 272 -84 272q-88 0 -94 -272zM305 1208l-235 256l182 97l197 -353h-144z " />
<glyph unicode="&#xe9;" d="M418 -20q-162 0 -269.5 142t-107.5 398v53q0 254 95 397.5t239 143.5q145 0 228 -142.5t83 -408.5v-127h-403q18 -231 166 -231q51 0 90 18.5t102 61.5l18 -222q-126 -83 -241 -83zM281 627h178q0 272 -84 272q-88 0 -94 -272zM272 1208l197 353l182 -97l-235 -256h-144z " />
<glyph unicode="&#xea;" d="M418 -20q-162 0 -269.5 142t-107.5 398v53q0 254 95 397.5t239 143.5q145 0 228 -142.5t83 -408.5v-127h-403q18 -231 166 -231q51 0 90 18.5t102 61.5l18 -222q-126 -83 -241 -83zM281 627h178q0 272 -84 272q-88 0 -94 -272zM123 1208l149 322h199l152 -322h-148 l-104 217l-105 -217h-143z" />
<glyph unicode="&#xeb;" d="M418 -20q-162 0 -269.5 142t-107.5 398v53q0 254 95 397.5t239 143.5q145 0 228 -142.5t83 -408.5v-127h-403q18 -231 166 -231q51 0 90 18.5t102 61.5l18 -222q-126 -83 -241 -83zM281 627h178q0 272 -84 272q-88 0 -94 -272zM434 1221v215h217v-215h-217zM94 1221v215 h217v-215h-217z" />
<glyph unicode="&#xec;" horiz-adv-x="380" d="M70 0v1098h241v-1098h-241zM117 1208l-236 256l182 97l197 -353h-143z" />
<glyph unicode="&#xed;" horiz-adv-x="380" d="M70 0v1098h241v-1098h-241zM102 1208l197 353l182 -97l-235 -256h-144z" />
<glyph unicode="&#xee;" horiz-adv-x="380" d="M70 0v1098h241v-1098h-241zM-59 1208l149 322h199l151 -322h-147l-105 217l-104 -217h-143z" />
<glyph unicode="&#xef;" horiz-adv-x="380" d="M70 0v1098h241v-1098h-241zM252 1221v215h217v-215h-217zM-88 1221v215h217v-215h-217z" />
<glyph unicode="&#xf0;" horiz-adv-x="765" d="M371 -20q-145 0 -233.5 119.5t-88.5 351.5v34q0 227 64.5 341t165.5 114q98 0 178 -102l-101 241l-149 -86l-90 156l172 98l-82 197h223l39 -94l119 67l90 -155l-137 -78l59 -140q117 -276 117 -548v-35q0 -236 -98 -358.5t-248 -122.5zM381 193q90 0 90 260v28 q0 147 -22.5 203.5t-67.5 56.5q-88 0 -88 -260v-28q0 -260 88 -260z" />
<glyph unicode="&#xf1;" horiz-adv-x="776" d="M68 0v1098h241v-131q78 152 195 151q102 0 156.5 -78.5t54.5 -208.5v-831h-242v776q0 125 -80 125q-37 0 -60.5 -32.5t-23.5 -92.5v-776h-241zM524 1192q-66 0 -137 51q-61 41 -94 41q-25 0 -39.5 -22.5t-28.5 -77.5l-129 37q12 113 63.5 169t112.5 56q66 0 137 -51 q61 -41 94 -41q25 0 39.5 22.5t28.5 77.5l129 -37q-12 -113 -63.5 -169t-112.5 -56z" />
<glyph unicode="&#xf2;" horiz-adv-x="774" d="M387.5 -20q-151.5 0 -246 139t-94.5 395v66q0 256 94.5 395t246 139t245.5 -139t94 -395v-66q0 -256 -94 -395t-245.5 -139zM387 195q98 0 98 315v74q0 315 -98 315t-98 -315v-74q0 -315 98 -315zM330 1208l-236 256l182 97l197 -353h-143z" />
<glyph unicode="&#xf3;" horiz-adv-x="774" d="M387.5 -20q-151.5 0 -246 139t-94.5 395v66q0 256 94.5 395t246 139t245.5 -139t94 -395v-66q0 -256 -94 -395t-245.5 -139zM387 195q98 0 98 315v74q0 315 -98 315t-98 -315v-74q0 -315 98 -315zM296 1208l197 353l182 -97l-235 -256h-144z" />
<glyph unicode="&#xf4;" horiz-adv-x="774" d="M387.5 -20q-151.5 0 -246 139t-94.5 395v66q0 256 94.5 395t246 139t245.5 -139t94 -395v-66q0 -256 -94 -395t-245.5 -139zM387 195q98 0 98 315v74q0 315 -98 315t-98 -315v-74q0 -315 98 -315zM137 1208l150 322h198l152 -322h-148l-104 217l-104 -217h-144z" />
<glyph unicode="&#xf5;" horiz-adv-x="774" d="M387.5 -20q-151.5 0 -246 139t-94.5 395v66q0 256 94.5 395t246 139t245.5 -139t94 -395v-66q0 -256 -94 -395t-245.5 -139zM387 195q98 0 98 315v74q0 315 -98 315t-98 -315v-74q0 -315 98 -315zM512 1192q-66 0 -137 51q-61 41 -94 41q-25 0 -39.5 -22.5t-28.5 -77.5 l-129 37q12 113 63.5 169t112.5 56q66 0 137 -51q61 -41 94 -41q25 0 39.5 22.5t28.5 77.5l129 -37q-12 -113 -63.5 -169t-112.5 -56z" />
<glyph unicode="&#xf6;" horiz-adv-x="774" d="M387.5 -20q-151.5 0 -246 139t-94.5 395v66q0 256 94.5 395t246 139t245.5 -139t94 -395v-66q0 -256 -94 -395t-245.5 -139zM387 195q98 0 98 315v74q0 315 -98 315t-98 -315v-74q0 -315 98 -315zM449 1221v215h217v-215h-217zM109 1221v215h217v-215h-217z" />
<glyph unicode="&#xf8;" horiz-adv-x="774" d="M23 -16l92 178q-68 135 -68 352v66q0 256 94.5 395t245.5 139q102 0 180 -65l37 69h141l-92 -176q74 -137 74 -362v-66q0 -256 -94 -395t-246 -139q-106 0 -188 71l-35 -67h-141zM274 467l191 364q-29 72 -78 72q-113 0 -113 -319v-74v-43zM387 190q51 0 82 82t31 238v74 q0 41 -2 59l-195 -371q31 -82 84 -82z" />
<glyph unicode="&#xf9;" horiz-adv-x="776" d="M272 -20q-102 0 -156.5 78.5t-54.5 207.5v832h242v-776q0 -125 80 -125q37 0 60.5 32.5t23.5 92.5v776h242v-1098h-242v131q-78 -151 -195 -151zM311 1208l-235 256l182 97l197 -353h-144z" />
<glyph unicode="&#xfa;" horiz-adv-x="776" d="M272 -20q-102 0 -156.5 78.5t-54.5 207.5v832h242v-776q0 -125 80 -125q37 0 60.5 32.5t23.5 92.5v776h242v-1098h-242v131q-78 -151 -195 -151zM309 1208l197 353l182 -97l-235 -256h-144z" />
<glyph unicode="&#xfb;" horiz-adv-x="776" d="M272 -20q-102 0 -156.5 78.5t-54.5 207.5v832h242v-776q0 -125 80 -125q37 0 60.5 32.5t23.5 92.5v776h242v-1098h-242v131q-78 -151 -195 -151zM137 1208l150 322h198l152 -322h-148l-104 217l-104 -217h-144z" />
<glyph unicode="&#xfc;" horiz-adv-x="776" d="M272 -20q-102 0 -156.5 78.5t-54.5 207.5v832h242v-776q0 -125 80 -125q37 0 60.5 32.5t23.5 92.5v776h242v-1098h-242v131q-78 -151 -195 -151zM449 1221v215h217v-215h-217zM109 1221v215h217v-215h-217z" />
<glyph unicode="&#xfd;" horiz-adv-x="741" d="M180 -266l70 305l-227 1059h239l105 -647l114 647h238l-303 -1364h-236zM250 1208l196 353l183 -97l-236 -256h-143z" />
<glyph unicode="&#xfe;" horiz-adv-x="786" d="M68 -266v1710h241v-483q25 45 43.5 72.5t59.5 56t90 28.5q233 0 233 -520v-98q0 -520 -233 -520q-49 0 -90 28.5t-58.5 53t-44.5 71.5v-399h-241zM403 211q90 0 91 301v74q0 301 -91 301q-96 0 -96 -301v-74q0 -301 96 -301z" />
<glyph unicode="&#xff;" horiz-adv-x="741" d="M180 -266l70 305l-227 1059h239l105 -647l114 647h238l-303 -1364h-236zM428 1221v215h218v-215h-218zM88 1221v215h218v-215h-218z" />
<glyph unicode="&#x152;" horiz-adv-x="1138" d="M551 0q-242 0 -372 175t-130 517v49q0 342 130 517.5t372 175.5h534v-238h-299v-356h265v-238h-265v-364h306v-238h-541zM524 229h11v975h-11q-221 0 -221 -463v-49q0 -463 221 -463z" />
<glyph unicode="&#x153;" horiz-adv-x="1181" d="M387 -20q-152 0 -246 139t-94 395v66q0 256 94.5 395t246 139t230.5 -143q80 143 222 143q145 0 228 -142.5t83 -408.5v-127h-403q18 -231 165 -231q51 0 90 18.5t103 61.5l18 -222q-127 -84 -241 -83q-164 0 -258 151q-80 -151 -238 -151zM745 627h179q0 272 -84 272 q-89 0 -95 -272zM387 195q98 0 98 315v74q0 315 -98 315t-98 -315v-74q0 -315 98 -315z" />
<glyph unicode="&#x178;" horiz-adv-x="782" d="M266 0v565l-266 869h258l135 -537l137 537h252l-266 -869v-565h-250zM453 1530v215h217v-215h-217zM113 1530v215h217v-215h-217z" />
<glyph unicode="&#x2c6;" horiz-adv-x="1024" d="M262 1208l150 322h198l152 -322h-148l-104 217l-104 -217h-144z" />
<glyph unicode="&#x2dc;" horiz-adv-x="1024" d="M637 1192q-66 0 -137 51q-61 41 -94 41q-25 0 -39.5 -22.5t-28.5 -77.5l-129 37q12 113 63.5 169t112.5 56q66 0 137 -51q61 -41 94 -41q25 0 39.5 22.5t28.5 77.5l129 -37q-12 -113 -63.5 -169t-112.5 -56z" />
<glyph unicode="&#x3bc;" horiz-adv-x="860" d="M604 -166l-98 156q-37 -10 -76 -10q-176 0 -278.5 178t-102.5 522v74q0 344 102.5 522t278.5 178t278.5 -178t102.5 -522v-74q0 -369 -119 -551l174 -295h-262zM430 209q41 0 67.5 39t43 146.5t16.5 285.5v74q0 178 -16.5 285.5t-43 146.5t-67.5 39t-67.5 -39t-43 -146.5 t-16.5 -285.5v-74q0 -178 16.5 -285.5t43 -146.5t67.5 -39z" />
<glyph unicode="&#x2000;" horiz-adv-x="933" />
<glyph unicode="&#x2001;" horiz-adv-x="1869" />
<glyph unicode="&#x2002;" horiz-adv-x="933" />
<glyph unicode="&#x2003;" horiz-adv-x="1869" />
<glyph unicode="&#x2004;" horiz-adv-x="622" />
<glyph unicode="&#x2005;" horiz-adv-x="466" />
<glyph unicode="&#x2006;" horiz-adv-x="311" />
<glyph unicode="&#x2007;" horiz-adv-x="311" />
<glyph unicode="&#x2008;" horiz-adv-x="233" />
<glyph unicode="&#x2009;" horiz-adv-x="372" />
<glyph unicode="&#x200a;" horiz-adv-x="102" />
<glyph unicode="&#x2010;" horiz-adv-x="688" d="M80 512v246h528v-246h-528z" />
<glyph unicode="&#x2011;" horiz-adv-x="688" d="M80 512v246h528v-246h-528z" />
<glyph unicode="&#x2012;" horiz-adv-x="688" d="M80 512v246h528v-246h-528z" />
<glyph unicode="&#x2013;" horiz-adv-x="933" d="M80 514v242h774v-242h-774z" />
<glyph unicode="&#x2014;" horiz-adv-x="1380" d="M80 514v242h1220v-242h-1220z" />
<glyph unicode="&#x2018;" horiz-adv-x="460" d="M82 823v234q0 164 78 263t229 120l21 -101q-104 -23 -142.5 -87t-29.5 -144h127v-285h-283z" />
<glyph unicode="&#x2019;" horiz-adv-x="460" d="M72 817l-21 101q104 23 142 87t30 144h-127v285h283v-234q0 -164 -77.5 -263.5t-229.5 -119.5z" />
<glyph unicode="&#x201a;" horiz-adv-x="512" d="M78 -332l-21 101q117 25 161 88t36 143h-127v285h283v-234q0 -342 -332 -383z" />
<glyph unicode="&#x201c;" horiz-adv-x="849" d="M471 823v234q0 164 78 263t229 120l21 -101q-104 -23 -142.5 -87t-29.5 -144h127v-285h-283zM82 823v234q0 164 78 263t229 120l21 -101q-104 -23 -142.5 -87t-29.5 -144h127v-285h-283z" />
<glyph unicode="&#x201d;" horiz-adv-x="849" d="M461 817l-21 101q104 23 142.5 87t29.5 144h-127v285h283v-234q0 -164 -77.5 -263.5t-229.5 -119.5zM72 817l-21 101q104 23 142 87t30 144h-127v285h283v-234q0 -164 -77.5 -263.5t-229.5 -119.5z" />
<glyph unicode="&#x201e;" horiz-adv-x="921" d="M487 -332l-20 101q117 25 161 88t36 143h-127v285h282v-234q0 -342 -332 -383zM78 -332l-21 101q117 25 161 88t36 143h-127v285h283v-234q0 -342 -332 -383z" />
<glyph unicode="&#x2022;" horiz-adv-x="718" d="M358.5 416q-102.5 0 -165 75.5t-62.5 215.5v36q0 139 62.5 215t165 76t165 -75.5t62.5 -215.5v-36q0 -139 -62.5 -215t-165 -76z" />
<glyph unicode="&#x2026;" horiz-adv-x="1503" d="M1118 0v285h283v-285h-283zM610 0v285h283v-285h-283zM102 0v285h283v-285h-283z" />
<glyph unicode="&#x202f;" horiz-adv-x="372" />
<glyph unicode="&#x2039;" horiz-adv-x="555" d="M322 82l-275 459v16l275 459l188 -111l-221 -354l227 -354z" />
<glyph unicode="&#x203a;" horiz-adv-x="555" d="M233 82l-194 115l227 354l-221 354l188 111l275 -459v-16z" />
<glyph unicode="&#x2044;" horiz-adv-x="794" d="M-74 -199l678 1762h223l-677 -1762h-224z" />
<glyph unicode="&#x205f;" horiz-adv-x="466" />
<glyph unicode="&#x2122;" horiz-adv-x="882" d="M385 788v646h137l74 -215l74 215h137v-646h-127v392l-84 -246h-2l-80 246v-392h-129zM111 788v519h-80v127h291v-127h-80v-519h-131z" />
<glyph unicode="&#xe000;" horiz-adv-x="1100" d="M0 1100h1100v-1100h-1100v1100z" />
<glyph unicode="&#xfb01;" horiz-adv-x="860" d="M547 1202v242h246v-242h-246zM94 0v901h-67v197h67v80q0 270 277 270q57 0 90 -8v-201q-10 2 -29 2q-96 0 -96 -100v-43h125v-197h-125v-901h-242zM549 0v1098h242v-1098h-242z" />
<glyph unicode="&#xfb02;" horiz-adv-x="860" d="M94 0v901h-67v197h67v80q0 270 277 270q57 0 90 -8v-201q-10 2 -29 2q-96 0 -96 -100v-43h125v-197h-125v-901h-242zM549 0v1444h242v-1444h-242z" />
<glyph unicode="&#xfb03;" horiz-adv-x="1323" d="M1010 1202v242h245v-242h-245zM1012 0v1098h241v-1098h-241zM565 0v901h-67v197h67v80q0 270 277 270q57 0 90 -8v-201q-10 2 -29 2q-96 0 -96 -100v-43h125v-197h-125v-901h-242zM94 0v901h-67v197h67v80q0 270 277 270q57 0 90 -8v-201q-10 2 -29 2q-96 0 -96 -100v-43 h125v-197h-125v-901h-242z" />
<glyph unicode="&#xfb04;" horiz-adv-x="1323" d="M1012 0v1444h241v-1444h-241zM565 0v901h-67v197h67v80q0 270 277 270q57 0 90 -8v-201q-10 2 -29 2q-96 0 -96 -100v-43h125v-197h-125v-901h-242zM94 0v901h-67v197h67v80q0 270 277 270q57 0 90 -8v-201q-10 2 -29 2q-96 0 -96 -100v-43h125v-197h-125v-901h-242z" />
</font>
</defs>
</svg>
